<?xml version="1.0" standalone="no"?>
<!DOCTYPE svg PUBLIC "-//W3C//DTD SVG 1.1//EN" "http://www.w3.org/Graphics/SVG/1.1/DTD/svg11.dtd" >
<svg xmlns="http://www.w3.org/2000/svg" xmlns:xlink="http://www.w3.org/1999/xlink" version="1.1">
<metadata>
Created by FontForge 20191125 at Fri Dec 10 15:39:14 2021
 By convertio
</metadata>
<defs>
<font id="ArsenicaTrial-Medium" horiz-adv-x="0" >
  <font-face 
    font-family="Arsenica Trial Medium"
    font-weight="500"
    font-stretch="normal"
    units-per-em="1000"
    panose-1="0 0 6 0 0 0 0 0 0 0"
    ascent="800"
    descent="-200"
    x-height="457"
    cap-height="703"
    bbox="-727 -228.889 1430.67 1064"
    underline-thickness="50"
    underline-position="-100"
    unicode-range="U+0020-F8FF"
  />
<missing-glyph horiz-adv-x="460" 
d="M85 719h292v-919h-292v919zM306 627v30h-152v-30h60v-34h-61v-30h153v30h-61v34h61zM245 475v64h-92v-96h153v32h-61zM184 508h30v-33h-30v33zM306 388v30h-153v-30h61v-34h-61v-30h92v64h61zM306 271v92h-30v-60h-123v-32h153zM306 147v104h-92v-51h31v21h31v-43h-92v73
h-31v-104h153zM306 -12v104h-153v-104h153zM184 62h92v-43h-92v43zM306 -63v30h-153v-30h65l-65 -43v-31h153v31h-94l65 43h29z" />
    <glyph glyph-name=".notdef" horiz-adv-x="460" 
d="M85 719h292v-919h-292v919zM306 627v30h-152v-30h60v-34h-61v-30h153v30h-61v34h61zM245 475v64h-92v-96h153v32h-61zM184 508h30v-33h-30v33zM306 388v30h-153v-30h61v-34h-61v-30h92v64h61zM306 271v92h-30v-60h-123v-32h153zM306 147v104h-92v-51h31v21h31v-43h-92v73
h-31v-104h153zM306 -12v104h-153v-104h153zM184 62h92v-43h-92v43zM306 -63v30h-153v-30h65l-65 -43v-31h153v31h-94l65 43h29z" />
    <glyph glyph-name="space" unicode=" " horiz-adv-x="223" 
 />
    <glyph glyph-name="uniF8FF" unicode="&#xf8ff;" horiz-adv-x="623" 
d="M456.5 28.5q66.5 39.5 105 106.5t38.5 146q0 80 -40 146t-106 104.5t-142 38.5q-81 0 -147.5 -40t-104 -107t-37.5 -144q0 -76 38.5 -143t104.5 -107t145 -40t145.5 39.5zM136 475q36 31 81.5 48.5t94.5 17.5q48 0 92.5 -18t78.5 -48h-347zM505 454q66 -80 66 -175
q0 -46 -15.5 -88.5t-43.5 -77.5h-346zM116 104q-31 36 -48 81t-17 94q2 97 58 167h346zM137 84h349q-37 -30 -81.5 -47.5t-92.5 -17.5q-95 0 -175 65z" />
    <glyph glyph-name="A" unicode="A" horiz-adv-x="730" 
d="M725 0.5q0 -3.5 -5 -3.5q-30 3 -43 3h-160q-21 0 -72 -3q-8 0 -8 4t8 4q75 4 75 55q0 19 -10 43l-52 125q-7 5 -13 5q-5 0 -13 -3q-64 -30 -139 -47.5t-151 -21.5q-20 0 -29 -17l-17 -41q-10 -23 -10 -41q0 -53 79 -57q8 0 8 -4t-8 -4q-51 3 -75 3h-37q-13 0 -43 -3
q-5 0 -5 3.5t4 4.5q24 1 40 21.5t39 76.5l200 484q5 13 5 24t-6 29l-17 41q-5 13 -17 14q-3 1 -1.5 3t5.5 2h123q7 0 11 -2.5t7 -8.5l243 -586q23 -55 39 -76t40 -22q5 -1 5 -4.5zM441.5 250.5q3.5 8.5 0.5 14.5h1l-140 338l-172 -417v1q-1 -2 -1 -6q0 -6 3.5 -9.5t9.5 -2.5
q75 4 150.5 21.5t135.5 47.5q9 4 12.5 12.5z" />
    <glyph glyph-name="B" unicode="B" horiz-adv-x="682" 
d="M39 -2q-6 0 -6.5 3.5t6.5 3.5q35 2 53.5 25t18.5 78v484q0 55 -19 78t-53 25q-7 0 -6.5 3.5t6.5 3.5q26 -2 58 -2q44 0 77 1t53 2l120 2q81 0 136 -21t81.5 -56t26.5 -79q0 -69 -43 -110.5t-121 -50.5q103 -7 162.5 -53t59.5 -130q0 -98 -77.5 -154t-222.5 -56
q-42 0 -134 2q-18 1 -54 2t-64 1q-32 0 -58 -2zM321 391q75 5 105.5 39t30.5 107q0 75 -40 115t-101 42l-55 2q-17 1 -21.5 -6t-4.5 -28v-610q0 -29 7 -39t31 -10h58q81 0 127.5 47.5t46.5 136.5q0 191 -182 194l-49 1q-5 0 -5 3t5 4z" />
    <glyph glyph-name="C" unicode="C" horiz-adv-x="695" 
d="M572 325q-1 -4 -5 -3t-3 5q16 48 16 98q0 78 -35 142q-28 56 -76 87.5t-104 31.5q-101 0 -157.5 -50.5t-56.5 -161.5q0 -117 47 -212.5t121.5 -149.5t152.5 -54q49 0 105.5 17.5t99.5 62.5q4 4 6 4q5 0 -1 -8q-63 -76 -137 -113t-165 -37q-92 0 -170.5 44t-125 125
t-46.5 185q0 106 52 192t139.5 135.5t190.5 49.5q65 0 122.5 -19t91.5 -47.5t34 -57.5q0 -4 -2 -12z" />
    <glyph glyph-name="D" unicode="D" horiz-adv-x="748" 
d="M215 -4q-57 3 -118 3q-32 0 -58 -2q-6 0 -6.5 3.5t6.5 3.5q35 2 53.5 25t18.5 78v485q0 55 -18.5 78t-53.5 25q-7 0 -6.5 3.5t6.5 3.5q26 -2 58 -2q28 0 52 1t41 2l101 2q215 0 316.5 -96.5t101.5 -255.5q0 -102 -45 -183.5t-132.5 -128.5t-208.5 -47q-34 0 -108 2z
M509 93.5q69 91.5 70 240.5q0 99 -33.5 181.5t-104 132t-176.5 49.5q-17 0 -23.5 -10t-6.5 -30v-611q0 -26 12 -35t50 -9q143 0 212 91.5z" />
    <glyph glyph-name="E" unicode="E" horiz-adv-x="641" 
d="M39 -3q-6 0 -6 3.5t6 4.5q35 2 53.5 25t18.5 78v484q0 55 -18.5 78t-53.5 25q-6 1 -6 4.5t6 3.5q39 -3 58 -3h286q58 0 94.5 4t41.5 5q18 3 29 3q9 0 13.5 -5t5.5 -19q4 -101 24 -252q1 -4 -1.5 -5t-4.5 3q-26 95 -43.5 135.5t-40.5 66.5q-30 34 -85 45.5t-155 11.5
q-13 0 -20 -10t-7 -27v-254q2 -27 21 -27q66 0 84 3q28 3 46 25.5t36 83.5q2 6 5 6t2 -6q-7 -39 -7 -97q0 -78 12 -147q1 -5 -2 -5.5t-5 5.5q-20 63 -40 90.5t-47 31.5q-18 2 -84 2q-19 0 -21 -28v-280q0 -52 33 -52q105 1 168.5 15.5t95.5 46.5q27 25 46.5 69.5t35.5 123.5
q1 7 4 7q2 0 3 -2t0 -6q-20 -130 -22 -249q-1 -14 -6 -19t-15 -5q-9 0 -26 3q-37 4 -68 6.5t-86 2.5h-300q-19 0 -58 -3z" />
    <glyph glyph-name="F" unicode="F" horiz-adv-x="610" 
d="M63 -1q-9 -1 -24 -1q-6 0 -6.5 3t6.5 4q33 2 50 26.5t17 76.5v484q0 52 -17 76.5t-50 26.5q-7 1 -6.5 4t6.5 3q15 0 24 -1l28 -1h288q50 0 87 3t60 6q16 3 26 3q9 0 13.5 -5t5.5 -19q2 -112 19 -231v-2q0 -5 -3.5 -5t-4.5 6q-23 79 -55 135t-64 77q-18 13 -64 18.5
t-136 6.5q-34 0 -34 -56v-261q0 -11 5 -19.5t16 -8.5q54 0 94 4q20 2 33 10.5t24.5 30.5t23.5 64q2 6 5.5 6t2.5 -6q-6 -40 -6 -92q0 -80 11 -143v-1q0 -4 -3 -4t-5 5q-19 63 -38 87.5t-48 27.5q-40 4 -94 4q-11 0 -16 -8.5t-5 -19.5v-210q0 -51 23 -73.5t68 -24.5q8 0 8 -4
q0 -1 -2.5 -2t-5.5 -1q-20 0 -32 1l-38 1h-159z" />
    <glyph glyph-name="G" unicode="G" horiz-adv-x="712" 
d="M209.5 27.5q-78.5 43.5 -125 124t-46.5 184.5q0 106 52 192.5t139 136t187 49.5q70 0 127.5 -18t90.5 -45.5t33 -55.5q0 -8 -1 -11l-87 -241q-1 -5 -6 -5t-1 8q21 45 21 95q0 68 -38 129q-30 55 -81.5 85t-107.5 30q-218 0 -218 -212q0 -121 49 -226.5t122 -168
t138 -62.5q63 0 103.5 17.5t49.5 63.5q1 18 -6.5 58.5t-19.5 94.5q-15 30 -53.5 48t-115.5 27q-5 1 -5 5t5 3q46 -5 119 -5q81 0 138 6l10 1q14 0 14 -11q0 -5 -3.5 -16.5t-4.5 -27.5q-3 -60 -3 -142q0 -9 -2.5 -14t-8.5 -12q-109 -128 -294 -128q-92 0 -170.5 43.5z" />
    <glyph glyph-name="H" unicode="H" horiz-adv-x="808" 
d="M775 0.5q0 -3.5 -6 -3.5q-39 3 -58 3h-152q-19 0 -58 -3q-5 0 -5.5 3.5t5.5 4.5q35 2 53.5 25t18.5 78v266q0 15 -8 15q-5 0 -8 -2q-75 -33 -153.5 -52t-152.5 -24q-10 -1 -13 -7t-3 -17v-179q0 -55 18.5 -78t53.5 -25q6 -1 6 -4.5t-6 -3.5q-39 3 -58 3h-152
q-19 0 -58 -3q-6 0 -6 3.5t6 4.5q35 2 53.5 25t18.5 78v484q0 55 -18.5 78t-53.5 25q-6 1 -6 4.5t6 3.5q39 -3 58 -3h152q19 0 58 3q6 0 6 -3.5t-6 -4.5q-35 -2 -53.5 -25t-18.5 -78v-262q3 -12 15 -11q74 4 153 23.5t152 52.5q11 5 14.5 10.5t3.5 15.5v171q0 55 -18.5 78
t-53.5 25q-6 1 -5.5 4.5t5.5 3.5q39 -3 58 -3h152q19 0 58 3q6 0 6 -3.5t-6 -4.5q-35 -2 -53.5 -25t-18.5 -78v-484q0 -55 18.5 -78t53.5 -25q6 -1 6 -4.5z" />
    <glyph glyph-name="I" unicode="I" horiz-adv-x="346" 
d="M92.5 670q-18.5 23 -53.5 25q-6 1 -6 4.5t6 3.5q39 -3 58 -3h152q19 0 58 3q6 0 6 -3.5t-6 -4.5q-35 -2 -53.5 -25t-18.5 -78v-484q0 -55 18.5 -78t53.5 -25q6 -1 6 -4.5t-6 -3.5q-39 3 -58 3h-152q-19 0 -58 -3q-6 0 -6 3.5t6 4.5q35 2 53.5 25t18.5 78v484
q0 55 -18.5 78z" />
    <glyph glyph-name="J" unicode="J" horiz-adv-x="571" 
d="M118.5 6.5q-47.5 22.5 -71.5 59.5t-24 79q0 61 47.5 92t109.5 36q5 1 5.5 -2.5t-4.5 -4.5q-29 -10 -43 -29t-14 -56q0 -39 15.5 -81t47 -70.5t76.5 -28.5q60 0 83.5 35t23.5 113q0 21 -4.5 51.5t-9.5 61.5q-8 49 -12.5 82t-4.5 64v184q0 55 -18.5 78t-53.5 25
q-7 1 -6.5 4.5t6.5 3.5q39 -3 58 -3h152q19 0 58 3q5 0 5.5 -3.5t-5.5 -4.5q-35 -2 -53.5 -25t-18.5 -78v-344q0 -130 -62 -197t-168 -67q-67 0 -114.5 22.5z" />
    <glyph glyph-name="K" unicode="K" horiz-adv-x="691" 
d="M740 -69q-1 -3 -7 -1q-130 47 -238 164t-176 275l-84 -98v-163q0 -55 18.5 -78t53.5 -25q6 -1 6 -4.5t-6 -3.5q-39 3 -58 3h-152q-19 0 -58 -3q-6 0 -6 3.5t6 4.5q35 2 53.5 25t18.5 78v484q0 55 -18.5 78t-53.5 25q-6 1 -6 4.5t6 3.5q39 -3 58 -3h152q19 0 58 3
q6 0 6 -3.5t-6 -4.5q-35 -2 -53.5 -25t-18.5 -78v-311l80 95l-3 8q3 0 11 2l187 222q24 30 24 50q0 17 -14.5 26.5t-36.5 10.5q-6 1 -5.5 4.5t5.5 3.5q39 -3 56 -3h45q22 0 73 3q7 0 7 -4t-7 -4q-38 -1 -66 -20.5t-68 -66.5l-188 -221q49 10 99 28q2 1 5 1q6 0 8 -5
q23 -94 71 -194t106.5 -176.5t111.5 -104.5q5 -2 4 -5z" />
    <glyph glyph-name="L" unicode="L" horiz-adv-x="614" 
d="M39 -3q-6 0 -6 3.5t6 4.5q35 2 53.5 25t18.5 78v484q0 55 -18.5 78t-53.5 25q-6 1 -6 4.5t6 3.5q39 -3 58 -3h154q21 0 63 3q7 0 7.5 -3.5t-6.5 -4.5q-39 -2 -60 -25t-21 -78v-542q0 -25 8 -34t26 -9q86 0 148 22.5t97 62.5q27 33 44 82.5t28 122.5q1 6 5 5t3 -6
q-9 -68 -14.5 -143t-5.5 -128q0 -22 -2 -29.5t-11 -7.5l-22 2q-113 10 -203 10h-238q-19 0 -58 -3z" />
    <glyph glyph-name="M" unicode="M" horiz-adv-x="895" 
d="M883.5 0.5q-0.5 -3.5 -5.5 -3.5q-39 3 -58 3h-158q-23 0 -74 -3q-8 0 -8 4t8 4q41 2 64 20.5t23 62.5q0 12 -1 19l-50 494q-1 5 -5 5q-3 0 -6 -6l-216 -561q-2 -5 -4.5 -8t-6.5 -3q-7 0 -11 10l-214 554q-3 7 -7 7q-2 0 -4 -6l-46 -485q-1 -7 -1 -19q0 -44 23.5 -63
t64.5 -21q8 0 8 -4t-8 -4q-51 3 -75 3h-42q-16 0 -58 -3q-5 0 -5.5 3.5t5.5 4.5q34 2 53.5 24.5t25.5 77.5l51 517q-18 38 -38 53.5t-48 17.5q-6 1 -6 4.5t6 3.5q39 -3 58 -3h113q14 0 18 -11l187 -484q2 -5 4 -5q4 0 5 5l194 487q3 8 10 8h108q18 0 60 3q6 0 6.5 -3.5
t-6.5 -4.5q-70 -3 -70 -80q0 -14 1 -22l51 -486q6 -55 25.5 -77.5t53.5 -24.5q6 -1 5.5 -4.5z" />
    <glyph glyph-name="N" unicode="N" horiz-adv-x="758" 
d="M740.5 699.5q0.5 -3.5 -5.5 -4.5q-35 -2 -53.5 -25t-18.5 -78v-595q0 -7 -6 -7q-5 0 -10 7l-504 631q-4 4 -7 4q-4 0 -4 -6v-519q0 -55 19 -78t54 -25q6 0 5.5 -3.5t-5.5 -3.5l-58 3h-39l-57 -3q-6 0 -6.5 3.5t5.5 3.5q35 2 54 25t19 78v546q-21 22 -37.5 32t-38.5 11
q-6 0 -5.5 3.5t5.5 3.5l58 -3h114q23 0 32 -13l390 -502q4 -6 8 -6q5 0 5 7l-1 406q0 55 -19 78t-54 25q-6 1 -5.5 4.5t6.5 3.5q39 -3 57 -3h39q16 0 58 3q5 0 5.5 -3.5zM162 609l-35 39z" />
    <glyph glyph-name="O" unicode="O" horiz-adv-x="831" 
d="M208 29q-80 45 -125 125.5t-45 182.5t51 188.5t141.5 138t202.5 51.5q104 0 185.5 -45.5t127.5 -125.5t46 -180q0 -103 -52 -190t-143.5 -138.5t-206.5 -51.5q-102 0 -182 45zM625.5 73q54.5 59 54.5 165q0 103 -46 208t-122 172.5t-160 67.5q-94 0 -148 -57.5
t-54 -160.5q0 -104 45.5 -210t120 -175t158.5 -69q97 0 151.5 59z" />
    <glyph glyph-name="P" unicode="P" horiz-adv-x="650" 
d="M274 296q-4 1 -4 4.5t5 3.5l52 -1q83 -2 126 48t43 131q-1 55 -21 103t-57.5 78.5t-86.5 31.5l-63 2q-20 1 -26.5 -8.5t-6.5 -33.5v-547q0 -55 24.5 -78t70.5 -25q7 0 7 -4t-8 -4q-51 3 -75 3h-157q-19 0 -58 -3q-6 0 -6 3.5t6 4.5q35 2 53.5 25t18.5 78v484
q0 55 -18.5 78t-53.5 25q-7 0 -6.5 3.5t6.5 3.5q26 -2 58 -2q28 0 64 1t54 2q92 2 134 2q137 0 209 -54.5t72 -155.5q0 -92 -67 -147t-194 -55q-26 0 -39 1z" />
    <glyph glyph-name="Q" unicode="Q" horiz-adv-x="831" 
d="M997 -73.5q3 -1.5 -1 -6.5q-31 -38 -82.5 -66t-108.5 -28q-63 0 -145 40.5t-193 124.5q-35 -7 -77 -7q-102 0 -182 45t-125 125.5t-45 182.5t51 188.5t141.5 138t202.5 51.5q104 0 185.5 -45.5t127.5 -125.5t46 -180q0 -112 -60.5 -204t-164.5 -139l6 -3
q115 -72 179.5 -102.5t115.5 -30.5q40 0 69 9t52 30q5 4 8 2.5zM191 269q41 -101 109.5 -171.5t147.5 -81.5q0 10 14 15.5t36 5.5q30 0 56 -10q60 21 93 75.5t33 135.5q0 103 -46 208t-122 172.5t-160 67.5q-94 0 -148 -57.5t-54 -160.5q0 -98 41 -199z" />
    <glyph glyph-name="R" unicode="R" horiz-adv-x="685" 
d="M738.5 -71q-1.5 -3 -6.5 -1q-133 48 -224.5 143.5t-167.5 269.5l-60 2q-5 1 -5 3.5t5 3.5l37 1q85 7 125.5 55.5t40.5 129.5q0 82 -41.5 119.5t-128.5 39.5l-44 2q-19 0 -26.5 -8t-7.5 -29v-552q0 -55 18.5 -78t53.5 -25q6 -1 6 -4.5t-6 -3.5q-39 3 -58 3h-152
q-19 0 -58 -3q-6 0 -6 3.5t6 4.5q35 2 53.5 25t18.5 78v484q0 55 -18.5 78t-53.5 25q-7 0 -6.5 3.5t6.5 3.5q26 -2 58 -2q28 0 62.5 1.5t51.5 1.5q88 2 127 2q147 0 215.5 -43t68.5 -134q0 -75 -60.5 -123.5t-170.5 -59.5q44 -2 80 4h2q6 0 10 -9q37 -137 104 -249t148 -156
q5 -3 3.5 -6z" />
    <glyph glyph-name="S" unicode="S" horiz-adv-x="635" 
d="M114 291q2 8 5 8q1 0 2 -2.5t0 -7.5q-2 -30 -2 -43q0 -122 52 -184t152 -62q60 0 104 27t44 97q0 65 -46.5 109.5t-132.5 91.5q-66 38 -107 67.5t-66 64.5t-25 78q0 45 33.5 86.5t95.5 67.5t143 26q48 0 96.5 -13.5t80 -38.5t31.5 -57q0 -4 -2 -14l-41 -154q-1 -6 -5 -6
t-3 9q3 24 3 47q0 97 -49.5 154t-139.5 57q-72 0 -100.5 -24t-28.5 -75q0 -35 21 -63t55.5 -51.5t96.5 -58.5q66 -35 108.5 -64.5t71.5 -72.5t29 -99q0 -59 -35.5 -106t-100.5 -74t-150 -27q-64 0 -119.5 18.5t-87.5 48.5t-32 62q0 5 2 13z" />
    <glyph glyph-name="T" unicode="T" horiz-adv-x="682" 
d="M662 456q0 -5 -3.5 -5t-4.5 5q-29 109 -56.5 159.5t-62.5 65.5q-16 12 -112 12q-8 0 -14 -10t-6 -26v-549q0 -55 26.5 -78t75.5 -25q8 0 8 -4t-8 -4q-57 3 -81 3h-166q-27 0 -81 -3q-9 0 -9 4t9 4q49 2 75.5 25t26.5 78v549q0 16 -6 26t-14 10q-96 0 -113 -12
q-35 -14 -63.5 -67t-55.5 -158q-1 -5 -4.5 -4.5t-2.5 5.5q16 124 15 231v3q0 21 19 21q3 0 23 -2q65 -10 202 -10h124q137 0 202 10q20 2 23 2q20 0 19 -24q-3 -99 15 -231v-1z" />
    <glyph glyph-name="U" unicode="U" horiz-adv-x="743" 
d="M237 20q-66 36 -101.5 102.5t-35.5 156.5v313q0 55 -16.5 78t-48.5 25q-5 1 -4.5 4.5t5.5 3.5q36 -3 51 -3h154q22 0 70 3q7 0 7 -4t-7 -4q-42 -2 -64.5 -25t-22.5 -78v-319q0 -110 57.5 -174.5t157.5 -64.5q63 0 111 31t74.5 87t26.5 129l-1 311q0 55 -22.5 78t-64.5 25
q-7 0 -7 4t7 4q48 -3 69 -3h37q13 0 46 3q5 0 5 -3.5t-5 -4.5q-28 -2 -42.5 -25t-14.5 -78v-308q0 -92 -32 -160t-92 -104t-142 -36q-89 0 -155 36z" />
    <glyph glyph-name="V" unicode="V" horiz-adv-x="728" 
d="M724 699.5q0 -3.5 -5 -4.5q-25 -1 -42.5 -22.5t-38.5 -75.5l-207 -533q-1 -2 -1 -7t2 -9l5 -10q2 -6 2 -7q0 -7 -8 -9l-91 -35q-6 -2 -7 -2q-8 0 -12 10l-234 602q-22 55 -38 76t-40 22q-4 1 -4 4.5t4 3.5q30 -3 44 -3h161q21 0 72 3q8 0 8 -4t-8 -4q-76 -4 -76 -57
q0 -17 9 -41l201 -520q2 -4 4 -5t3 2l1 2v1v0l201 520q10 24 10 43q0 51 -70 55q-6 0 -6 4t7 4q45 -3 66 -3h36q14 0 47 3q5 0 5 -3.5z" />
    <glyph glyph-name="W" unicode="W" horiz-adv-x="1056" 
d="M1051 699.5q0 -3.5 -4 -4.5q-26 -1 -43 -22.5t-36 -76.5l-176 -526l-1 -2q-1 -3 -1 -9q0 -7 2 -11l5 -10q2 -6 2 -7q0 -7 -8 -9l-95 -34l-8 -2q-4 0 -7 3t-4 6l-148 447l-126 -371q-2 -4 -2 -12q0 -7 2 -11l4 -10q2 -6 2 -7q0 -7 -7 -9l-96 -34q-6 -2 -8 -2q-8 0 -10 9
l-200 601q-18 54 -35 75.5t-43 23.5q-5 1 -5 4.5t5 3.5q33 -3 47 -3h156q19 0 58 3q6 0 6.5 -3.5t-6.5 -4.5q-60 -4 -60 -55q0 -21 8 -44l170 -513q2 -4 5.5 -4t4.5 4l118 347q4 16 4 21q0 10 -6 28l2 -1l-39 118q-18 54 -40.5 75.5t-57.5 23.5q-6 1 -5.5 4.5t6.5 3.5
q42 -3 61 -3h162q21 0 63 3q6 0 6.5 -3.5t-6.5 -4.5q-67 -4 -67 -58q0 -16 8 -42l169 -511q2 -6 6 -6q3 0 6 5v1l171 512q8 26 8 41q0 29 -19.5 42.5t-51.5 15.5q-7 1 -6.5 4.5t6.5 3.5q48 -3 67 -3h36q16 0 46 3q5 0 5 -3.5z" />
    <glyph glyph-name="X" unicode="X" horiz-adv-x="722" 
d="M706.5 0.5q-0.5 -3.5 -5.5 -3.5q-39 3 -58 3h-174q-18 0 -60 -3q-6 0 -6.5 3.5t6.5 4.5q25 1 42 12t17 32q0 19 -18 49l-150 239l-155 -240q-18 -26 -18 -48q0 -21 17.5 -32t44.5 -12q6 0 6 -4t-7 -4q-42 3 -63 3h-40q-19 0 -58 -3q-6 0 -6.5 3.5t6.5 4.5q30 1 52 21
t56 71l161 246l-163 259q-32 52 -54 72t-53 21q-6 1 -5.5 4.5t5.5 3.5q42 -3 58 -3h175q18 0 63 3q6 0 6.5 -3.5t-6.5 -4.5q-27 -1 -44.5 -12t-17.5 -32t18 -49l140 -223l144 224q18 28 18 48q0 21 -17.5 32t-44.5 12q-6 0 -6 4t7 4q42 -3 63 -3h40q16 0 55 3q5 0 5.5 -3.5
t-5.5 -4.5q-29 -1 -49.5 -20.5t-55.5 -71.5l-150 -231l172 -274q32 -52 54 -72t53 -21q6 -1 5.5 -4.5z" />
    <glyph glyph-name="Y" unicode="Y" horiz-adv-x="663" 
d="M200 -3q-5 0 -5.5 3.5t5.5 4.5q35 2 54 25t18 78v149q0 21 -9 36l-164 307q-29 55 -47 75t-42 21q-5 0 -4.5 3.5t4.5 3.5l47 -3h162l69 3q7 0 7.5 -3.5t-6.5 -3.5q-31 -1 -51 -13t-20 -37q0 -18 14 -46l154 -293q3 -7 8 -7q3 0 8 8l154 292q14 25 14 46q0 24 -20 36
t-50 13q-7 0 -7 4t7 4q48 -3 69 -3h38q13 0 46 3q5 0 5 -3.5t-5 -4.5q-24 -1 -41.5 -20.5t-46.5 -74.5l-161 -306q-8 -15 -8 -37v-149q0 -55 19 -78t53 -25q7 -1 6.5 -4.5t-6.5 -3.5q-39 3 -58 3h-152q-16 0 -58 -3z" />
    <glyph glyph-name="Z" unicode="Z" horiz-adv-x="669" 
d="M561 -8q-43 8 -73 8h-346q-30 0 -60 -2q-11 -1 -26 -1q-10 0 -15 3.5t-5 9.5q0 9 8 22l437 647q3 5 3 8q0 7 -9 7l-243 -12q-44 -2 -73 -20t-50.5 -61.5t-40.5 -125.5q-1 -5 -4.5 -4.5t-2.5 5.5q8 55 11.5 102t5.5 110q0 23 19 23q7 0 13.5 -1t13.5 -2q45 -9 96 -9l222 1
l164 2q12 0 12 -9q0 -10 -17 -34l-429 -641q-3 -3 -3 -7q0 -5 8 -5l274 13q59 3 103 64t67 179q0 4 4 4q3 0 2 -5q-21 -125 -21 -249q0 -12 -4 -18t-15 -6q-6 0 -26 4z" />
    <glyph glyph-name="AE" unicode="&#xc6;" horiz-adv-x="1028" 
d="M1004 269q2 0 3 -2t0 -6q-20 -130 -22 -249q-1 -14 -6 -19t-15 -5q-9 0 -26 3q-37 4 -68 6.5t-86 2.5h-300q-19 0 -58 -3q-6 0 -6 3.5t6 4.5q35 2 53.5 25t18.5 78v145q-2 5 -8 5t-18 -6q-91 -44 -199 -44q-26 0 -53 3q-18 2 -31 -16l-68 -99q-18 -26 -18 -46
q0 -22 19.5 -33t49.5 -12q7 0 7 -4t-8 -4q-48 3 -69 3h-40q-18 0 -51 -3q-5 0 -5.5 3.5t4.5 4.5q27 1 46.5 19.5t55.5 71.5l357 523q13 18 13 37q0 6 -2 14q-18 23 -54 25q-6 1 -6 4.5t6 3.5q39 -3 58 -3h286q58 0 94.5 4t41.5 5q18 3 29 3q9 0 13.5 -5t5.5 -19
q4 -101 24 -252q1 -4 -1.5 -5t-4.5 3q-26 95 -43.5 135.5t-40.5 66.5q-30 34 -85 45.5t-155 11.5q-13 0 -20 -10t-7 -27v-254q2 -27 21 -27q66 0 84 3q28 3 46 25.5t36 83.5q2 6 5 6t2 -6q-7 -39 -7 -97q0 -78 12 -147q1 -5 -2 -5.5t-5 5.5q-20 63 -40 90.5t-47 31.5
q-18 2 -84 2q-19 0 -21 -28v-280q0 -52 33 -52q105 1 168.5 15.5t95.5 46.5q27 25 46.5 69.5t35.5 123.5q1 7 4 7zM498 297v123q0 144 -10 203q-1 4 -3 4t-4 -3l-267 -392q-2 -4 -2 -6q0 -6 12 -8q25 -3 52 -3q105 0 194 44q28 16 28 38z" />
    <glyph glyph-name="OE" unicode="&#x152;" horiz-adv-x="1065" 
d="M1041 269q2 0 3 -2t0 -6q-20 -130 -22 -249q-1 -14 -6 -19t-15 -5q-9 0 -26 3q-37 4 -68 6.5t-86 2.5h-280l-26 -2q-82 -8 -141 -8q-94 0 -171 44.5t-121 123.5t-44 179q0 106 50.5 192t140.5 136t204 50q22 0 49 -3t35 -4q60 -8 88 -8h202q58 0 94.5 4t41.5 5q18 3 29 3
q9 0 13.5 -5t5.5 -19q4 -101 24 -252q1 -4 -1.5 -5t-4.5 3q-26 95 -43.5 135.5t-40.5 66.5q-30 34 -85 45.5t-155 11.5q-13 0 -20 -10t-7 -27v-254q2 -27 21 -27q66 0 84 3q28 3 46 25.5t36 83.5q2 6 5 6t2 -6q-7 -39 -7 -97q0 -78 12 -147q1 -5 -2 -5.5t-5 5.5
q-20 63 -40 90.5t-47 31.5q-18 2 -84 2q-19 0 -21 -28v-280q0 -52 33 -52q105 1 168.5 15.5t95.5 46.5q27 25 46.5 69.5t35.5 123.5q1 7 4 7zM188 249q38 -104 100 -174t131 -70q46 0 65 5.5t29 22.5q12 19 16.5 69.5t4.5 197.5q0 133 -9.5 213t-35.5 122q-36 58 -108 58
q-231 0 -231 -249q0 -91 38 -195z" />
    <glyph glyph-name="Eth" unicode="&#xd0;" horiz-adv-x="748" 
d="M607.5 608.5q101.5 -96.5 101.5 -255.5q0 -102 -45 -183.5t-132.5 -128.5t-208.5 -47q-34 0 -108 2q-57 3 -118 3q-32 0 -58 -2q-6 0 -6.5 3.5t6.5 3.5q35 2 53.5 25t18.5 78v239h-67q-4 0 -4 4.5t4 4.5h67v237q0 55 -18.5 78t-53.5 25q-7 0 -6.5 3.5t6.5 3.5
q26 -2 58 -2q28 0 52 1t41 2l101 2q215 0 316.5 -96.5zM509 93.5q69 91.5 70 240.5q0 99 -33.5 181.5t-104 132t-176.5 49.5q-17 0 -23.5 -10t-6.5 -30v-302h193q5 0 5 -4.5t-5 -4.5h-193v-300q0 -26 12 -35t50 -9q143 0 212 91.5z" />
    <glyph glyph-name="Thorn" unicode="&#xde;" horiz-adv-x="650" 
d="M561 503.5q69 -54.5 69 -154.5t-74.5 -153.5t-208.5 -47.5l-67 3q-5 0 -5 3.5t5 3.5h50q72 2 119 49t47 124q-1 89 -42 153t-125 65l-62 2q-18 0 -25 -9.5t-7 -29.5v-404q0 -55 18.5 -78t53.5 -25q6 -1 6 -4.5t-6 -3.5q-39 3 -58 3h-152q-19 0 -58 -3q-6 0 -6 3.5t6 4.5
q35 2 53.5 25t18.5 78v484q0 55 -18.5 78t-53.5 25q-6 1 -6 4.5t6 3.5q39 -3 58 -3h152q19 0 58 3q6 0 6 -3.5t-6 -4.5q-35 -2 -53.5 -25t-18.5 -78v-9l1 1q0 -14 7 -20t22 -6h84q143 0 212 -54.5z" />
    <glyph glyph-name="uni1E9E" unicode="&#x1e9e;" horiz-adv-x="747" 
d="M437 407q137 0 207 -56t70 -155q0 -64 -31 -111.5t-82 -72t-110 -24.5q-45 0 -88 14t-70 37.5t-27 51.5q0 9 1 13q2 4 8 25l10 35q15 54 17 59t4.5 4.5t1.5 -5.5q-3 -22 -3 -42q0 -59 19.5 -98.5t49.5 -58.5t62 -19q54 0 82 37.5t28 123.5q0 100 -53.5 154.5t-150.5 61.5
q-16 0 -16 11q0 5 2 10t8 12l151 209q8 11 8 20q0 17 -29 31q-17 10 -49 18.5t-67 8.5q-83 0 -120.5 -51.5t-37.5 -162.5v-472q0 -15 -14 -15h-124q-16 0 -58 -3q-5 0 -5.5 3.5t5.5 4.5q35 2 53.5 25t18.5 78v346q0 79 34.5 138.5t97.5 91.5t146 32q54 0 116.5 -13.5
t112.5 -36.5q26 -13 26 -30q0 -11 -11 -27q-35 -55 -100 -114.5t-126 -88.5q11 1 33 1z" />
    <glyph glyph-name="a" unicode="a" horiz-adv-x="564" 
d="M572 176.5q4 0.5 4 -6.5q0 -58 -17 -100t-44.5 -63.5t-58.5 -21.5q-65 0 -88 106l-7 30q-19 -64 -64.5 -100t-100.5 -36t-92.5 22t-56 58t-18.5 77q0 52 51 83.5t130 31.5q73 0 123 -10l-22 97q-11 50 -37.5 73.5t-76.5 23.5q-62 0 -105.5 -35t-48.5 -109q-1 -7 -5.5 -7
t-3.5 7q5 58 38 97.5t80.5 58.5t96.5 19q85 0 126.5 -32.5t58.5 -106.5l49 -224q7 -27 15.5 -40.5t22.5 -13.5q18 0 33 31.5t14 83.5q0 6 4 6.5zM352 164l-15 66q-48 12 -94 12q-58 0 -82.5 -18t-24.5 -65q0 -49 28.5 -83t81.5 -34q94 0 104 98q2 7 2 24z" />
    <glyph glyph-name="b" unicode="b" horiz-adv-x="568" 
d="M448.5 443.5q44.5 -28.5 70.5 -81.5t26 -124q0 -67 -30.5 -125t-84.5 -93t-122 -35q-42 0 -71.5 12t-63.5 33q-21 13 -32.5 18.5t-23.5 5.5q-9 0 -17.5 -9t-20.5 -26l-18 -23q-4 -5 -7 -5q-6 0 -4 8q12 88 12 189l-2 362q0 38 -5.5 56.5t-14.5 22.5t-25 2h-1q-4 0 -5.5 3
t-0.5 3q114 30 173 83h2q7 0 6 -8q-7 -40 -9.5 -84t-2.5 -118v-127q2 -36 7 -36q28 54 68.5 89.5t97.5 35.5q54 0 98.5 -28.5zM417.5 35.5q27.5 34.5 27.5 105.5q0 69 -22.5 130.5t-61 99.5t-84.5 38q-44 0 -72 -41.5t-28 -114.5v-48q0 -93 34 -148.5t113 -55.5
q66 0 93.5 34.5z" />
    <glyph glyph-name="c" unicode="c" horiz-adv-x="479" 
d="M396 208q-2 -5 -5.5 -4.5t-1.5 6.5q5 20 5 39q0 46 -22 93.5t-58 78.5t-76 31q-118 0 -118 -135q0 -74 34 -137.5t88.5 -100.5t110.5 -37q72 0 110 46q4 4 6 1.5t0 -5.5q-79 -99 -209 -99q-64 0 -118 29t-86.5 82.5t-32.5 123.5q0 68 34.5 126t93.5 92t128 34
q48 0 90 -13t64.5 -33.5t17.5 -40.5z" />
    <glyph glyph-name="d" unicode="d" horiz-adv-x="589" 
d="M597.5 176q3.5 0 3.5 -5q0 -76 -32.5 -130t-84.5 -54q-39 0 -65.5 27.5t-27.5 82.5l-1 3q-2 3 -4.5 2.5t-4.5 -4.5q-58 -114 -163 -114q-52 0 -96.5 28.5t-71.5 81t-27 121.5q0 70 33 129t86.5 93.5t111.5 34.5q81 0 136 -54l-1 132q0 38 -5.5 56.5t-14.5 22.5t-24 2h-2
q-7 0 -6 6q113 29 174 83h2q6 0 5 -8q-7 -42 -9.5 -87t-2.5 -115v-387q0 -66 34 -66q33 0 43 30t11 84q0 5 3.5 5zM364 81.5q24 33.5 27 101.5l-1 60q-4 89 -40 150t-104 61q-124 0 -124 -140q0 -65 24.5 -127t64.5 -100.5t82 -38.5q47 0 71 33.5z" />
    <glyph glyph-name="e" unicode="e" horiz-adv-x="491" 
d="M465.5 88q2.5 -2 0.5 -5q-39 -48 -94 -73t-115 -25q-63 0 -117 29t-85.5 82.5t-31.5 123.5q0 69 34.5 127t93.5 91.5t129 33.5q78 0 130 -42.5t52 -115.5q0 -33 -12 -71q-105 -2 -322 -9q17 -55 52.5 -98.5t81.5 -68t90 -24.5q73 0 110 46q1 1 3.5 -1zM145.5 418.5
q-29.5 -34.5 -29.5 -103.5q0 -34 10 -74q57 1 134 5q20 1 41.5 2t43.5 1q9 15 9 37q0 33 -18.5 72.5t-47 67t-57.5 27.5q-56 0 -85.5 -34.5z" />
    <glyph glyph-name="f" unicode="f" horiz-adv-x="336" 
d="M31 449q-5 0 -5.5 3t4.5 4q40 5 57 23t17 68q0 54 22.5 92.5t58.5 58.5t75 20q49 0 85 -30q4 -5 4 -9q0 -5 -14.5 -19t-29.5 -28q-12 -9 -20 -17q-9 -9 -15 -1q-23 31 -47 47t-44 16q-17 0 -28 -12q-9 -10 -9 -33q0 -33 18.5 -80.5t50.5 -90.5q9 -5 23 -5h102q2 0 1 -3.5
t-6 -3.5h-89q-17 0 -23.5 -5.5t-6.5 -24.5v-315q0 -53 20 -75t63 -22q7 0 7 -4t-7 -4q-46 2 -80 1h-120q-32 0 -62 -2q-5 0 -5 4t5 4q33 0 48.5 22.5t15.5 75.5v316q0 16 -5 22.5t-18 6.5h-43z" />
    <glyph glyph-name="g" unicode="g" horiz-adv-x="496" 
d="M461 -8q31 -33 31 -78q0 -56 -41.5 -92t-99.5 -36q-86 0 -137 68q-47 -20 -93 -20q-52 0 -81 28.5t-29 72.5q0 47 29 82t75 59q-49 24 -77.5 68t-28.5 103q0 63 31.5 114t86 80t120.5 29q44 0 83 -14q1 73 38 107.5t85 34.5q18 0 28.5 -8.5t6.5 -22.5l-19 -67
q-2 -8 -7 -10.5t-11 1.5q-26 18 -58 18q-55 0 -52 -57q56 -23 88.5 -71.5t32.5 -111.5q0 -59 -32 -108.5t-86.5 -78.5t-120.5 -29q-52 0 -98 19q-33 -14 -50 -31t-17 -45q0 -22 15 -36t38 -14q29 0 55.5 9.5t64.5 27.5q47 21 78 31.5t69 10.5q52 0 83 -33zM124.5 420.5
q-28.5 -29.5 -28.5 -88.5t22.5 -119.5t61 -100t82.5 -39.5q55 0 84 29t29 87q0 55 -24 116.5t-63.5 103t-81.5 41.5q-53 0 -81.5 -29.5zM446 -139q0 23 -15.5 38t-41.5 15q-35 0 -63.5 -10t-68.5 -30q-24 -12 -36 -17q22 -25 56 -41t79 -16q90 0 90 61z" />
    <glyph glyph-name="h" unicode="h" horiz-adv-x="659" 
d="M667 176.5q4 0.5 4 -6.5q0 -58 -17.5 -100t-45 -63.5t-58.5 -21.5q-65 0 -89 106l-64 261q-10 40 -26 57.5t-54 17.5q-50 0 -82 -50t-32 -131v-158q0 -45 13.5 -63t46.5 -20q5 0 5 -3.5t-5 -3.5q-23 1 -117 1t-118 -1q-5 0 -5 4t6 4q23 0 35 5t18 22.5t6 55.5l-2 461
q0 38 -5.5 56.5t-14.5 22.5t-25 2h-1q-4 0 -5.5 3t-0.5 3q113 29 173 83h2q7 0 6 -8q-7 -40 -9.5 -84t-2.5 -118v-175q15 56 62.5 96.5t107.5 40.5q64 0 95.5 -28.5t45.5 -85.5l62 -250q6 -26 15.5 -39.5t24.5 -13.5q17 0 32 31.5t15 83.5q0 6 4 6.5z" />
    <glyph glyph-name="i" unicode="i" horiz-adv-x="293" 
d="M219.5 34q14.5 -28 45.5 -29q5 0 5 -3.5t-5 -3.5q-19 1 -117 1q-99 0 -118 -1q-6 0 -5 4t8 4q57 0 57 98v224q0 38 -9.5 55.5t-35.5 17.5q-5 0 -17 -2q-4 -1 -4.5 2.5t2.5 4.5q47 11 96.5 29t80.5 39q3 2 7 2q5 0 5 -6q-6 -56 -8 -87t-2 -72v-207q0 -42 14.5 -70z
M80.5 585q-18.5 14 -18.5 35q0 26 25 44.5t63 18.5q31 0 49 -14t18 -36q0 -26 -25 -44t-63 -18q-30 0 -48.5 14z" />
    <glyph glyph-name="dotlessi" unicode="&#x131;" horiz-adv-x="293" 
d="M219.5 34q14.5 -28 45.5 -29q5 0 5 -3.5t-5 -3.5q-19 1 -117 1q-99 0 -118 -1q-6 0 -5 4t8 4q57 0 57 98v224q0 38 -9.5 55.5t-35.5 17.5q-5 0 -17 -2q-4 -1 -4.5 2.5t2.5 4.5q47 11 96.5 29t80.5 39q3 2 7 2q5 0 5 -6q-6 -56 -8 -87t-2 -72v-207q0 -42 14.5 -70z" />
    <glyph glyph-name="j" unicode="j" horiz-adv-x="271" 
d="M91 328q0 38 -9.5 55.5t-35.5 17.5q-5 0 -17 -2q-4 -1 -4.5 2.5t2.5 4.5q47 11 96.5 29t80.5 39q3 2 7 2q5 0 5 -6q-6 -56 -8 -87t-2 -72v-170q0 -92 -44.5 -153.5t-103.5 -91.5t-104 -31h-1q-7 0 -7 4q0 5 8 5q38 2 67 16.5t49.5 62t20.5 139.5v236zM66.5 585
q-18.5 14 -18.5 35q0 26 25 44.5t63 18.5q31 0 49 -14t18 -36q0 -26 -25 -44t-63 -18q-30 0 -48.5 14z" />
    <glyph glyph-name="uni0237" unicode="&#x237;" horiz-adv-x="271" 
d="M91 328q0 38 -9.5 55.5t-35.5 17.5q-5 0 -17 -2q-4 -1 -4.5 2.5t2.5 4.5q47 11 96.5 29t80.5 39q3 2 7 2q5 0 5 -6q-6 -56 -8 -87t-2 -72v-170q0 -92 -44.5 -153.5t-103.5 -91.5t-104 -31h-1q-7 0 -7 4q0 5 8 5q38 2 67 16.5t49.5 62t20.5 139.5v236z" />
    <glyph glyph-name="k" unicode="k" horiz-adv-x="578" 
d="M607 -32q0 -2 -2 -3t-6 0q-100 33 -178 103.5t-144 174.5l-74 -65v-90q0 -45 13.5 -63t46.5 -20q5 0 5 -3.5t-5 -3.5q-23 1 -117 1t-118 -1q-5 0 -5 4t6 4q23 0 35 5t18 22.5t6 55.5l-2 461q0 38 -5.5 56.5t-14.5 22.5t-25 2h-1q-4 0 -5.5 3t-0.5 3q113 29 173 83h2
q7 0 6 -8q-7 -40 -9.5 -84t-2.5 -118v-325l70 65l-7 11q8 -2 40 18l117 108q18 15 18 28q0 14 -20 23t-39 11q-4 1 -3.5 5t4.5 3q52 -2 104 -2q43 0 79 2q6 0 5.5 -4t-7.5 -4q-42 0 -123 -63l-81 -71q9 4 10 1q60 -143 112.5 -222.5t121.5 -121.5q3 -2 3 -4z" />
    <glyph glyph-name="kgreenlandic" unicode="&#x138;" horiz-adv-x="579" 
d="M608 -32q0 -2 -2 -3t-6 0q-100 33 -178 103.5t-144 174.5l-73 -64v-91q0 -45 13.5 -63t46.5 -20q5 0 5 -3.5t-5 -3.5q-23 1 -117 1t-118 -1q-5 0 -5 4t6 4q23 0 35 5t18 23t6 55v239q0 38 -9.5 55.5t-35.5 17.5q-5 0 -17 -2q-4 -1 -4.5 2.5t2.5 4.5q47 11 96.5 29
t80.5 39q3 2 7 2q5 0 5 -6q-6 -56 -8 -87t-2 -72v-125l69 64l-7 11q8 -2 42 20l115 106q18 15 18 28q0 14 -20 23t-39 11q-4 1 -3.5 5t4.5 3q52 -2 104 -2q43 0 79 2q6 0 5.5 -4t-7.5 -4q-42 0 -123 -63l-80 -70q7 2 8 0q61 -144 113.5 -223t121.5 -121q3 -2 3 -4z" />
    <glyph glyph-name="l" unicode="l" horiz-adv-x="291" 
d="M78 614q-8 17 -25 17q-8 0 -12 -1h-1q-5 0 -6 3t0 4q112 29 173 82h2q7 0 6 -7q-7 -40 -9.5 -84t-2.5 -118v-406q0 -42 14.5 -70t45.5 -29q5 0 5 -3.5t-5 -3.5q-19 1 -117 1q-99 0 -118 -1q-6 0 -5 4t8 4q57 0 57 98l-2 445q0 48 -8 65z" />
    <glyph glyph-name="m" unicode="m" horiz-adv-x="927" 
d="M935 176.5q4 0.5 4 -6.5q0 -58 -17.5 -100t-45 -63.5t-58.5 -21.5q-32 0 -54.5 27t-34.5 79l-65 263q-11 42 -29 58.5t-49 16.5q-44 0 -66 -35t-25 -88l33 -212q4 -28 15 -42t24 -14q7 0 11 3q3 2 4 0t-2 -5q-13 -24 -34 -37.5t-45 -12.5q-33 2 -57.5 24.5t-29.5 60.5
l-42 272q-14 86 -76 86q-36 0 -60 -39t-31 -92v-210q0 -45 13.5 -63t46.5 -20q5 0 5 -3.5t-5 -3.5q-23 1 -117 1t-118 -1q-5 0 -5 4t6 4q23 0 35 5t18 23t6 55v239q0 38 -9.5 55.5t-35.5 17.5q-5 0 -17 -2q-4 -1 -4.5 2.5t2.5 4.5q47 11 96.5 29t80.5 39q3 2 7 2q5 0 5 -6
q-8 -67 -9 -115q16 48 55.5 82.5t92.5 34.5q49 0 86 -31t49 -98q10 54 51 91.5t102 37.5q57 0 91.5 -26t49.5 -86l61 -252q13 -53 40 -53q18 0 32.5 31.5t14.5 83.5q0 6 4 6.5z" />
    <glyph glyph-name="n" unicode="n" horiz-adv-x="659" 
d="M667 176.5q4 0.5 4 -6.5q0 -58 -17 -100t-45 -63.5t-59 -21.5q-63 0 -89 106l-64 261q-9 40 -25 57.5t-54 17.5q-44 0 -75 -39t-38 -105v-195q0 -45 13.5 -63t46.5 -20q5 0 5 -3.5t-5 -3.5q-23 1 -117 1t-118 -1q-5 0 -5 4t6 4q23 0 35 5t18 23t6 55v239q0 38 -9.5 55.5
t-35.5 17.5q-5 0 -17 -2q-4 -1 -4.5 2.5t2.5 4.5q47 11 96.5 29t80.5 39q3 2 7 2q5 0 5 -6q-9 -88 -10 -127q17 54 63.5 91.5t104.5 37.5q64 0 96 -28t46 -86l61 -250q13 -53 40 -53q18 0 33 31.5t14 83.5q0 6 4 6.5z" />
    <glyph glyph-name="o" unicode="o" horiz-adv-x="565" 
d="M141.5 13.5q-55.5 29.5 -87 83.5t-31.5 123q0 70 36 127.5t98.5 90.5t137.5 33q70 0 126.5 -29.5t88.5 -82.5t32 -121q0 -70 -36.5 -128.5t-100 -92t-139.5 -33.5q-69 0 -124.5 29.5zM410.5 40.5q32.5 32.5 32.5 95.5q0 61 -31.5 135t-79 125.5t-92.5 51.5q-56 0 -88 -32
t-32 -96q0 -60 31 -134.5t78.5 -126t91.5 -51.5q57 0 89.5 32.5z" />
    <glyph glyph-name="p" unicode="p" horiz-adv-x="590" 
d="M470.5 443.5q43.5 -28.5 70 -82t26.5 -123.5q0 -66 -30.5 -124.5t-83 -93.5t-114.5 -35q-38 0 -63 10t-47 25q-15 10 -20 10q-9 0 -9 -17v-110q0 -53 14.5 -74.5t44.5 -23.5q5 0 5 -3.5t-5 -3.5q-42 2 -104 2q-79 0 -129 -2q-5 0 -5 4t5 4q30 -1 44.5 21t14.5 77v424
q0 38 -9.5 55.5t-35.5 17.5q-5 0 -17 -2q-4 -1 -4.5 2.5t2.5 4.5q47 11 96.5 29t80.5 39q5 3 8.5 2t2.5 -6q-6 -52 -7 -88q0 -12 1.5 -22.5t4.5 -9.5q27 54 67 88t100 34q52 0 95.5 -28.5zM439.5 36q28.5 36 28.5 105q0 67 -23 129t-61.5 100t-83.5 38t-72.5 -38t-27.5 -102
v-67q0 -87 39.5 -144t107.5 -57q64 0 92.5 36z" />
    <glyph glyph-name="q" unicode="q" horiz-adv-x="573" 
d="M55 344q32 59 86 93.5t115 34.5q37 0 65 -10.5t63 -30.5q21 -12 33.5 -17t23.5 -5q17 0 33 15.5t35 40.5q3 4 6 4q5 0 4 -7q-13 -96 -13 -194v-365q0 -53 15 -74.5t45 -23.5q5 0 5 -3.5t-5 -3.5q-42 2 -104 2q-80 0 -130 -2q-6 0 -5 4t8 4q29 0 42.5 22t13.5 76v151
q0 32 -2 42q-1 7 -2.5 7t-4.5 -6q-28 -54 -71 -84t-98 -30q-52 0 -95.5 28.5t-69 80.5t-25.5 122t32 129zM145 186.5q23 -61.5 61.5 -100t81.5 -38.5q53 0 78 36t25 108v14q0 117 -36.5 182.5t-112.5 65.5q-66 0 -93 -35.5t-27 -104.5q0 -66 23 -127.5z" />
    <glyph glyph-name="r" unicode="r" horiz-adv-x="449" 
d="M409.5 453q31.5 -19 31.5 -47q0 -4 -2 -12l-49 -179q-1 -6 -4.5 -4.5t-2.5 6.5q5 30 5 50q0 60 -29 89.5t-71 29.5q-49 0 -66 -50.5t-17 -131.5v-116q0 -45 13.5 -63t46.5 -20q5 0 5 -3.5t-5 -3.5q-23 1 -117 1t-118 -1q-5 0 -5 4t6 4q23 0 35 5t18 23t6 55v239
q0 38 -9.5 55.5t-35.5 17.5q-5 0 -17 -2q-4 -1 -4.5 2.5t2.5 4.5q47 11 96.5 29t80.5 39q3 2 7 2q5 0 5 -6q-6 -56 -8 -87t-2 -72v-8q12 70 43 119.5t91 49.5q39 0 70.5 -19z" />
    <glyph glyph-name="s" unicode="s" horiz-adv-x="452" 
d="M59 187q1 4 4 3.5t4 -4.5q1 -87 42.5 -137t112.5 -50q90 0 90 62q-1 40 -35 71.5t-103 70.5q-65 39 -97.5 70t-32.5 72q0 34 25.5 63.5t70.5 46.5t100 17q65 0 122 -18.5t49 -50.5l-31 -120q-1 -3 -3.5 -3t-2.5 4q-7 172 -154 172q-44 0 -60.5 -13.5t-16.5 -36.5
q0 -28 30 -52.5t105 -67.5q66 -37 105 -75t39 -89q0 -39 -27 -70.5t-76 -49.5t-111 -18q-47 0 -90 10.5t-67 29t-20 40.5z" />
    <glyph glyph-name="t" unicode="t" horiz-adv-x="326" 
d="M103 17q-27 32 -27 80v323q0 15 -3.5 22t-17.5 7h-35q-4 0 -4 2.5t4 3.5q57 10 104.5 50t64.5 101q0 6 4 6q3 0 3 -6q-1 -77 -5 -131q0 -12 5 -15.5t20 -3.5h93q2 0 1.5 -3.5t-5.5 -3.5h-85q-17 0 -23 -5.5t-6 -20.5v-297q0 -37 15 -57t38 -20q18 0 39 13t40 37q5 5 7 3
t-2 -7q-40 -56 -80.5 -83t-75.5 -27q-42 0 -69 32z" />
    <glyph glyph-name="u" unicode="u" horiz-adv-x="593" 
d="M602 176q3 0 3 -5q0 -76 -32.5 -130t-84.5 -54q-40 0 -66.5 28t-26.5 85v14q-13 -57 -55 -93.5t-108 -36.5q-74 0 -118.5 50t-44.5 146v148q0 38 -9.5 55.5t-35.5 17.5q-5 0 -17 -2q-4 -1 -4.5 2.5t2.5 4.5q48 11 97.5 29t79.5 39q3 2 7 2q5 0 5 -6q-6 -56 -8 -87t-2 -72
v-136q0 -151 99 -151q51 0 81.5 43t30.5 114v147q0 38 -9 55.5t-35 17.5q-5 0 -17 -2q-4 -1 -4.5 2.5t1.5 4.5q48 11 97.5 29t80.5 39q5 3 8.5 2t2.5 -6q-5 -48 -7.5 -84.5t-2.5 -74.5v-188q0 -66 34 -66q33 0 43 29.5t12 84.5q0 5 3 5z" />
    <glyph glyph-name="v" unicode="v" horiz-adv-x="541" 
d="M537 453q0 -4 -4 -4q-22 0 -36.5 -19t-36.5 -72l-125 -296q-1 -2 -1 -6t2 -8l7 -16q1 -2 1 -5q0 -5 -5 -7l-89 -32q-2 -1 -6 -1q-7 0 -9 7l-154 364q-22 53 -36.5 72t-36.5 19q-4 0 -4 4t4 4l44 -1h127l77 1q7 0 7 -4t-7 -4q-63 0 -63 -45q0 -21 11 -46l118 -279
q2 -5 5.5 -5.5t5.5 5.5l118 279q12 29 12 47q0 44 -61 44q-6 0 -6 4t6 4l75 -1h12l44 1q4 0 4 -4z" />
    <glyph glyph-name="w" unicode="w" horiz-adv-x="808" 
d="M803 453q0 -4 -4 -4q-22 0 -36 -19t-36 -73l-121 -293q-1 -3 -1 -7q0 -5 2 -9l7 -16l1 -4q0 -5 -5 -7l-89 -33q-2 -1 -6 -1q-7 0 -9 7l-103 262l-78 -192q-1 -2 -1 -6q0 -3 1.5 -6t1.5 -4l7 -16l1 -4q0 -5 -5 -7l-89 -33q-2 -1 -6 -1q-7 0 -9 7l-146 363q-22 54 -36 73
t-36 19q-4 0 -4 4t4 4l43 -1h127l50 1q5 0 5 -4t-5 -4q-38 0 -38 -37q0 -22 13 -55l112 -277q2 -4 4.5 -4t4.5 4l76 186l-36 91q-21 53 -37.5 72.5t-43.5 19.5q-4 0 -4 4t4 4l53 -1h127l62 1q5 0 5 -4t-5 -4q-49 0 -49 -42q0 -22 11 -50l107 -276q2 -5 5.5 -5.5t5.5 5.5
l114 276q12 30 12 49q0 43 -55 43q-6 0 -6 4t6 4l68 -1h12l43 1q4 0 4 -4z" />
    <glyph glyph-name="x" unicode="x" horiz-adv-x="536" 
d="M538 3q0 -4 -5 -4q-15 1 -62 1h-136q-47 0 -63 -1q-4 0 -4 4t4 4q22 0 34.5 8t12.5 24q0 20 -21 53l-89 136l-92 -136q-22 -34 -22 -53q0 -32 46 -32q5 0 5 -4t-5 -4q-16 1 -63 1h-13q-47 0 -62 -1q-5 0 -5 4t5 4q30 0 50.5 17.5t53.5 67.5l98 143l-84 129
q-33 50 -51.5 67.5t-45.5 17.5q-4 0 -4 4t4 4l56 -1h137l68 1q5 0 5 -4t-5 -4q-24 0 -37.5 -8.5t-13.5 -25.5q0 -21 20 -51l69 -106l73 106q21 31 21 52q0 17 -13.5 25t-37.5 8q-6 0 -6 4t6 4l68 -1h14l62 1q5 0 5 -4t-5 -4q-31 0 -51.5 -18t-53.5 -67l-78 -114l103 -158
q32 -49 52.5 -67t50.5 -18q5 0 5 -4z" />
    <glyph glyph-name="y" unicode="y" horiz-adv-x="541" 
d="M537 453q0 -4 -4 -4q-22 0 -36.5 -19t-36.5 -72l-156 -369q-32 -72 -58.5 -114.5t-57.5 -63.5t-71 -21q-44 0 -80 21t-40 49q-1 14 13 44.5t28 49t13 2.5q-1 -21 14.5 -54t40.5 -58t53 -25q29 0 51 23t45 75q3 15 -6.5 42.5t-21.5 52.5l-146 346q-22 53 -36.5 72
t-36.5 19q-4 0 -4 4t4 4l44 -1h127l74 1q7 0 7 -4t-7 -4q-60 0 -60 -44q0 -21 11 -47l118 -278q2 -6 5.5 -6.5t5.5 5.5l118 279q12 29 12 46q0 45 -64 45q-6 0 -6 4t6 4l78 -1h12l44 1q4 0 4 -4z" />
    <glyph glyph-name="z" unicode="z" horiz-adv-x="478" 
d="M417 -4q-20 4 -49 4h-198l-70 -1q-21 -1 -56 -1q-13 0 -13 9q0 5 8 21l270 408q3 5 3 8q0 7 -9 5l-131 -8q-38 -1 -66.5 -28t-44.5 -92q-1 -5 -4 -4.5t-3 5.5q6 47 6 82q0 16 -2 46q0 12 9 12q7 0 23.5 -3t50.5 -3h179l62 2l61 1q9 0 9 -7q0 -4 -6 -13l-14 -21
q-22 -31 -39 -59l-225 -339q-3 -4 -3 -7q0 -7 10 -6l144 8q40 0 62.5 15.5t36.5 47t28 92.5q1 5 4 4.5t2 -5.5q-8 -61 -8 -112q0 -16 2 -52q0 -11 -9 -11q-6 0 -20 2z" />
    <glyph glyph-name="ae" unicode="&#xe6;" horiz-adv-x="810" 
d="M784.5 88q2.5 -2 0.5 -5q-39 -48 -94 -73t-115 -25q-73 0 -132.5 38.5t-85.5 104.5q-17 -67 -63.5 -105t-103.5 -38q-56 0 -93.5 23t-55.5 60t-17 78q1 51 51.5 81t128.5 30q72 0 124 -10l-23 97q-11 50 -37.5 73.5t-76.5 23.5q-61 0 -105 -35.5t-49 -108.5q-1 -7 -5 -7
t-3 7q5 58 37.5 97.5t80 58.5t96.5 19q112 0 154 -94q36 44 88 69t113 25q78 0 130 -42.5t52 -115.5q0 -33 -12 -71q-105 -2 -322 -9q17 -55 52.5 -98.5t81.5 -68t90 -24.5q73 0 110 46q1 1 3.5 -1zM464.5 418.5q-29.5 -34.5 -29.5 -103.5q0 -34 10 -74q57 1 134 5
q20 1 41.5 2t43.5 1q9 15 9 37q0 33 -18.5 72.5t-47 67t-57.5 27.5q-56 0 -85.5 -34.5zM347 156q0 9 -3 24l-1 6l-2 7v-1l-8 38q-48 12 -95 12q-57 0 -81.5 -18t-24.5 -65q0 -49 28 -83t81 -34q94 0 104 98q2 10 2 16z" />
    <glyph glyph-name="oe" unicode="&#x153;" horiz-adv-x="911" 
d="M885.5 88q2.5 -2 0.5 -5q-39 -48 -94 -73t-115 -25q-59 0 -109.5 25t-82.5 71q-38 -45 -95.5 -71t-123.5 -26q-69 0 -124.5 29.5t-87 83.5t-31.5 123q0 70 36 127.5t99 90.5t139 33q63 0 115.5 -25t85.5 -69q36 44 89 69.5t113 25.5q78 0 130 -42.5t52 -115.5
q0 -33 -12 -71q-105 -2 -322 -9q17 -55 52.5 -98.5t81.5 -68t90 -24.5q73 0 110 46q1 1 3.5 -1zM538 286l3 -21q1 -8 5 -24q57 1 134 5q20 1 41.5 2t43.5 1q9 15 9 37q0 33 -18.5 72.5t-47 67t-57.5 27.5q-56 0 -85.5 -34.5t-29.5 -103.5q0 -9 2 -29zM410.5 40.5
q32.5 32.5 32.5 95.5q0 61 -31.5 135t-79 125.5t-92.5 51.5q-56 0 -88 -32t-32 -96q0 -60 31 -134.5t78.5 -126t91.5 -51.5q57 0 89.5 32.5z" />
    <glyph glyph-name="eth" unicode="&#xf0;" horiz-adv-x="553" 
d="M395 623q65 -56 100 -139.5t35 -186.5q0 -102 -35 -172.5t-94 -105.5t-130 -35q-76 0 -132.5 32t-86 86.5t-29.5 120.5q0 64 29 121.5t79 92.5t109 35q51 1 92.5 -18.5t69.5 -57.5q-6 121 -60 200l-116 -60q-7 -3 -7.5 0.5t4.5 5.5l115 60q-33 45 -80 72t-104 34
q-7 1 -7 4q0 5 9 3q139 -9 232 -87l65 34l4 1q4 0 4 -3t-5 -6zM432 153q0 62 -31 133t-77 120t-87 50q-120 0 -120 -136q0 -62 32.5 -136.5t78 -126t80.5 -51.5q124 0 124 147z" />
    <glyph glyph-name="thorn" unicode="&#xfe;" horiz-adv-x="568" 
d="M446.5 443.5q44.5 -28.5 71.5 -82t27 -123.5q0 -66 -31 -124.5t-84 -93.5t-115 -35q-39 0 -64 10.5t-50 26.5q-15 10 -20 10q-10 0 -10 -17v-112q0 -53 15 -74.5t45 -23.5q5 0 5 -3.5t-5 -3.5q-42 2 -104 2q-80 0 -130 -2q-6 0 -5 4t8 4q29 0 42.5 22t13.5 76v668
q0 38 -9.5 55.5t-35.5 17.5q-5 0 -17 -2q-4 -1 -4.5 2.5t2.5 4.5q46 10 96 28.5t82 39.5q5 3 8.5 2t2.5 -6q-6 -56 -8 -87t-2 -72v-164q0 -15 2.5 -29.5t6.5 -13.5q26 53 67.5 88.5t102.5 35.5q52 0 96.5 -28.5zM416 36q29 35 29 105q0 67 -24 129t-63 100t-82 38
q-46 0 -75.5 -38.5t-29.5 -101.5v-67q0 -56 18.5 -101.5t53 -72t79.5 -26.5q65 0 94 35z" />
    <glyph glyph-name="germandbls" unicode="&#xdf;" horiz-adv-x="624" 
d="M86 0q-47 0 -63 -1q-5 0 -5 4t5 4q34 0 49.5 22t15.5 75v395q0 98 58 157.5t169 59.5q55 0 99.5 -20t69.5 -55t25 -80q0 -48 -37 -86.5t-98 -52.5q-7 -1 -6.5 -3t8.5 -2q69 0 119 -30.5t76.5 -78.5t26.5 -100q0 -72 -31 -122t-79 -75.5t-99 -25.5q-45 0 -76 16t-46 40.5
t-16 47.5q-1 6 2 6t4 -6q7 -33 40 -57t74 -24q52 0 79 32t27 102q0 85 -24.5 145t-67 90t-94.5 30q-11 0 -11 2q0 3 11 4q66 8 92.5 47.5t26.5 99.5q0 75 -33 107.5t-83 32.5t-71 -32t-21 -103v-532v-33h-116z" />
    <glyph glyph-name="zero" unicode="0" horiz-adv-x="623" 
d="M456.5 28.5q66.5 39.5 105 106.5t38.5 146q0 80 -40 146t-106 104.5t-142 38.5q-81 0 -147.5 -40t-104 -107t-37.5 -144q0 -76 38.5 -143t104.5 -107t145 -40t145.5 39.5zM136 475q36 31 81.5 48.5t94.5 17.5q48 0 92.5 -18t78.5 -48h-347zM505 454q66 -80 66 -175
q0 -46 -15.5 -88.5t-43.5 -77.5h-346zM116 104q-31 36 -48 81t-17 94q2 97 58 167h346zM137 84h349q-37 -30 -81.5 -47.5t-92.5 -17.5q-95 0 -175 65z" />
    <glyph glyph-name="one" unicode="1" horiz-adv-x="623" 
d="M456.5 28.5q66.5 39.5 105 106.5t38.5 146q0 80 -40 146t-106 104.5t-142 38.5q-81 0 -147.5 -40t-104 -107t-37.5 -144q0 -76 38.5 -143t104.5 -107t145 -40t145.5 39.5zM136 475q36 31 81.5 48.5t94.5 17.5q48 0 92.5 -18t78.5 -48h-347zM505 454q66 -80 66 -175
q0 -46 -15.5 -88.5t-43.5 -77.5h-346zM116 104q-31 36 -48 81t-17 94q2 97 58 167h346zM137 84h349q-37 -30 -81.5 -47.5t-92.5 -17.5q-95 0 -175 65z" />
    <glyph glyph-name="two" unicode="2" horiz-adv-x="623" 
d="M456.5 28.5q66.5 39.5 105 106.5t38.5 146q0 80 -40 146t-106 104.5t-142 38.5q-81 0 -147.5 -40t-104 -107t-37.5 -144q0 -76 38.5 -143t104.5 -107t145 -40t145.5 39.5zM136 475q36 31 81.5 48.5t94.5 17.5q48 0 92.5 -18t78.5 -48h-347zM505 454q66 -80 66 -175
q0 -46 -15.5 -88.5t-43.5 -77.5h-346zM116 104q-31 36 -48 81t-17 94q2 97 58 167h346zM137 84h349q-37 -30 -81.5 -47.5t-92.5 -17.5q-95 0 -175 65z" />
    <glyph glyph-name="three" unicode="3" horiz-adv-x="623" 
d="M456.5 28.5q66.5 39.5 105 106.5t38.5 146q0 80 -40 146t-106 104.5t-142 38.5q-81 0 -147.5 -40t-104 -107t-37.5 -144q0 -76 38.5 -143t104.5 -107t145 -40t145.5 39.5zM136 475q36 31 81.5 48.5t94.5 17.5q48 0 92.5 -18t78.5 -48h-347zM505 454q66 -80 66 -175
q0 -46 -15.5 -88.5t-43.5 -77.5h-346zM116 104q-31 36 -48 81t-17 94q2 97 58 167h346zM137 84h349q-37 -30 -81.5 -47.5t-92.5 -17.5q-95 0 -175 65z" />
    <glyph glyph-name="four" unicode="4" horiz-adv-x="716" 
d="M456.5 28.5q66.5 39.5 105 106.5t38.5 146q0 80 -40 146t-106 104.5t-142 38.5q-81 0 -147.5 -40t-104 -107t-37.5 -144q0 -76 38.5 -143t104.5 -107t145 -40t145.5 39.5zM136 475q36 31 81.5 48.5t94.5 17.5q48 0 92.5 -18t78.5 -48h-347zM505 454q66 -80 66 -175
q0 -46 -15.5 -88.5t-43.5 -77.5h-346zM116 104q-31 36 -48 81t-17 94q2 97 58 167h346zM137 84h349q-37 -30 -81.5 -47.5t-92.5 -17.5q-95 0 -175 65z" />
    <glyph glyph-name="five" unicode="5" horiz-adv-x="623" 
d="M456.5 28.5q66.5 39.5 105 106.5t38.5 146q0 80 -40 146t-106 104.5t-142 38.5q-81 0 -147.5 -40t-104 -107t-37.5 -144q0 -76 38.5 -143t104.5 -107t145 -40t145.5 39.5zM136 475q36 31 81.5 48.5t94.5 17.5q48 0 92.5 -18t78.5 -48h-347zM505 454q66 -80 66 -175
q0 -46 -15.5 -88.5t-43.5 -77.5h-346zM116 104q-31 36 -48 81t-17 94q2 97 58 167h346zM137 84h349q-37 -30 -81.5 -47.5t-92.5 -17.5q-95 0 -175 65z" />
    <glyph glyph-name="six" unicode="6" horiz-adv-x="623" 
d="M456.5 28.5q66.5 39.5 105 106.5t38.5 146q0 80 -40 146t-106 104.5t-142 38.5q-81 0 -147.5 -40t-104 -107t-37.5 -144q0 -76 38.5 -143t104.5 -107t145 -40t145.5 39.5zM136 475q36 31 81.5 48.5t94.5 17.5q48 0 92.5 -18t78.5 -48h-347zM505 454q66 -80 66 -175
q0 -46 -15.5 -88.5t-43.5 -77.5h-346zM116 104q-31 36 -48 81t-17 94q2 97 58 167h346zM137 84h349q-37 -30 -81.5 -47.5t-92.5 -17.5q-95 0 -175 65z" />
    <glyph glyph-name="seven" unicode="7" horiz-adv-x="623" 
d="M456.5 28.5q66.5 39.5 105 106.5t38.5 146q0 80 -40 146t-106 104.5t-142 38.5q-81 0 -147.5 -40t-104 -107t-37.5 -144q0 -76 38.5 -143t104.5 -107t145 -40t145.5 39.5zM136 475q36 31 81.5 48.5t94.5 17.5q48 0 92.5 -18t78.5 -48h-347zM505 454q66 -80 66 -175
q0 -46 -15.5 -88.5t-43.5 -77.5h-346zM116 104q-31 36 -48 81t-17 94q2 97 58 167h346zM137 84h349q-37 -30 -81.5 -47.5t-92.5 -17.5q-95 0 -175 65z" />
    <glyph glyph-name="eight" unicode="8" horiz-adv-x="623" 
d="M456.5 28.5q66.5 39.5 105 106.5t38.5 146q0 80 -40 146t-106 104.5t-142 38.5q-81 0 -147.5 -40t-104 -107t-37.5 -144q0 -76 38.5 -143t104.5 -107t145 -40t145.5 39.5zM136 475q36 31 81.5 48.5t94.5 17.5q48 0 92.5 -18t78.5 -48h-347zM505 454q66 -80 66 -175
q0 -46 -15.5 -88.5t-43.5 -77.5h-346zM116 104q-31 36 -48 81t-17 94q2 97 58 167h346zM137 84h349q-37 -30 -81.5 -47.5t-92.5 -17.5q-95 0 -175 65z" />
    <glyph glyph-name="nine" unicode="9" horiz-adv-x="623" 
d="M456.5 28.5q66.5 39.5 105 106.5t38.5 146q0 80 -40 146t-106 104.5t-142 38.5q-81 0 -147.5 -40t-104 -107t-37.5 -144q0 -76 38.5 -143t104.5 -107t145 -40t145.5 39.5zM136 475q36 31 81.5 48.5t94.5 17.5q48 0 92.5 -18t78.5 -48h-347zM505 454q66 -80 66 -175
q0 -46 -15.5 -88.5t-43.5 -77.5h-346zM116 104q-31 36 -48 81t-17 94q2 97 58 167h346zM137 84h349q-37 -30 -81.5 -47.5t-92.5 -17.5q-95 0 -175 65z" />
    <glyph glyph-name="K.ss01" horiz-adv-x="744" 
d="M729.5 0.5q-0.5 -3.5 -6.5 -3.5q-39 3 -57 3h-98q-20 0 -31.5 11.5t-18.5 34.5l-62 168q-31 80 -75 117t-128 37h-19v-260q0 -55 18.5 -78t53.5 -25q7 -1 6.5 -4.5t-6.5 -3.5q-39 3 -58 3h-151q-19 0 -58 -3q-6 0 -6 3.5t6 4.5q35 2 53.5 25t18.5 78v484q0 55 -18.5 78
t-53.5 25q-6 1 -6 4.5t6 3.5q39 -3 58 -3h151q19 0 58 3q6 0 6.5 -3.5t-6.5 -4.5q-35 -2 -53.5 -25t-18.5 -78v-217h16q64 0 108 17.5t72.5 45.5t56.5 71l61 94q19 29 19 50q0 20 -15.5 30.5t-39.5 11.5q-7 1 -6.5 4.5t6.5 3.5q39 -3 58 -3h41q21 0 69 3q7 0 7 -4t-7 -4
q-37 -1 -63.5 -21.5t-59.5 -70.5l-62 -95q-38 -58 -76 -90t-99 -43q108 -4 171 -44.5t99 -134.5l37 -93q22 -54 43 -75t54 -23q6 -1 5.5 -4.5z" />
    <glyph glyph-name="R.ss01" horiz-adv-x="706" 
d="M703.5 0.5q-0.5 -3.5 -5.5 -3.5q-36 3 -54 3h-107q-13 0 -21.5 9t-11.5 25q-11 40 -37 151q-15 65 -43.5 93.5t-67.5 32.5q-23 -1 -76 1q-5 1 -5 4.5t5 3.5q117 5 170.5 52.5t53.5 145.5q0 84 -47 129.5t-133 47.5l-55 1q-19 1 -26.5 -7.5t-7.5 -29.5v-551
q0 -55 18.5 -78t53.5 -25q6 -1 6 -4.5t-6 -3.5q-39 3 -58 3h-152q-19 0 -58 -3q-6 0 -6 3.5t6 4.5q35 2 53.5 25t18.5 78v484q0 55 -18.5 78t-53.5 25q-7 0 -6.5 3.5t6.5 3.5q26 -2 58 -2q28 0 64 1t54 2q92 2 134 2q146 0 220 -49.5t74 -142.5q0 -86 -60 -136t-172 -62
l11 -1q66 -3 108 -25.5t60 -90.5q16 -60 24 -92q14 -55 33.5 -77t50.5 -24q6 -1 5.5 -4.5z" />
    <glyph glyph-name="AE.ss01" horiz-adv-x="1028" 
d="M1004 269q2 0 3 -2t0 -6q-20 -130 -22 -249q-1 -14 -6 -19t-15 -5q-9 0 -26 3q-37 4 -68 6.5t-86 2.5h-300q-19 0 -58 -3q-6 0 -6 3.5t6 4.5q35 2 53.5 25t18.5 78v89h-290q-15 0 -25 -10l-62 -91q-18 -26 -18 -46q0 -22 19.5 -33t49.5 -12q7 0 7 -4t-8 -4q-48 3 -69 3
h-40q-18 0 -51 -3q-5 0 -5.5 3.5t4.5 4.5q27 1 46.5 19.5t55.5 71.5l357 523q13 18 13 37q0 6 -2 14q-18 23 -54 25q-6 1 -6 4.5t6 3.5q39 -3 58 -3h286q58 0 94.5 4t41.5 5q18 3 29 3q9 0 13.5 -5t5.5 -19q4 -101 24 -252q1 -4 -1.5 -5t-4.5 3q-26 95 -43.5 135.5
t-40.5 66.5q-30 34 -85 45.5t-155 11.5q-13 0 -20 -10t-7 -27v-254q2 -27 21 -27q66 0 84 3q28 3 46 25.5t36 83.5q2 6 5 6t2 -6q-7 -39 -7 -97q0 -78 12 -147q1 -5 -2 -5.5t-5 5.5q-20 63 -40 90.5t-47 31.5q-18 2 -84 2q-19 0 -21 -28v-280q0 -52 33 -52q105 1 168.5 15.5
t95.5 46.5q27 25 46.5 69.5t35.5 123.5q1 7 4 7zM498 204v216q0 144 -10 203q-1 4 -3 4t-4 -3l-274 -402q-3 -6 -3 -11q0 -7 9 -7h285z" />
    <glyph glyph-name="e.ss01" horiz-adv-x="486" 
d="M140 14q-54 29 -85.5 82.5t-31.5 123.5q0 69 34.5 127t93.5 91.5t129 33.5q78 0 130 -42.5t52 -115.5q0 -33 -12 -71q-145 -2 -315 -10l-5 8l122 4q68 4 93 4q9 15 9 37q0 33 -18.5 72.5t-47 67t-57.5 27.5q-56 0 -85.5 -34.5t-29.5 -103.5q0 -73 35.5 -135.5t90.5 -99.5
t110 -37q73 0 110 46q1 1 3.5 -1t0.5 -5q-39 -48 -94 -73t-115 -25q-63 0 -117 29z" />
    <glyph glyph-name="k.ss01" horiz-adv-x="615" 
d="M612.5 0.5q-0.5 -3.5 -6.5 -3.5q-39 3 -57 3h-94q-29 0 -39 28l-33 92q-18 55 -35.5 73.5t-48.5 18.5q-23 0 -38 -4t-30 -15l-28 -26v-79q0 -45 13.5 -63t46.5 -20q5 0 5 -3.5t-5 -3.5q-23 1 -117 1t-118 -1q-5 0 -5 4t6 4q23 0 35 5t18 22.5t6 55.5l-2 461
q0 38 -5.5 56.5t-14.5 22.5t-25 2h-1q-4 0 -5.5 3t-0.5 3q113 29 173 83h2q7 0 6 -8q-7 -40 -9.5 -84t-2.5 -118v-335l211 212q16 17 16 29q0 15 -18.5 23t-38.5 10q-5 1 -4.5 5t5.5 3q50 -2 113 -2q49 0 89 2q5 0 5.5 -4t-5.5 -4q-29 1 -64.5 -15t-69.5 -48l-163 -149
q43 24 87 24q46 0 77.5 -25t54.5 -88l15 -44q18 -54 39.5 -75.5t54.5 -23.5q6 -1 5.5 -4.5z" />
    <glyph glyph-name="N.ss02" horiz-adv-x="726" 
d="M40 -3q-5 0 -5.5 3.5t5.5 3.5q35 2 53.5 25t18.5 78l-1 486q0 55 -18.5 78.5t-53.5 25.5q-6 1 -5.5 4.5t6.5 3.5q26 -4 57 -4l38 -1q9 0 17.5 -3t20.5 -10l422 -241q6 -4 8 -4q4 0 4 7v143q0 55 -19 78t-53 25q-7 1 -6.5 4.5t6.5 3.5q39 -3 58 -3h36q16 0 58 3
q5 0 5.5 -3.5t-5.5 -4.5q-35 -2 -54 -25t-19 -78v-484q0 -55 19 -78t54 -25q6 -1 5.5 -4.5t-5.5 -3.5q-42 3 -58 3h-36q-19 0 -58 -3q-6 0 -6.5 3.5t6.5 4.5q34 2 53 25t19 78v182q0 8 -6 12l-470 268q-3 3 -6 3q-5 0 -5 -6v-460q0 -55 18.5 -78t53.5 -25q6 0 5.5 -3.5
t-5.5 -3.5l-58 3h-36z" />
    <glyph glyph-name="P.ss02" horiz-adv-x="697" 
d="M289 338q-5 0 -4.5 3t5.5 4l36 1q85 7 121.5 50.5t36.5 126.5q0 82 -43.5 126t-127.5 46l-44 2q-19 0 -26.5 -8t-7.5 -29v-552q0 -55 18.5 -78t53.5 -25q6 -1 6 -4.5t-6 -3.5q-39 3 -58 3h-152q-19 0 -58 -3q-6 0 -6 3.5t6 4.5q35 2 53.5 25t18.5 78v484q0 55 -18.5 78
t-53.5 25q-7 0 -6.5 3.5t6.5 3.5q26 -2 58 -2q28 0 62.5 1.5t51.5 1.5q88 2 127 2q143 0 213.5 -47.5t70.5 -130.5q0 -92 -67.5 -140.5t-228.5 -48.5h-37z" />
    <glyph glyph-name="R.ss02" horiz-adv-x="659" 
d="M39 -3q-6 0 -6 3.5t6 4.5q35 2 53.5 25t18.5 78v484q0 55 -18.5 78t-53.5 25q-7 0 -6.5 3.5t6.5 3.5q26 -2 58 -2q31 0 69 1.5t56 1.5q78 2 106 2q148 0 221 -49.5t73 -129.5q0 -38 -14 -65t-33.5 -44t-50.5 -36q-36 -23 -53 -41.5t-17 -46.5q0 -34 30.5 -91.5t73 -111
t73.5 -74.5q14 -10 36 -10q6 0 5.5 -3.5t-5.5 -3.5l-119 -1q-37 0 -89 50.5t-89.5 120.5t-37.5 122q0 35 16.5 55t50.5 43q27 19 43.5 34.5t28.5 41.5t12 64q0 72 -44.5 117t-128.5 49l-42 2q-20 0 -26.5 -9t-6.5 -33v-547q0 -55 20.5 -78t58.5 -25q7 -1 6.5 -4.5t-6.5 -3.5
q-42 3 -63 3h-154q-19 0 -58 -3z" />
    <glyph glyph-name="U.ss02" horiz-adv-x="712" 
d="M224 12q-56 27 -86 74t-30 106v400q0 55 -18.5 78t-53.5 25q-6 1 -5.5 4.5t5.5 3.5q42 -3 58 -3h152q19 0 58 3q6 0 6.5 -3.5t-6.5 -4.5q-34 -2 -53 -25t-19 -78v-387q0 -78 45 -120t151 -42q63 0 112.5 20.5t49.5 60.5v468q0 55 -19 78t-54 25q-6 1 -5.5 4.5t6.5 3.5
q39 -3 57 -3h37q19 0 58 3q5 0 5.5 -3.5t-5.5 -4.5q-35 -2 -53.5 -25t-18.5 -78v-496q-24 -36 -85 -73.5t-159 -37.5q-74 0 -130 27z" />
    <glyph glyph-name="a.ss02" horiz-adv-x="569" 
d="M577 176.5q4 0.5 4 -6.5q0 -58 -17.5 -100t-45 -63.5t-58.5 -21.5q-32 0 -54.5 27t-34.5 79l-9 38q-25 -76 -78.5 -110t-122.5 -34q-56 0 -97 34.5t-41 101.5q0 41 20 69t48.5 44.5t72.5 33.5q48 21 69.5 36.5t20.5 40.5q-2 5 1.5 6.5t5.5 -4.5q1 -4 1 -11
q0 -23 -14 -38.5t-43 -34.5q-37 -26 -56.5 -49.5t-19.5 -63.5q0 -50 26.5 -79t69.5 -29q56 0 90.5 27.5t34.5 85.5q0 17 -3 35l-36 145q-13 56 -42.5 79.5t-78.5 23.5q-34 0 -68 -13.5t-61 -38.5q-4 -3 -6 -0.5t1 5.5q30 37 79.5 59t113.5 22q80 0 123.5 -34.5t62.5 -113.5
l51 -216q6 -26 15.5 -39.5t24.5 -13.5q18 0 32.5 31.5t14.5 83.5q0 6 4 6.5z" />
    <glyph glyph-name="e.ss02" horiz-adv-x="480" 
d="M140 14q-54 29 -85.5 82.5t-31.5 123.5q0 69 35 127t95 91.5t132 33.5q80 0 129.5 -36.5t49.5 -98.5q0 -83 -77.5 -116.5t-185.5 -33.5q-3 0 -5 2t-2 4t2 4t5 2q56 -1 102.5 18.5t46.5 73.5q0 41 -16 77.5t-43 58.5t-58 22q-60 0 -88.5 -32.5t-28.5 -101.5
q0 -73 35.5 -135.5t90.5 -99.5t110 -37q27 0 56.5 10.5t53.5 34.5q1 1 3 -1.5t-1 -7.5q-37 -45 -92 -69.5t-115 -24.5q-63 0 -117 29z" />
    <glyph glyph-name="g.ss02" horiz-adv-x="543" 
d="M448 442q-16 -5 -16 -13q0 -5 4 -9q30 -24 47 -58.5t17 -75.5q0 -64 -44 -116t-117 -74q78 -10 123.5 -49.5t45.5 -103.5q0 -41 -33 -77.5t-91 -59t-127 -22.5q-63 0 -113.5 20t-79 54t-28.5 72q0 47 27 76.5t77 47.5l2 1q4 0 4 -8q-10 -27 -9 -70q2 -34 24.5 -75.5
t57.5 -70.5t72 -29q50 0 77 22t27 62q0 54 -19.5 99.5t-52.5 72t-70 26.5q-63 0 -114.5 25.5t-81 68.5t-29.5 93q0 57 32.5 102.5t88.5 72t125 26.5q31 0 87 -9q44 -8 65 -8q47 0 77 5h2q6 0 6 -4t-7 -5q-40 -4 -56 -9zM368.5 130q28.5 27 28.5 79q0 55 -23 112.5t-59.5 95
t-74.5 37.5q-52 0 -80 -27t-28 -80q0 -52 23 -109.5t60 -96t76 -38.5q49 0 77.5 27z" />
    <glyph glyph-name="t.ss02" horiz-adv-x="367" 
d="M111.5 18.5q-35.5 34.5 -35.5 108.5v293q0 15 -3.5 22t-17.5 7h-35q-4 0 -4 2.5t4 3.5q46 7 76.5 16.5t54.5 33t37 64.5q2 6 5 6t3 -6l-5 -94q0 -12 5 -15.5t20 -3.5h136q2 0 1 -3.5t-6 -3.5h-127q-17 0 -23 -5.5t-6 -20.5v-277q0 -49 21 -76t54 -27q23 0 48.5 14.5
t48.5 41.5q4 5 7 3t-1 -7q-50 -62 -90.5 -86.5t-84.5 -24.5q-47 0 -82.5 34.5z" />
    <glyph glyph-name="A.ss03" horiz-adv-x="752" 
d="M744.5 6.5q1.5 -1.5 1.5 -3.5t-2 -3.5t-5 -0.5q-23 2 -132 2q-108 0 -131 -2q-7 0 -7.5 5t6.5 5q24 -1 43 10.5t19 38.5q0 18 -10 42l-67 160h-286l-66 -160q-9 -21 -9 -40q0 -26 18.5 -38t45.5 -14q6 0 6 -4q0 -2 -2 -3.5t-5 -1.5q-22 2 -74 2t-75 -2h-1q-6 0 -6.5 4.5
t6.5 4.5q27 2 46.5 20.5t40.5 69.5l67 162h-54q-7 0 -7 3.5t7 3.5h57l133 320q5 15 5 24q0 15 -7 29l1 -1l-19 46q-2 8 -2 9q0 6 9 6q7 0 32.5 2.5t46.5 2.5q23 0 34 -10t22 -37l234 -560q21 -49 40 -67.5t42 -22.5q3 0 4.5 -1.5zM316 604l-139 -337h280z" />
    <glyph glyph-name="H.ss03" horiz-adv-x="808" 
d="M775 0.5q0 -3.5 -6 -3.5q-39 3 -58 3h-152q-19 0 -58 -3q-5 0 -5.5 3.5t5.5 4.5q35 2 53.5 25t18.5 78v261l-338 1v-262q0 -55 18.5 -78t53.5 -25q6 -1 6 -4.5t-6 -3.5q-39 3 -58 3h-152q-19 0 -58 -3q-6 0 -6 3.5t6 4.5q35 2 53.5 25t18.5 78v262h-71q-4 0 -4 4t4 4h71
v214q0 55 -18.5 78t-53.5 25q-6 1 -6 4.5t6 3.5q39 -3 58 -3h152q19 0 58 3q6 0 6 -3.5t-6 -4.5q-35 -2 -53.5 -25t-18.5 -78v-214l338 -1v215q0 55 -18.5 78t-53.5 25q-6 1 -5.5 4.5t5.5 3.5q39 -3 58 -3h152q19 0 58 3q6 0 6 -3.5t-6 -4.5q-35 -2 -53.5 -25t-18.5 -78
v-484q0 -55 18.5 -78t53.5 -25q6 -1 6 -4.5z" />
    <glyph glyph-name="K.ss03" horiz-adv-x="636" 
d="M690.5 0.5q-0.5 -3.5 -5.5 -3.5q-39 3 -58 3h-105q-10 0 -16.5 3t-12.5 12l-174 232v87l-85 -112v-114q0 -55 18.5 -78t53.5 -25q7 -1 6.5 -4.5t-6.5 -3.5q-39 3 -58 3h-151q-19 0 -58 -3q-6 0 -6 3.5t6 4.5q35 2 53.5 25t18.5 78v587q0 5 -3 5h3h137q19 0 58 3
q6 0 6.5 -3.5t-6.5 -4.5q-35 -2 -53.5 -25t-18.5 -78v-358l85 112v82q0 5 4 5q2 0 4 -2l28 -38l161 213q22 28 22 50q0 18 -15.5 28t-39.5 11q-6 1 -5.5 4.5t5.5 3.5q42 -3 58 -3h41q24 0 69 3q7 0 7.5 -3.5t-6.5 -4.5q-37 -1 -63.5 -20.5t-63.5 -69.5l-166 -218l215 -292
q37 -51 59 -70t52 -20q6 -1 5.5 -4.5z" />
    <glyph glyph-name="Q.ss03" horiz-adv-x="831" 
d="M852 -55q4 -1 0 -7q-28 -52 -88 -82t-128 -30q-63 0 -108.5 10t-99.5 28q-37 13 -62.5 19.5t-54.5 7.5q-72 -33 -127 -47q-12 -2 -16 -2q-15 0 -15 10q0 14 26.5 33.5t69.5 32.5q67 17 128 17q72 34 134 66q-57 -17 -121 -17q-102 0 -182 45t-125 125.5t-45 182.5
t51 188.5t141.5 138t202.5 51.5q104 0 185.5 -45.5t127.5 -125.5t46 -180q0 -114 -63 -207.5t-170 -139.5q-77 -41 -157 -82q40 -2 81.5 -9t50.5 -8q97 -19 164 -19q53 0 88.5 9t55.5 32q6 6 10 5zM195.5 258q45.5 -106 120 -175t158.5 -69q97 0 151.5 59t54.5 165
q0 103 -46 208t-122 172.5t-160 67.5q-94 0 -148 -57.5t-54 -160.5q0 -104 45.5 -210zM205 -143l76 34l-28 -3z" />
    <glyph glyph-name="R.ss03" horiz-adv-x="627" 
d="M681.5 0.5q-0.5 -3.5 -5.5 -3.5q-42 3 -58 3h-101q-10 0 -16 3t-13 12l-180 206v92q-34 0 -73 3v-208q0 -55 18.5 -78t53.5 -25q6 -1 6 -4.5t-6 -3.5q-39 3 -58 3h-152q-19 0 -58 -3q-6 0 -6 3.5t6 4.5q35 2 53.5 25t18.5 78v484q0 55 -18.5 78t-53.5 25q-7 0 -6.5 3.5
t6.5 3.5q26 -2 58 -2q28 0 64 1t54 2q92 2 134 2q147 0 220.5 -48.5t73.5 -148.5q0 -89 -62.5 -138t-200.5 -56l182 -221q42 -51 63 -69t51 -19q6 -1 5.5 -4.5zM235 325l32 -1q15 0 41 2v62q0 5 4 5q2 0 4 -2l49 -59q79 14 109.5 54t30.5 116q0 100 -45 142.5t-129 42.5h-58
q-24 0 -31 -7.5t-7 -34.5v-320z" />
    <glyph glyph-name="g.ss04" horiz-adv-x="505" 
d="M428.5 -3.5q51.5 -24.5 51.5 -73.5q0 -34 -27 -65.5t-78 -51.5t-121 -20q-91 0 -161 18t-62 48l33 105q1 4 4 4t2 -3q-2 -13 -2 -35q0 -68 44.5 -95.5t147.5 -27.5q50 0 83 15t33 50q0 31 -39 46.5t-115 30.5q-58 10 -93.5 20.5t-59.5 32t-24 57.5q0 52 70 89
q-37 23 -58 59t-21 81q0 50 30 93.5t80.5 69.5t107.5 26q44 0 83 -15q2 84 70 119q12 6 30 7.5t45 1.5q9 0 9 -16q0 -20 -12.5 -41.5t-30.5 -21.5q-19 1 -41 1q-36 0 -49.5 -11t-9.5 -43q51 -22 82 -63.5t31 -92.5q0 -49 -31.5 -91.5t-83.5 -68.5t-111 -26q-61 0 -112 27
q-29 -17 -29 -35q0 -16 17 -26.5t56 -19t115 -19.5q95 -15 146.5 -39.5zM147 426q-26 -24 -26 -70q0 -52 23.5 -105t60 -87t72.5 -34q44 0 70.5 24t26.5 69q0 41 -25 95.5t-62.5 93t-70.5 38.5q-43 0 -69 -24z" />
    <glyph glyph-name="a.ss05" horiz-adv-x="594" 
d="M603 176q3 0 3 -5q0 -76 -32.5 -130t-84.5 -54q-38 0 -64 25.5t-29 77.5q-3 11 -6 13q-26 -55 -69.5 -87t-102.5 -32t-103.5 33t-68 86t-23.5 113q0 70 32.5 129t87 93t118.5 34q36 0 64.5 -9.5t63.5 -25.5q15 -7 29 -12.5t24 -5.5q9 0 18 6t22 18q19 17 29 23q4 4 8 4
q3 0 4.5 -2.5t0.5 -6.5q-13 -95 -13 -193v-145q0 -66 34 -66q33 0 43 29.5t12 84.5q0 5 3 5zM372.5 83q23.5 33 23.5 96v72q0 50 -16 96.5t-49 76.5t-83 30q-126 0 -126 -133q0 -69 24.5 -131.5t65 -101t85.5 -38.5q52 0 75.5 33z" />
    <glyph glyph-name="g.ss05" horiz-adv-x="571" 
d="M511 469q5 0 4 -7q-13 -96 -13 -194v-225q0 -88 -38 -142.5t-95 -78t-119 -23.5q-65 0 -102 23.5t-37 59.5q0 38 35.5 74.5t89.5 67.5q-18 -2 -28 -2q-58 0 -100 28.5t-63.5 76t-21.5 101.5q0 71 31 126.5t83.5 86.5t114.5 31q35 0 64 -10.5t63 -29.5q21 -12 34 -17.5
t24 -5.5q17 0 33 15.5t35 40.5q3 4 6 4zM140 207.5q21 -53.5 58.5 -85.5t83.5 -32q54 0 79 36t25 101v16q-1 55 -19 103.5t-51 78t-77 29.5q-67 0 -93.5 -32t-26.5 -100q0 -61 21 -114.5zM386 88v1q0 21 -1 39t-5 13q-42 -78 -104 -105q-44 -27 -58.5 -54.5t-14.5 -68.5
q1 -40 23 -69t54 -29q55 0 80.5 38t25.5 122v113z" />
    <glyph glyph-name="K.ss06" horiz-adv-x="750" 
d="M765 150q2 0 3.5 -3.5t0.5 -9.5q-2 -63 -35 -107t-85 -44q-47 0 -83.5 47.5t-73.5 154.5q-22 63 -39.5 94.5t-36 42.5t-46.5 11q-27 0 -41.5 -4t-28.5 -17l-65 -78v-129q0 -55 18.5 -78t53.5 -25q6 -1 6 -4.5t-6 -3.5q-39 3 -58 3h-152q-19 0 -58 -3q-6 0 -6 3.5t6 4.5
q35 2 53.5 25t18.5 78v484q0 55 -18.5 78t-53.5 25q-6 1 -6 4.5t6 3.5q39 -3 58 -3h152q19 0 58 3q6 0 6 -3.5t-6 -4.5q-35 -2 -53.5 -25t-18.5 -78v-344l298 359q24 28 24 50q0 18 -16 27.5t-39 10.5q-6 1 -5.5 4.5t6.5 3.5q39 -3 57 -3h40q19 0 58 3q6 0 6 -3.5t-6 -4.5
q-30 -1 -50.5 -18.5t-63.5 -69.5l-206 -247q44 33 103 33q56 0 94 -35t72 -129q30 -84 49.5 -118t47.5 -34q22 0 35.5 19t18.5 43q3 11 7 11z" />
    <glyph glyph-name="R.ss06" horiz-adv-x="722" 
d="M722.5 138.5q1.5 2.5 3.5 2.5q5 0 3 -9q-3 -63 -35.5 -104.5t-86.5 -41.5q-114 0 -147 191q-14 74 -44.5 103.5t-78.5 31.5h-57q-5 1 -5 4t5 3l52 2q89 6 131 51.5t42 138.5q0 85 -48 133.5t-133 50.5l-55 2q-19 0 -26.5 -8t-7.5 -29v-552q0 -55 18.5 -78t53.5 -25
q6 -1 6 -4.5t-6 -3.5q-39 3 -58 3h-152q-19 0 -58 -3q-6 0 -6 3.5t6 4.5q35 2 53.5 25t18.5 78v484q0 55 -18.5 78t-53.5 25q-7 0 -6.5 3.5t6.5 3.5q26 -2 58 -2q28 0 64 1t54 2q92 2 134 2q144 0 219 -54t75 -148q0 -87 -58.5 -133.5t-161.5 -53.5l-28 -1l32 -2
q43 -2 73 -10.5t55 -34t38 -75.5q15 -64 30 -92.5t42 -28.5q24 0 37.5 15t18.5 46q0 3 1.5 5.5z" />
    <glyph glyph-name="k.ss06" horiz-adv-x="615" 
d="M608 116.5q1 2.5 2 2.5q3 0 3 -8q0 -50 -29.5 -88t-74.5 -38q-38 0 -66 26.5t-50 86.5q-18 48 -31.5 72.5t-27.5 33t-35 8.5q-22 0 -36 -7t-33 -26l-10 -9l-5 -5l-5 -5l-7 -7v-65q0 -45 13.5 -63t46.5 -20q5 0 5 -3.5t-5 -3.5q-23 1 -117 1t-118 -1q-5 0 -5 4t6 4
q23 0 35 5t18 22.5t6 55.5l-2 461q0 38 -5.5 56.5t-14.5 22.5t-25 2h-1q-4 0 -5.5 3t-0.5 3q113 29 173 83h2q7 0 6 -8q-7 -40 -9.5 -84t-2.5 -118v-349l210 226q16 16 16 30q0 15 -18 22.5t-39 9.5q-4 1 -3.5 5t4.5 3q52 -2 114 -2q49 0 89 2q5 0 5.5 -4t-5.5 -4
q-30 1 -65.5 -15t-69.5 -48l-152 -148q37 23 77 23q86 0 131 -113q16 -40 32 -60.5t38 -20.5q34 0 40 44q0 3 1 5.5z" />
    <glyph glyph-name="a.ss07" horiz-adv-x="636" 
d="M643.5 176.5q3.5 0.5 3.5 -6.5q0 -58 -17 -100t-44.5 -63.5t-58.5 -21.5q-65 0 -89 106l-4 18q-9 20 -16 20q-3 0 -8 -9q-60 -136 -190 -136q-53 0 -98 29t-72 82t-27 121q0 69 35.5 128t93.5 93.5t120 34.5q89 0 150 -38t81 -120l50 -206q6 -26 15.5 -39.5t24.5 -13.5
q17 0 32 31.5t15 83.5q0 6 3.5 6.5zM383.5 93.5q27.5 40.5 27.5 90.5q0 10 -2 24l-17 71q-21 88 -63 129t-94 41q-54 0 -84.5 -34t-30.5 -101q0 -66 23.5 -126.5t64.5 -97.5t93 -37q55 0 82.5 40.5z" />
    <glyph glyph-name="e.ss08" horiz-adv-x="480" 
d="M465.5 86q1.5 -2 -1.5 -7q-37 -45 -92 -69.5t-115 -24.5q-63 0 -117 29t-85.5 82.5t-31.5 123.5q0 69 35 127t95 91.5t132 33.5q80 0 129.5 -36.5t49.5 -98.5q0 -83 -88 -120.5t-223 -40.5q34 -60 89 -96.5t110 -36.5q27 0 56.5 10.5t53.5 34.5q2 0 3.5 -2zM144.5 416.5
q-28.5 -32.5 -28.5 -101.5q0 -70 33 -131q91 0 146 27.5t55 88.5q0 32 -16.5 67t-43.5 58.5t-57 23.5q-60 0 -88.5 -32.5z" />
    <glyph glyph-name="v.ss08" horiz-adv-x="556" 
d="M495 182.5q-38 -79.5 -102 -131t-139 -51.5h-27q-10 0 -16 12l-126 344q-19 52 -38 72.5t-51 20.5q-5 0 -5 4t5 4l62 -1h124l62 1q5 0 5 -4t-5 -4q-51 0 -51 -44q0 -18 11 -49l119 -330q39 9 69 50t46 98.5t16 112.5q0 53 -16 85.5t-45 33.5q-29 3 -44 -24q-2 -4 -5 -3
t-1 6q24 46 41 66t46 20q49 0 76 -34.5t27 -96.5q0 -78 -38 -157.5z" />
    <glyph glyph-name="w.ss08" horiz-adv-x="801" 
d="M743.5 166q-34.5 -74 -91 -120t-119.5 -46h-27q-10 0 -16 12l-41 125q-39 -61 -93.5 -99t-110.5 -38h-27q-10 0 -16 12l-119 344q-18 53 -36.5 73t-50.5 20q-5 0 -5 4t5 4l62 -1h118l49 1q5 0 5 -4t-5 -4q-38 0 -38 -39q0 -24 11 -54l112 -331q25 7 49.5 37.5t40 73
t15.5 82.5q0 15 -3 30l-35 108q-18 53 -34.5 73t-43.5 20q-4 0 -4 4t4 4l54 -1h119l62 1q5 0 5 -4t-5 -4q-51 0 -51 -46q0 -19 9 -48l106 -330q30 6 54.5 46.5t38 97t13.5 107.5q0 62 -17.5 95t-44.5 33t-40 -24q-2 -4 -5 -3.5t-1 6.5q22 48 38 68t46 20q98 0 98 -153
q0 -78 -34.5 -152z" />
    <glyph glyph-name="y.ss08" horiz-adv-x="564" 
d="M504.5 422.5q36.5 -48.5 36.5 -134.5q0 -120 -45.5 -233t-122.5 -183.5t-167 -70.5q-52 0 -77 16t-25 41q0 9 3 20l58 122q2 4 4.5 4t1.5 -5q-2 -10 -2 -29q0 -56 31 -91.5t77 -35.5q65 0 112 66t62 198q-41 -49 -94.5 -78t-111.5 -29h-28q-10 0 -16 12l-118 344
q-18 52 -37 72.5t-51 20.5q-5 0 -5 4t5 4l62 -1h124l62 1q5 0 5 -4t-5 -4q-50 0 -50 -45q0 -19 9 -48l112 -332q41 8 73 44.5t49.5 86t17.5 95.5q0 16 -1 24l2 2q-5 56 -26 88.5t-55 32.5q-31 0 -42 -26q-2 -4 -5 -3t-1 6q23 54 39.5 75.5t47.5 21.5q55 0 91.5 -48.5z" />
    <glyph glyph-name="uni0307_uni0069" 
d="M-177.5 585q-18.5 14 -18.5 35q0 26 25 44.5t63 18.5q31 0 49 -14t18 -36q0 -26 -25 -44t-63 -18q-30 0 -48.5 14z" />
    <glyph glyph-name="Aacute" unicode="&#xc1;" horiz-adv-x="730" 
d="M725 0.5q0 -3.5 -5 -3.5q-30 3 -43 3h-160q-21 0 -72 -3q-8 0 -8 4t8 4q75 4 75 55q0 19 -10 43l-52 125q-7 5 -13 5q-5 0 -13 -3q-64 -30 -139 -47.5t-151 -21.5q-20 0 -29 -17l-17 -41q-10 -23 -10 -41q0 -53 79 -57q8 0 8 -4t-8 -4q-51 3 -75 3h-37q-13 0 -43 -3
q-5 0 -5 3.5t4 4.5q24 1 40 21.5t39 76.5l200 484q5 13 5 24t-6 29l-17 41q-5 13 -17 14q-3 1 -1.5 3t5.5 2h123q7 0 11 -2.5t7 -8.5l243 -586q23 -55 39 -76t40 -22q5 -1 5 -4.5zM441.5 250.5q3.5 8.5 0.5 14.5h1l-140 338l-172 -417v1q-1 -2 -1 -6q0 -6 3.5 -9.5t9.5 -2.5
q75 4 150.5 21.5t135.5 47.5q9 4 12.5 12.5zM273.5 745q-1.5 3 3.5 5q53 30 78 52.5t45 49.5l12 16q3 3 23 3q23 0 43.5 -4.5t19.5 -12.5q0 -15 -46 -41.5t-100.5 -49t-70.5 -22.5q-6 1 -7.5 4z" />
    <glyph glyph-name="Abreve" unicode="&#x102;" horiz-adv-x="730" 
d="M725 0.5q0 -3.5 -5 -3.5q-30 3 -43 3h-160q-21 0 -72 -3q-8 0 -8 4t8 4q75 4 75 55q0 19 -10 43l-52 125q-7 5 -13 5q-5 0 -13 -3q-64 -30 -139 -47.5t-151 -21.5q-20 0 -29 -17l-17 -41q-10 -23 -10 -41q0 -53 79 -57q8 0 8 -4t-8 -4q-51 3 -75 3h-37q-13 0 -43 -3
q-5 0 -5 3.5t4 4.5q24 1 40 21.5t39 76.5l200 484q5 13 5 24t-6 29l-17 41q-5 13 -17 14q-3 1 -1.5 3t5.5 2h123q7 0 11 -2.5t7 -8.5l243 -586q23 -55 39 -76t40 -22q5 -1 5 -4.5zM441.5 250.5q3.5 8.5 0.5 14.5h1l-140 338l-172 -417v1q-1 -2 -1 -6q0 -6 3.5 -9.5t9.5 -2.5
q75 4 150.5 21.5t135.5 47.5q9 4 12.5 12.5zM305 878q9 -3 9 -10q0 -38 21 -70t61 -32q44 0 62.5 32t18.5 69q0 6 4 6q5 0 5 -6q0 -50 -30 -89.5t-94 -39.5q-44 0 -72.5 20.5t-42 50.5t-13.5 60q0 6 7 9t27 3q28 0 37 -3z" />
    <glyph glyph-name="uni01CD" unicode="&#x1cd;" horiz-adv-x="730" 
d="M725 0.5q0 -3.5 -5 -3.5q-30 3 -43 3h-160q-21 0 -72 -3q-8 0 -8 4t8 4q75 4 75 55q0 19 -10 43l-52 125q-7 5 -13 5q-5 0 -13 -3q-64 -30 -139 -47.5t-151 -21.5q-20 0 -29 -17l-17 -41q-10 -23 -10 -41q0 -53 79 -57q8 0 8 -4t-8 -4q-51 3 -75 3h-37q-13 0 -43 -3
q-5 0 -5 3.5t4 4.5q24 1 40 21.5t39 76.5l200 484q5 13 5 24t-6 29l-17 41q-5 13 -17 14q-3 1 -1.5 3t5.5 2h123q7 0 11 -2.5t7 -8.5l243 -586q23 -55 39 -76t40 -22q5 -1 5 -4.5zM441.5 250.5q3.5 8.5 0.5 14.5h1l-140 338l-172 -417v1q-1 -2 -1 -6q0 -6 3.5 -9.5t9.5 -2.5
q75 4 150.5 21.5t135.5 47.5q9 4 12.5 12.5zM524 866.5q1 -2.5 -3 -4.5q-40 -16 -61 -36t-39 -47q-14 -21 -25 -30t-31 -9q-22 0 -33.5 9.5t-25.5 30.5q-18 27 -38.5 46t-58.5 36q-4 2 -3 4.5t5 2.5q29 -2 77 -25t76 -50q29 27 78 50.5t77 24.5q4 0 5 -2.5z" />
    <glyph glyph-name="Acircumflex" unicode="&#xc2;" horiz-adv-x="730" 
d="M725 0.5q0 -3.5 -5 -3.5q-30 3 -43 3h-160q-21 0 -72 -3q-8 0 -8 4t8 4q75 4 75 55q0 19 -10 43l-52 125q-7 5 -13 5q-5 0 -13 -3q-64 -30 -139 -47.5t-151 -21.5q-20 0 -29 -17l-17 -41q-10 -23 -10 -41q0 -53 79 -57q8 0 8 -4t-8 -4q-51 3 -75 3h-37q-13 0 -43 -3
q-5 0 -5 3.5t4 4.5q24 1 40 21.5t39 76.5l200 484q5 13 5 24t-6 29l-17 41q-5 13 -17 14q-3 1 -1.5 3t5.5 2h123q7 0 11 -2.5t7 -8.5l243 -586q23 -55 39 -76t40 -22q5 -1 5 -4.5zM441.5 250.5q3.5 8.5 0.5 14.5h1l-140 338l-172 -417v1q-1 -2 -1 -6q0 -6 3.5 -9.5t9.5 -2.5
q75 4 150.5 21.5t135.5 47.5q9 4 12.5 12.5zM535 740q-1 -3 -6 -3q-30 2 -81.5 26.5t-81.5 53.5q-30 -29 -82.5 -54t-82.5 -26q-5 0 -6 3t3 5q44 17 66 38t41 50q15 22 26.5 31.5t33.5 9.5q23 0 35 -9.5t28 -32.5q20 -28 41.5 -48.5t62.5 -38.5q4 -2 3 -5z" />
    <glyph glyph-name="uni1EAC" unicode="&#x1eac;" horiz-adv-x="730" 
d="M725 0.5q0 -3.5 -5 -3.5q-30 3 -43 3h-160q-21 0 -72 -3q-8 0 -8 4t8 4q75 4 75 55q0 19 -10 43l-52 125q-7 5 -13 5q-5 0 -13 -3q-64 -30 -139 -47.5t-151 -21.5q-20 0 -29 -17l-17 -41q-10 -23 -10 -41q0 -53 79 -57q8 0 8 -4t-8 -4q-51 3 -75 3h-37q-13 0 -43 -3
q-5 0 -5 3.5t4 4.5q24 1 40 21.5t39 76.5l200 484q5 13 5 24t-6 29l-17 41q-5 13 -17 14q-3 1 -1.5 3t5.5 2h123q7 0 11 -2.5t7 -8.5l243 -586q23 -55 39 -76t40 -22q5 -1 5 -4.5zM441.5 250.5q3.5 8.5 0.5 14.5h1l-140 338l-172 -417v1q-1 -2 -1 -6q0 -6 3.5 -9.5t9.5 -2.5
q75 4 150.5 21.5t135.5 47.5q9 4 12.5 12.5zM325 -147q-17 14 -17 34q1 24 19.5 40t48.5 16q24 0 40.5 -13.5t16.5 -33.5q0 -24 -18.5 -40.5t-48.5 -16.5q-24 0 -41 14zM535 740q-1 -3 -6 -3q-30 2 -81.5 26.5t-81.5 53.5q-30 -29 -82.5 -54t-82.5 -26q-5 0 -6 3t3 5
q44 17 66 38t41 50q15 22 26.5 31.5t33.5 9.5q23 0 35 -9.5t28 -32.5q20 -28 41.5 -48.5t62.5 -38.5q4 -2 3 -5z" />
    <glyph glyph-name="Adieresis" unicode="&#xc4;" horiz-adv-x="730" 
d="M725 0.5q0 -3.5 -5 -3.5q-30 3 -43 3h-160q-21 0 -72 -3q-8 0 -8 4t8 4q75 4 75 55q0 19 -10 43l-52 125q-7 5 -13 5q-5 0 -13 -3q-64 -30 -139 -47.5t-151 -21.5q-20 0 -29 -17l-17 -41q-10 -23 -10 -41q0 -53 79 -57q8 0 8 -4t-8 -4q-51 3 -75 3h-37q-13 0 -43 -3
q-5 0 -5 3.5t4 4.5q24 1 40 21.5t39 76.5l200 484q5 13 5 24t-6 29l-17 41q-5 13 -17 14q-3 1 -1.5 3t5.5 2h123q7 0 11 -2.5t7 -8.5l243 -586q23 -55 39 -76t40 -22q5 -1 5 -4.5zM441.5 250.5q3.5 8.5 0.5 14.5h1l-140 338l-172 -417v1q-1 -2 -1 -6q0 -6 3.5 -9.5t9.5 -2.5
q75 4 150.5 21.5t135.5 47.5q9 4 12.5 12.5zM240.5 767.5q-16.5 13.5 -16.5 33.5q1 24 19.5 39.5t48.5 15.5q24 0 40.5 -14t16.5 -34q-1 -23 -19.5 -38.5t-47.5 -15.5q-25 0 -41.5 13.5zM400.5 767.5q-16.5 13.5 -16.5 33.5q1 24 19.5 39.5t48.5 15.5q24 0 40.5 -14
t16.5 -34q-1 -23 -19.5 -38.5t-47.5 -15.5q-25 0 -41.5 13.5z" />
    <glyph glyph-name="Agrave" unicode="&#xc0;" horiz-adv-x="730" 
d="M725 0.5q0 -3.5 -5 -3.5q-30 3 -43 3h-160q-21 0 -72 -3q-8 0 -8 4t8 4q75 4 75 55q0 19 -10 43l-52 125q-7 5 -13 5q-5 0 -13 -3q-64 -30 -139 -47.5t-151 -21.5q-20 0 -29 -17l-17 -41q-10 -23 -10 -41q0 -53 79 -57q8 0 8 -4t-8 -4q-51 3 -75 3h-37q-13 0 -43 -3
q-5 0 -5 3.5t4 4.5q24 1 40 21.5t39 76.5l200 484q5 13 5 24t-6 29l-17 41q-5 13 -17 14q-3 1 -1.5 3t5.5 2h123q7 0 11 -2.5t7 -8.5l243 -586q23 -55 39 -76t40 -22q5 -1 5 -4.5zM441.5 250.5q3.5 8.5 0.5 14.5h1l-140 338l-172 -417v1q-1 -2 -1 -6q0 -6 3.5 -9.5t9.5 -2.5
q75 4 150.5 21.5t135.5 47.5q9 4 12.5 12.5zM326.5 763.5q-54.5 22.5 -100.5 49t-46 41.5q-1 8 19.5 12.5t43.5 4.5q20 0 23 -3l12 -16q20 -27 45 -49.5t78 -52.5q3 -1 3 -4q0 -4 -7 -5q-16 0 -70.5 22.5z" />
    <glyph glyph-name="Amacron" unicode="&#x100;" horiz-adv-x="730" 
d="M725 0.5q0 -3.5 -5 -3.5q-30 3 -43 3h-160q-21 0 -72 -3q-8 0 -8 4t8 4q75 4 75 55q0 19 -10 43l-52 125q-7 5 -13 5q-5 0 -13 -3q-64 -30 -139 -47.5t-151 -21.5q-20 0 -29 -17l-17 -41q-10 -23 -10 -41q0 -53 79 -57q8 0 8 -4t-8 -4q-51 3 -75 3h-37q-13 0 -43 -3
q-5 0 -5 3.5t4 4.5q24 1 40 21.5t39 76.5l200 484q5 13 5 24t-6 29l-17 41q-5 13 -17 14q-3 1 -1.5 3t5.5 2h123q7 0 11 -2.5t7 -8.5l243 -586q23 -55 39 -76t40 -22q5 -1 5 -4.5zM441.5 250.5q3.5 8.5 0.5 14.5h1l-140 338l-172 -417v1q-1 -2 -1 -6q0 -6 3.5 -9.5t9.5 -2.5
q75 4 150.5 21.5t135.5 47.5q9 4 12.5 12.5zM235 767q-4 0 -6.5 1.5t-2.5 3.5q0 5 9 5h259q9 0 9 -5q0 -2 -2.5 -3.5t-6.5 -1.5h-259z" />
    <glyph glyph-name="Aogonek" unicode="&#x104;" horiz-adv-x="730" 
d="M724.5 -78q3.5 0 3.5 -6q0 -44 -29 -71.5t-79 -27.5q-36 0 -56 16t-20 45q0 36 30.5 65.5t81.5 56.5h-139q-21 0 -72 -3q-8 0 -8 4t8 4q75 4 75 55q0 19 -10 43l-52 125q-7 5 -13 5q-5 0 -13 -3q-64 -30 -139 -47.5t-151 -21.5q-20 0 -29 -17l-17 -41q-10 -23 -10 -41
q0 -53 79 -57q8 0 8 -4t-8 -4q-51 3 -75 3h-37q-13 0 -43 -3q-5 0 -5 3.5t4 4.5q24 1 40 21.5t39 76.5l200 484q5 13 5 24t-6 29l-17 41q-5 13 -17 14q-3 1 -1.5 3t5.5 2h123q7 0 11 -2.5t7 -8.5l243 -586q23 -55 39 -76t40 -22q5 -1 5 -4.5t-5 -3.5q-30 3 -43 3h-7
q-30 -27 -41.5 -49.5t-11.5 -44.5q0 -24 12.5 -36.5t33.5 -12.5q58 0 58 59q0 6 3.5 6zM441.5 250.5q3.5 8.5 0.5 14.5h1l-140 338l-172 -417v1q-1 -2 -1 -6q0 -6 3.5 -9.5t9.5 -2.5q75 4 150.5 21.5t135.5 47.5q9 4 12.5 12.5z" />
    <glyph glyph-name="Aring" unicode="&#xc5;" horiz-adv-x="730" 
d="M725 0.5q0 -3.5 -5 -3.5q-30 3 -43 3h-160q-21 0 -72 -3q-8 0 -8 4t8 4q75 4 75 55q0 19 -10 43l-52 125q-7 5 -13 5q-5 0 -13 -3q-64 -30 -139 -47.5t-151 -21.5q-20 0 -29 -17l-17 -41q-10 -23 -10 -41q0 -53 79 -57q8 0 8 -4t-8 -4q-51 3 -75 3h-37q-13 0 -43 -3
q-5 0 -5 3.5t4 4.5q24 1 40 21.5t39 76.5l200 484q5 13 5 24t-6 29l-17 41q-5 13 -17 14q-3 1 -1.5 3t5.5 2h123q7 0 11 -2.5t7 -8.5l243 -586q23 -55 39 -76t40 -22q5 -1 5 -4.5zM441.5 250.5q3.5 8.5 0.5 14.5h1l-140 338l-172 -417v1q-1 -2 -1 -6q0 -6 3.5 -9.5t9.5 -2.5
q75 4 150.5 21.5t135.5 47.5q9 4 12.5 12.5zM292 746.5q-27 20.5 -27 52.5q0 30 29 54t70 24q40 0 69 -20t29 -51q0 -32 -30.5 -56t-74.5 -24q-38 0 -65 20.5zM420 773q0 17 -12 39t-30 37.5t-35 15.5q-34 0 -34 -33q0 -17 11.5 -39.5t29.5 -38t36 -15.5q34 0 34 34z" />
    <glyph glyph-name="Aringacute" unicode="&#x1fa;" horiz-adv-x="730" 
d="M241 864.5q-1 2.5 3 4.5q47 27 69 47t34 36t18 23q3 3 21 3q20 0 38.5 -4t17.5 -11q0 -14 -41 -38t-90.5 -44t-63.5 -20q-5 1 -6 3.5zM411.5 849.5q28.5 -20.5 28.5 -51.5q0 -32 -30.5 -55.5t-74.5 -23.5q-39 0 -65 20t-26 53q0 30 29.5 54t70.5 24q39 0 67.5 -20.5z
M389 739q9 7 9 26q0 17 -12 39.5t-30 38t-35 15.5q-16 0 -24.5 -7.5t-8.5 -26.5q0 -18 11.5 -39.5t29 -37t35.5 -15.5q16 0 25 7zM725 0.5q0 -3.5 -5 -3.5q-30 3 -43 3h-160q-21 0 -72 -3q-8 0 -8 4t8 4q75 4 75 55q0 19 -10 43l-52 125q-7 5 -13 5q-5 0 -13 -3
q-64 -30 -139 -47.5t-151 -21.5q-20 0 -29 -17l-17 -41q-10 -23 -10 -41q0 -53 79 -57q8 0 8 -4t-8 -4q-51 3 -75 3h-37q-13 0 -43 -3q-5 0 -5 3.5t4 4.5q24 1 40 21.5t39 76.5l200 484q5 13 5 24t-6 29l-17 41q-5 13 -17 14q-3 1 -1.5 3t5.5 2h123q7 0 11 -2.5t7 -8.5
l243 -586q23 -55 39 -76t40 -22q5 -1 5 -4.5zM441.5 250.5q3.5 8.5 0.5 14.5h1l-140 338l-172 -417v1q-1 -2 -1 -6q0 -6 3.5 -9.5t9.5 -2.5q75 4 150.5 21.5t135.5 47.5q9 4 12.5 12.5z" />
    <glyph glyph-name="Atilde" unicode="&#xc3;" horiz-adv-x="730" 
d="M725 0.5q0 -3.5 -5 -3.5q-30 3 -43 3h-160q-21 0 -72 -3q-8 0 -8 4t8 4q75 4 75 55q0 19 -10 43l-52 125q-7 5 -13 5q-5 0 -13 -3q-64 -30 -139 -47.5t-151 -21.5q-20 0 -29 -17l-17 -41q-10 -23 -10 -41q0 -53 79 -57q8 0 8 -4t-8 -4q-51 3 -75 3h-37q-13 0 -43 -3
q-5 0 -5 3.5t4 4.5q24 1 40 21.5t39 76.5l200 484q5 13 5 24t-6 29l-17 41q-5 13 -17 14q-3 1 -1.5 3t5.5 2h123q7 0 11 -2.5t7 -8.5l243 -586q23 -55 39 -76t40 -22q5 -1 5 -4.5zM441.5 250.5q3.5 8.5 0.5 14.5h1l-140 338l-172 -417v1q-1 -2 -1 -6q0 -6 3.5 -9.5t9.5 -2.5
q75 4 150.5 21.5t135.5 47.5q9 4 12.5 12.5zM198 740q-2 0 -3 2t0 6q16 49 42 72.5t64 23.5q29 0 64 -13l43 -16q30 -12 54 -12q42 0 64 42q3 4 6 4q5 0 2 -8q-32 -98 -106 -98q-25 0 -62 13l-47 17q-45 17 -70 17q-19 0 -29 -10.5t-17 -33.5q-2 -6 -5 -6z" />
    <glyph glyph-name="AEacute" unicode="&#x1fc;" horiz-adv-x="1028" 
d="M1004 269q2 0 3 -2t0 -6q-20 -130 -22 -249q-1 -14 -6 -19t-15 -5q-9 0 -26 3q-37 4 -68 6.5t-86 2.5h-300q-19 0 -58 -3q-6 0 -6 3.5t6 4.5q35 2 53.5 25t18.5 78v145q-2 5 -8 5t-18 -6q-91 -44 -199 -44q-26 0 -53 3q-18 2 -31 -16l-68 -99q-18 -26 -18 -46
q0 -22 19.5 -33t49.5 -12q7 0 7 -4t-8 -4q-48 3 -69 3h-40q-18 0 -51 -3q-5 0 -5.5 3.5t4.5 4.5q27 1 46.5 19.5t55.5 71.5l357 523q13 18 13 37q0 6 -2 14q-18 23 -54 25q-6 1 -6 4.5t6 3.5q39 -3 58 -3h286q58 0 94.5 4t41.5 5q18 3 29 3q9 0 13.5 -5t5.5 -19
q4 -101 24 -252q1 -4 -1.5 -5t-4.5 3q-26 95 -43.5 135.5t-40.5 66.5q-30 34 -85 45.5t-155 11.5q-13 0 -20 -10t-7 -27v-254q2 -27 21 -27q66 0 84 3q28 3 46 25.5t36 83.5q2 6 5 6t2 -6q-7 -39 -7 -97q0 -78 12 -147q1 -5 -2 -5.5t-5 5.5q-20 63 -40 90.5t-47 31.5
q-18 2 -84 2q-19 0 -21 -28v-280q0 -52 33 -52q105 1 168.5 15.5t95.5 46.5q27 25 46.5 69.5t35.5 123.5q1 7 4 7zM498 297v123q0 144 -10 203q-1 4 -3 4t-4 -3l-267 -392q-2 -4 -2 -6q0 -6 12 -8q25 -3 52 -3q105 0 194 44q28 16 28 38zM623.5 745q-1.5 3 3.5 5
q53 30 78 52.5t45 49.5l12 16q3 3 23 3q23 0 43.5 -4.5t19.5 -12.5q0 -15 -46 -41.5t-100.5 -49t-70.5 -22.5q-6 1 -7.5 4z" />
    <glyph glyph-name="Cacute" unicode="&#x106;" horiz-adv-x="695" 
d="M572 325q-1 -4 -5 -3t-3 5q16 48 16 98q0 78 -35 142q-28 56 -76 87.5t-104 31.5q-101 0 -157.5 -50.5t-56.5 -161.5q0 -117 47 -212.5t121.5 -149.5t152.5 -54q49 0 105.5 17.5t99.5 62.5q4 4 6 4q5 0 -1 -8q-63 -76 -137 -113t-165 -37q-92 0 -170.5 44t-125 125
t-46.5 185q0 106 52 192t139.5 135.5t190.5 49.5q65 0 122.5 -19t91.5 -47.5t34 -57.5q0 -4 -2 -12zM261.5 745q-1.5 3 3.5 5q53 30 78 52.5t45 49.5l12 16q3 3 23 3q23 0 43.5 -4.5t19.5 -12.5q0 -15 -46 -41.5t-100.5 -49t-70.5 -22.5q-6 1 -7.5 4z" />
    <glyph glyph-name="Ccaron" unicode="&#x10c;" horiz-adv-x="695" 
d="M572 325q-1 -4 -5 -3t-3 5q16 48 16 98q0 78 -35 142q-28 56 -76 87.5t-104 31.5q-101 0 -157.5 -50.5t-56.5 -161.5q0 -117 47 -212.5t121.5 -149.5t152.5 -54q49 0 105.5 17.5t99.5 62.5q4 4 6 4q5 0 -1 -8q-63 -76 -137 -113t-165 -37q-92 0 -170.5 44t-125 125
t-46.5 185q0 106 52 192t139.5 135.5t190.5 49.5q65 0 122.5 -19t91.5 -47.5t34 -57.5q0 -4 -2 -12zM512 866.5q1 -2.5 -3 -4.5q-40 -16 -61 -36t-39 -47q-14 -21 -25 -30t-31 -9q-22 0 -33.5 9.5t-25.5 30.5q-18 27 -38.5 46t-58.5 36q-4 2 -3 4.5t5 2.5q29 -2 77 -25
t76 -50q29 27 78 50.5t77 24.5q4 0 5 -2.5z" />
    <glyph glyph-name="Ccedilla" unicode="&#xc7;" horiz-adv-x="695" 
d="M683 142q5 0 -1 -8q-63 -76 -137 -113t-165 -37q-18 0 -27 1q-10 -14 -22 -40q59 -14 84.5 -33t25.5 -47q0 -24 -26 -45t-66 -21q-38 0 -67.5 11t-30.5 32q0 8 9 19t17 11q5 0 11 -5.5t11 -12.5q15 -18 30.5 -29t40.5 -11q24 0 37 8t14 22q-2 38 -127 65l48 77
q-84 9 -153.5 55t-110 123t-40.5 174q0 106 52 192t139.5 135.5t190.5 49.5q65 0 122.5 -19t91.5 -47.5t34 -57.5q0 -4 -2 -12l-94 -254q-1 -4 -5 -3t-3 5q16 48 16 98q0 78 -35 142q-28 56 -76 87.5t-104 31.5q-101 0 -157.5 -50.5t-56.5 -161.5q0 -117 47 -212.5
t121.5 -149.5t152.5 -54q49 0 105.5 17.5t99.5 62.5q4 4 6 4z" />
    <glyph glyph-name="Ccircumflex" unicode="&#x108;" horiz-adv-x="695" 
d="M572 325q-1 -4 -5 -3t-3 5q16 48 16 98q0 78 -35 142q-28 56 -76 87.5t-104 31.5q-101 0 -157.5 -50.5t-56.5 -161.5q0 -117 47 -212.5t121.5 -149.5t152.5 -54q49 0 105.5 17.5t99.5 62.5q4 4 6 4q5 0 -1 -8q-63 -76 -137 -113t-165 -37q-92 0 -170.5 44t-125 125
t-46.5 185q0 106 52 192t139.5 135.5t190.5 49.5q65 0 122.5 -19t91.5 -47.5t34 -57.5q0 -4 -2 -12zM523 740q-1 -3 -6 -3q-30 2 -81.5 26.5t-81.5 53.5q-30 -29 -82.5 -54t-82.5 -26q-5 0 -6 3t3 5q44 17 66 38t41 50q15 22 26.5 31.5t33.5 9.5q23 0 35 -9.5t28 -32.5
q20 -28 41.5 -48.5t62.5 -38.5q4 -2 3 -5z" />
    <glyph glyph-name="Cdotaccent" unicode="&#x10a;" horiz-adv-x="695" 
d="M572 325q-1 -4 -5 -3t-3 5q16 48 16 98q0 78 -35 142q-28 56 -76 87.5t-104 31.5q-101 0 -157.5 -50.5t-56.5 -161.5q0 -117 47 -212.5t121.5 -149.5t152.5 -54q49 0 105.5 17.5t99.5 62.5q4 4 6 4q5 0 -1 -8q-63 -76 -137 -113t-165 -37q-92 0 -170.5 44t-125 125
t-46.5 185q0 106 52 192t139.5 135.5t190.5 49.5q65 0 122.5 -19t91.5 -47.5t34 -57.5q0 -4 -2 -12zM303 758q-16 13 -16 32q0 24 22 40.5t57 16.5q28 0 44.5 -13t16.5 -32q0 -24 -22.5 -40.5t-57.5 -16.5q-28 0 -44 13z" />
    <glyph glyph-name="Dcaron" unicode="&#x10e;" horiz-adv-x="748" 
d="M215 -4q-57 3 -118 3q-32 0 -58 -2q-6 0 -6.5 3.5t6.5 3.5q35 2 53.5 25t18.5 78v485q0 55 -18.5 78t-53.5 25q-7 0 -6.5 3.5t6.5 3.5q26 -2 58 -2q28 0 52 1t41 2l101 2q215 0 316.5 -96.5t101.5 -255.5q0 -102 -45 -183.5t-132.5 -128.5t-208.5 -47q-34 0 -108 2z
M509 93.5q69 91.5 70 240.5q0 99 -33.5 181.5t-104 132t-176.5 49.5q-17 0 -23.5 -10t-6.5 -30v-611q0 -26 12 -35t50 -9q143 0 212 91.5zM500 866.5q1 -2.5 -3 -4.5q-40 -16 -61 -36t-39 -47q-14 -21 -25 -30t-31 -9q-22 0 -33.5 9.5t-25.5 30.5q-18 27 -38.5 46t-58.5 36
q-4 2 -3 4.5t5 2.5q29 -2 77 -25t76 -50q29 27 78 50.5t77 24.5q4 0 5 -2.5z" />
    <glyph glyph-name="Dcroat" unicode="&#x110;" horiz-adv-x="748" 
d="M607.5 608.5q101.5 -96.5 101.5 -255.5q0 -102 -45 -183.5t-132.5 -128.5t-208.5 -47q-34 0 -108 2q-57 3 -118 3q-32 0 -58 -2q-6 0 -6.5 3.5t6.5 3.5q35 2 53.5 25t18.5 78v239h-67q-4 0 -4 4.5t4 4.5h67v237q0 55 -18.5 78t-53.5 25q-7 0 -6.5 3.5t6.5 3.5
q26 -2 58 -2q28 0 52 1t41 2l101 2q215 0 316.5 -96.5zM509 93.5q69 91.5 70 240.5q0 99 -33.5 181.5t-104 132t-176.5 49.5q-17 0 -23.5 -10t-6.5 -30v-302h193q5 0 5 -4.5t-5 -4.5h-193v-300q0 -26 12 -35t50 -9q143 0 212 91.5z" />
    <glyph glyph-name="uni1E0C" unicode="&#x1e0c;" horiz-adv-x="748" 
d="M215 -4q-57 3 -118 3q-32 0 -58 -2q-6 0 -6.5 3.5t6.5 3.5q35 2 53.5 25t18.5 78v485q0 55 -18.5 78t-53.5 25q-7 0 -6.5 3.5t6.5 3.5q26 -2 58 -2q28 0 52 1t41 2l101 2q215 0 316.5 -96.5t101.5 -255.5q0 -102 -45 -183.5t-132.5 -128.5t-208.5 -47q-34 0 -108 2z
M509 93.5q69 91.5 70 240.5q0 99 -33.5 181.5t-104 132t-176.5 49.5q-17 0 -23.5 -10t-6.5 -30v-611q0 -26 12 -35t50 -9q143 0 212 91.5zM300 -147q-17 14 -17 34q1 24 19.5 40t48.5 16q24 0 40.5 -13.5t16.5 -33.5q0 -24 -18.5 -40.5t-48.5 -16.5q-24 0 -41 14z" />
    <glyph glyph-name="uni1E0E" unicode="&#x1e0e;" horiz-adv-x="748" 
d="M215 -4q-57 3 -118 3q-32 0 -58 -2q-6 0 -6.5 3.5t6.5 3.5q35 2 53.5 25t18.5 78v485q0 55 -18.5 78t-53.5 25q-7 0 -6.5 3.5t6.5 3.5q26 -2 58 -2q28 0 52 1t41 2l101 2q215 0 316.5 -96.5t101.5 -255.5q0 -102 -45 -183.5t-132.5 -128.5t-208.5 -47q-34 0 -108 2z
M509 93.5q69 91.5 70 240.5q0 99 -33.5 181.5t-104 132t-176.5 49.5q-17 0 -23.5 -10t-6.5 -30v-611q0 -26 12 -35t50 -9q143 0 212 91.5zM211 -114q-4 0 -6.5 1.5t-2.5 3.5q0 5 9 5h259q9 0 9 -5q0 -2 -2.5 -3.5t-6.5 -1.5h-259z" />
    <glyph glyph-name="Eacute" unicode="&#xc9;" horiz-adv-x="641" 
d="M39 -3q-6 0 -6 3.5t6 4.5q35 2 53.5 25t18.5 78v484q0 55 -18.5 78t-53.5 25q-6 1 -6 4.5t6 3.5q39 -3 58 -3h286q58 0 94.5 4t41.5 5q18 3 29 3q9 0 13.5 -5t5.5 -19q4 -101 24 -252q1 -4 -1.5 -5t-4.5 3q-26 95 -43.5 135.5t-40.5 66.5q-30 34 -85 45.5t-155 11.5
q-13 0 -20 -10t-7 -27v-254q2 -27 21 -27q66 0 84 3q28 3 46 25.5t36 83.5q2 6 5 6t2 -6q-7 -39 -7 -97q0 -78 12 -147q1 -5 -2 -5.5t-5 5.5q-20 63 -40 90.5t-47 31.5q-18 2 -84 2q-19 0 -21 -28v-280q0 -52 33 -52q105 1 168.5 15.5t95.5 46.5q27 25 46.5 69.5t35.5 123.5
q1 7 4 7q2 0 3 -2t0 -6q-20 -130 -22 -249q-1 -14 -6 -19t-15 -5q-9 0 -26 3q-37 4 -68 6.5t-86 2.5h-300q-19 0 -58 -3zM222.5 745q-1.5 3 3.5 5q53 30 78 52.5t45 49.5l12 16q3 3 23 3q23 0 43.5 -4.5t19.5 -12.5q0 -15 -46 -41.5t-100.5 -49t-70.5 -22.5q-6 1 -7.5 4z
" />
    <glyph glyph-name="Ebreve" unicode="&#x114;" horiz-adv-x="641" 
d="M39 -3q-6 0 -6 3.5t6 4.5q35 2 53.5 25t18.5 78v484q0 55 -18.5 78t-53.5 25q-6 1 -6 4.5t6 3.5q39 -3 58 -3h286q58 0 94.5 4t41.5 5q18 3 29 3q9 0 13.5 -5t5.5 -19q4 -101 24 -252q1 -4 -1.5 -5t-4.5 3q-26 95 -43.5 135.5t-40.5 66.5q-30 34 -85 45.5t-155 11.5
q-13 0 -20 -10t-7 -27v-254q2 -27 21 -27q66 0 84 3q28 3 46 25.5t36 83.5q2 6 5 6t2 -6q-7 -39 -7 -97q0 -78 12 -147q1 -5 -2 -5.5t-5 5.5q-20 63 -40 90.5t-47 31.5q-18 2 -84 2q-19 0 -21 -28v-280q0 -52 33 -52q105 1 168.5 15.5t95.5 46.5q27 25 46.5 69.5t35.5 123.5
q1 7 4 7q2 0 3 -2t0 -6q-20 -130 -22 -249q-1 -14 -6 -19t-15 -5q-9 0 -26 3q-37 4 -68 6.5t-86 2.5h-300q-19 0 -58 -3zM254 878q9 -3 9 -10q0 -38 21 -70t61 -32q44 0 62.5 32t18.5 69q0 6 4 6q5 0 5 -6q0 -50 -30 -89.5t-94 -39.5q-44 0 -72.5 20.5t-42 50.5t-13.5 60
q0 6 7 9t27 3q28 0 37 -3z" />
    <glyph glyph-name="Ecaron" unicode="&#x11a;" horiz-adv-x="641" 
d="M39 -3q-6 0 -6 3.5t6 4.5q35 2 53.5 25t18.5 78v484q0 55 -18.5 78t-53.5 25q-6 1 -6 4.5t6 3.5q39 -3 58 -3h286q58 0 94.5 4t41.5 5q18 3 29 3q9 0 13.5 -5t5.5 -19q4 -101 24 -252q1 -4 -1.5 -5t-4.5 3q-26 95 -43.5 135.5t-40.5 66.5q-30 34 -85 45.5t-155 11.5
q-13 0 -20 -10t-7 -27v-254q2 -27 21 -27q66 0 84 3q28 3 46 25.5t36 83.5q2 6 5 6t2 -6q-7 -39 -7 -97q0 -78 12 -147q1 -5 -2 -5.5t-5 5.5q-20 63 -40 90.5t-47 31.5q-18 2 -84 2q-19 0 -21 -28v-280q0 -52 33 -52q105 1 168.5 15.5t95.5 46.5q27 25 46.5 69.5t35.5 123.5
q1 7 4 7q2 0 3 -2t0 -6q-20 -130 -22 -249q-1 -14 -6 -19t-15 -5q-9 0 -26 3q-37 4 -68 6.5t-86 2.5h-300q-19 0 -58 -3zM473 866.5q1 -2.5 -3 -4.5q-40 -16 -61 -36t-39 -47q-14 -21 -25 -30t-31 -9q-22 0 -33.5 9.5t-25.5 30.5q-18 27 -38.5 46t-58.5 36q-4 2 -3 4.5
t5 2.5q29 -2 77 -25t76 -50q29 27 78 50.5t77 24.5q4 0 5 -2.5z" />
    <glyph glyph-name="Ecircumflex" unicode="&#xca;" horiz-adv-x="641" 
d="M39 -3q-6 0 -6 3.5t6 4.5q35 2 53.5 25t18.5 78v484q0 55 -18.5 78t-53.5 25q-6 1 -6 4.5t6 3.5q39 -3 58 -3h286q58 0 94.5 4t41.5 5q18 3 29 3q9 0 13.5 -5t5.5 -19q4 -101 24 -252q1 -4 -1.5 -5t-4.5 3q-26 95 -43.5 135.5t-40.5 66.5q-30 34 -85 45.5t-155 11.5
q-13 0 -20 -10t-7 -27v-254q2 -27 21 -27q66 0 84 3q28 3 46 25.5t36 83.5q2 6 5 6t2 -6q-7 -39 -7 -97q0 -78 12 -147q1 -5 -2 -5.5t-5 5.5q-20 63 -40 90.5t-47 31.5q-18 2 -84 2q-19 0 -21 -28v-280q0 -52 33 -52q105 1 168.5 15.5t95.5 46.5q27 25 46.5 69.5t35.5 123.5
q1 7 4 7q2 0 3 -2t0 -6q-20 -130 -22 -249q-1 -14 -6 -19t-15 -5q-9 0 -26 3q-37 4 -68 6.5t-86 2.5h-300q-19 0 -58 -3zM484 740q-1 -3 -6 -3q-30 2 -81.5 26.5t-81.5 53.5q-30 -29 -82.5 -54t-82.5 -26q-5 0 -6 3t3 5q44 17 66 38t41 50q15 22 26.5 31.5t33.5 9.5
q23 0 35 -9.5t28 -32.5q20 -28 41.5 -48.5t62.5 -38.5q4 -2 3 -5z" />
    <glyph glyph-name="uni1EC6" unicode="&#x1ec6;" horiz-adv-x="641" 
d="M39 -3q-6 0 -6 3.5t6 4.5q35 2 53.5 25t18.5 78v484q0 55 -18.5 78t-53.5 25q-6 1 -6 4.5t6 3.5q39 -3 58 -3h286q58 0 94.5 4t41.5 5q18 3 29 3q9 0 13.5 -5t5.5 -19q4 -101 24 -252q1 -4 -1.5 -5t-4.5 3q-26 95 -43.5 135.5t-40.5 66.5q-30 34 -85 45.5t-155 11.5
q-13 0 -20 -10t-7 -27v-254q2 -27 21 -27q66 0 84 3q28 3 46 25.5t36 83.5q2 6 5 6t2 -6q-7 -39 -7 -97q0 -78 12 -147q1 -5 -2 -5.5t-5 5.5q-20 63 -40 90.5t-47 31.5q-18 2 -84 2q-19 0 -21 -28v-280q0 -52 33 -52q105 1 168.5 15.5t95.5 46.5q27 25 46.5 69.5t35.5 123.5
q1 7 4 7q2 0 3 -2t0 -6q-20 -130 -22 -249q-1 -14 -6 -19t-15 -5q-9 0 -26 3q-37 4 -68 6.5t-86 2.5h-300q-19 0 -58 -3zM273 -147q-17 14 -17 34q1 24 19.5 40t48.5 16q24 0 40.5 -13.5t16.5 -33.5q0 -24 -18.5 -40.5t-48.5 -16.5q-24 0 -41 14zM484 740q-1 -3 -6 -3
q-30 2 -81.5 26.5t-81.5 53.5q-30 -29 -82.5 -54t-82.5 -26q-5 0 -6 3t3 5q44 17 66 38t41 50q15 22 26.5 31.5t33.5 9.5q23 0 35 -9.5t28 -32.5q20 -28 41.5 -48.5t62.5 -38.5q4 -2 3 -5z" />
    <glyph glyph-name="Edieresis" unicode="&#xcb;" horiz-adv-x="641" 
d="M39 -3q-6 0 -6 3.5t6 4.5q35 2 53.5 25t18.5 78v484q0 55 -18.5 78t-53.5 25q-6 1 -6 4.5t6 3.5q39 -3 58 -3h286q58 0 94.5 4t41.5 5q18 3 29 3q9 0 13.5 -5t5.5 -19q4 -101 24 -252q1 -4 -1.5 -5t-4.5 3q-26 95 -43.5 135.5t-40.5 66.5q-30 34 -85 45.5t-155 11.5
q-13 0 -20 -10t-7 -27v-254q2 -27 21 -27q66 0 84 3q28 3 46 25.5t36 83.5q2 6 5 6t2 -6q-7 -39 -7 -97q0 -78 12 -147q1 -5 -2 -5.5t-5 5.5q-20 63 -40 90.5t-47 31.5q-18 2 -84 2q-19 0 -21 -28v-280q0 -52 33 -52q105 1 168.5 15.5t95.5 46.5q27 25 46.5 69.5t35.5 123.5
q1 7 4 7q2 0 3 -2t0 -6q-20 -130 -22 -249q-1 -14 -6 -19t-15 -5q-9 0 -26 3q-37 4 -68 6.5t-86 2.5h-300q-19 0 -58 -3zM188.5 767.5q-16.5 13.5 -16.5 33.5q1 24 19.5 39.5t48.5 15.5q24 0 40.5 -14t16.5 -34q-1 -23 -19.5 -38.5t-47.5 -15.5q-25 0 -41.5 13.5z
M348.5 767.5q-16.5 13.5 -16.5 33.5q1 24 19.5 39.5t48.5 15.5q24 0 40.5 -14t16.5 -34q-1 -23 -19.5 -38.5t-47.5 -15.5q-25 0 -41.5 13.5z" />
    <glyph glyph-name="Edotaccent" unicode="&#x116;" horiz-adv-x="641" 
d="M39 -3q-6 0 -6 3.5t6 4.5q35 2 53.5 25t18.5 78v484q0 55 -18.5 78t-53.5 25q-6 1 -6 4.5t6 3.5q39 -3 58 -3h286q58 0 94.5 4t41.5 5q18 3 29 3q9 0 13.5 -5t5.5 -19q4 -101 24 -252q1 -4 -1.5 -5t-4.5 3q-26 95 -43.5 135.5t-40.5 66.5q-30 34 -85 45.5t-155 11.5
q-13 0 -20 -10t-7 -27v-254q2 -27 21 -27q66 0 84 3q28 3 46 25.5t36 83.5q2 6 5 6t2 -6q-7 -39 -7 -97q0 -78 12 -147q1 -5 -2 -5.5t-5 5.5q-20 63 -40 90.5t-47 31.5q-18 2 -84 2q-19 0 -21 -28v-280q0 -52 33 -52q105 1 168.5 15.5t95.5 46.5q27 25 46.5 69.5t35.5 123.5
q1 7 4 7q2 0 3 -2t0 -6q-20 -130 -22 -249q-1 -14 -6 -19t-15 -5q-9 0 -26 3q-37 4 -68 6.5t-86 2.5h-300q-19 0 -58 -3zM263 758q-16 13 -16 32q0 24 22 40.5t57 16.5q28 0 44.5 -13t16.5 -32q0 -24 -22.5 -40.5t-57.5 -16.5q-28 0 -44 13z" />
    <glyph glyph-name="uni1EB8" unicode="&#x1eb8;" horiz-adv-x="641" 
d="M39 -3q-6 0 -6 3.5t6 4.5q35 2 53.5 25t18.5 78v484q0 55 -18.5 78t-53.5 25q-6 1 -6 4.5t6 3.5q39 -3 58 -3h286q58 0 94.5 4t41.5 5q18 3 29 3q9 0 13.5 -5t5.5 -19q4 -101 24 -252q1 -4 -1.5 -5t-4.5 3q-26 95 -43.5 135.5t-40.5 66.5q-30 34 -85 45.5t-155 11.5
q-13 0 -20 -10t-7 -27v-254q2 -27 21 -27q66 0 84 3q28 3 46 25.5t36 83.5q2 6 5 6t2 -6q-7 -39 -7 -97q0 -78 12 -147q1 -5 -2 -5.5t-5 5.5q-20 63 -40 90.5t-47 31.5q-18 2 -84 2q-19 0 -21 -28v-280q0 -52 33 -52q105 1 168.5 15.5t95.5 46.5q27 25 46.5 69.5t35.5 123.5
q1 7 4 7q2 0 3 -2t0 -6q-20 -130 -22 -249q-1 -14 -6 -19t-15 -5q-9 0 -26 3q-37 4 -68 6.5t-86 2.5h-300q-19 0 -58 -3zM273 -147q-17 14 -17 34q1 24 19.5 40t48.5 16q24 0 40.5 -13.5t16.5 -33.5q0 -24 -18.5 -40.5t-48.5 -16.5q-24 0 -41 14z" />
    <glyph glyph-name="Egrave" unicode="&#xc8;" horiz-adv-x="641" 
d="M39 -3q-6 0 -6 3.5t6 4.5q35 2 53.5 25t18.5 78v484q0 55 -18.5 78t-53.5 25q-6 1 -6 4.5t6 3.5q39 -3 58 -3h286q58 0 94.5 4t41.5 5q18 3 29 3q9 0 13.5 -5t5.5 -19q4 -101 24 -252q1 -4 -1.5 -5t-4.5 3q-26 95 -43.5 135.5t-40.5 66.5q-30 34 -85 45.5t-155 11.5
q-13 0 -20 -10t-7 -27v-254q2 -27 21 -27q66 0 84 3q28 3 46 25.5t36 83.5q2 6 5 6t2 -6q-7 -39 -7 -97q0 -78 12 -147q1 -5 -2 -5.5t-5 5.5q-20 63 -40 90.5t-47 31.5q-18 2 -84 2q-19 0 -21 -28v-280q0 -52 33 -52q105 1 168.5 15.5t95.5 46.5q27 25 46.5 69.5t35.5 123.5
q1 7 4 7q2 0 3 -2t0 -6q-20 -130 -22 -249q-1 -14 -6 -19t-15 -5q-9 0 -26 3q-37 4 -68 6.5t-86 2.5h-300q-19 0 -58 -3zM274.5 763.5q-54.5 22.5 -100.5 49t-46 41.5q-1 8 19.5 12.5t43.5 4.5q20 0 23 -3l12 -16q20 -27 45 -49.5t78 -52.5q3 -1 3 -4q0 -4 -7 -5
q-16 0 -70.5 22.5z" />
    <glyph glyph-name="Emacron" unicode="&#x112;" horiz-adv-x="641" 
d="M39 -3q-6 0 -6 3.5t6 4.5q35 2 53.5 25t18.5 78v484q0 55 -18.5 78t-53.5 25q-6 1 -6 4.5t6 3.5q39 -3 58 -3h286q58 0 94.5 4t41.5 5q18 3 29 3q9 0 13.5 -5t5.5 -19q4 -101 24 -252q1 -4 -1.5 -5t-4.5 3q-26 95 -43.5 135.5t-40.5 66.5q-30 34 -85 45.5t-155 11.5
q-13 0 -20 -10t-7 -27v-254q2 -27 21 -27q66 0 84 3q28 3 46 25.5t36 83.5q2 6 5 6t2 -6q-7 -39 -7 -97q0 -78 12 -147q1 -5 -2 -5.5t-5 5.5q-20 63 -40 90.5t-47 31.5q-18 2 -84 2q-19 0 -21 -28v-280q0 -52 33 -52q105 1 168.5 15.5t95.5 46.5q27 25 46.5 69.5t35.5 123.5
q1 7 4 7q2 0 3 -2t0 -6q-20 -130 -22 -249q-1 -14 -6 -19t-15 -5q-9 0 -26 3q-37 4 -68 6.5t-86 2.5h-300q-19 0 -58 -3zM184 767q-4 0 -6.5 1.5t-2.5 3.5q0 5 9 5h259q9 0 9 -5q0 -2 -2.5 -3.5t-6.5 -1.5h-259z" />
    <glyph glyph-name="Eogonek" unicode="&#x118;" horiz-adv-x="641" 
d="M500 -49.5q-9 -19.5 -9 -39.5q0 -24 12.5 -36.5t33.5 -12.5q58 0 58 59q0 6 3.5 6t3.5 -6q0 -44 -29 -71.5t-79 -27.5q-36 0 -56 16t-20 45q0 59 94 112q-43 5 -115 5h-300q-19 0 -58 -3q-6 0 -6 3.5t6 4.5q35 2 53.5 25t18.5 78v484q0 55 -18.5 78t-53.5 25q-6 1 -6 4.5
t6 3.5q39 -3 58 -3h286q58 0 94.5 4t41.5 5q18 3 29 3q9 0 13.5 -5t5.5 -19q4 -101 24 -252q1 -4 -1.5 -5t-4.5 3q-26 95 -43.5 135.5t-40.5 66.5q-30 34 -85 45.5t-155 11.5q-13 0 -20 -10t-7 -27v-254q2 -27 21 -27q66 0 84 3q28 3 46 25.5t36 83.5q2 6 5 6t2 -6
q-7 -39 -7 -97q0 -78 12 -147q1 -5 -2 -5.5t-5 5.5q-20 63 -40 90.5t-47 31.5q-18 2 -84 2q-19 0 -21 -28v-280q0 -52 33 -52q105 1 168.5 15.5t95.5 46.5q27 25 46.5 69.5t35.5 123.5q1 7 4 7q2 0 3 -2t0 -6q-20 -130 -22 -249q-1 -14 -5.5 -19t-13.5 -5q-7 0 -47 5
q-23 -23 -32 -42.5z" />
    <glyph glyph-name="uni1EBC" unicode="&#x1ebc;" horiz-adv-x="641" 
d="M39 -3q-6 0 -6 3.5t6 4.5q35 2 53.5 25t18.5 78v484q0 55 -18.5 78t-53.5 25q-6 1 -6 4.5t6 3.5q39 -3 58 -3h286q58 0 94.5 4t41.5 5q18 3 29 3q9 0 13.5 -5t5.5 -19q4 -101 24 -252q1 -4 -1.5 -5t-4.5 3q-26 95 -43.5 135.5t-40.5 66.5q-30 34 -85 45.5t-155 11.5
q-13 0 -20 -10t-7 -27v-254q2 -27 21 -27q66 0 84 3q28 3 46 25.5t36 83.5q2 6 5 6t2 -6q-7 -39 -7 -97q0 -78 12 -147q1 -5 -2 -5.5t-5 5.5q-20 63 -40 90.5t-47 31.5q-18 2 -84 2q-19 0 -21 -28v-280q0 -52 33 -52q105 1 168.5 15.5t95.5 46.5q27 25 46.5 69.5t35.5 123.5
q1 7 4 7q2 0 3 -2t0 -6q-20 -130 -22 -249q-1 -14 -6 -19t-15 -5q-9 0 -26 3q-37 4 -68 6.5t-86 2.5h-300q-19 0 -58 -3zM147 740q-2 0 -3 2t0 6q16 49 42 72.5t64 23.5q29 0 64 -13l43 -16q30 -12 54 -12q42 0 64 42q3 4 6 4q5 0 2 -8q-32 -98 -106 -98q-25 0 -62 13
l-47 17q-45 17 -70 17q-19 0 -29 -10.5t-17 -33.5q-2 -6 -5 -6z" />
    <glyph glyph-name="Gbreve" unicode="&#x11e;" horiz-adv-x="712" 
d="M209.5 27.5q-78.5 43.5 -125 124t-46.5 184.5q0 106 52 192.5t139 136t187 49.5q70 0 127.5 -18t90.5 -45.5t33 -55.5q0 -8 -1 -11l-87 -241q-1 -5 -6 -5t-1 8q21 45 21 95q0 68 -38 129q-30 55 -81.5 85t-107.5 30q-218 0 -218 -212q0 -121 49 -226.5t122 -168
t138 -62.5q63 0 103.5 17.5t49.5 63.5q1 18 -6.5 58.5t-19.5 94.5q-15 30 -53.5 48t-115.5 27q-5 1 -5 5t5 3q46 -5 119 -5q81 0 138 6l10 1q14 0 14 -11q0 -5 -3.5 -16.5t-4.5 -27.5q-3 -60 -3 -142q0 -9 -2.5 -14t-8.5 -12q-109 -128 -294 -128q-92 0 -170.5 43.5z
M325 878q9 -3 9 -10q0 -38 21 -70t61 -32q44 0 62.5 32t18.5 69q0 6 4 6q5 0 5 -6q0 -50 -30 -89.5t-94 -39.5q-44 0 -72.5 20.5t-42 50.5t-13.5 60q0 6 7 9t27 3q28 0 37 -3z" />
    <glyph glyph-name="Gcaron" unicode="&#x1e6;" horiz-adv-x="712" 
d="M209.5 27.5q-78.5 43.5 -125 124t-46.5 184.5q0 106 52 192.5t139 136t187 49.5q70 0 127.5 -18t90.5 -45.5t33 -55.5q0 -8 -1 -11l-87 -241q-1 -5 -6 -5t-1 8q21 45 21 95q0 68 -38 129q-30 55 -81.5 85t-107.5 30q-218 0 -218 -212q0 -121 49 -226.5t122 -168
t138 -62.5q63 0 103.5 17.5t49.5 63.5q1 18 -6.5 58.5t-19.5 94.5q-15 30 -53.5 48t-115.5 27q-5 1 -5 5t5 3q46 -5 119 -5q81 0 138 6l10 1q14 0 14 -11q0 -5 -3.5 -16.5t-4.5 -27.5q-3 -60 -3 -142q0 -9 -2.5 -14t-8.5 -12q-109 -128 -294 -128q-92 0 -170.5 43.5z
M544 866.5q1 -2.5 -3 -4.5q-40 -16 -61 -36t-39 -47q-14 -21 -25 -30t-31 -9q-22 0 -33.5 9.5t-25.5 30.5q-18 27 -38.5 46t-58.5 36q-4 2 -3 4.5t5 2.5q29 -2 77 -25t76 -50q29 27 78 50.5t77 24.5q4 0 5 -2.5z" />
    <glyph glyph-name="Gcircumflex" unicode="&#x11c;" horiz-adv-x="712" 
d="M209.5 27.5q-78.5 43.5 -125 124t-46.5 184.5q0 106 52 192.5t139 136t187 49.5q70 0 127.5 -18t90.5 -45.5t33 -55.5q0 -8 -1 -11l-87 -241q-1 -5 -6 -5t-1 8q21 45 21 95q0 68 -38 129q-30 55 -81.5 85t-107.5 30q-218 0 -218 -212q0 -121 49 -226.5t122 -168
t138 -62.5q63 0 103.5 17.5t49.5 63.5q1 18 -6.5 58.5t-19.5 94.5q-15 30 -53.5 48t-115.5 27q-5 1 -5 5t5 3q46 -5 119 -5q81 0 138 6l10 1q14 0 14 -11q0 -5 -3.5 -16.5t-4.5 -27.5q-3 -60 -3 -142q0 -9 -2.5 -14t-8.5 -12q-109 -128 -294 -128q-92 0 -170.5 43.5z
M555 740q-1 -3 -6 -3q-30 2 -81.5 26.5t-81.5 53.5q-30 -29 -82.5 -54t-82.5 -26q-5 0 -6 3t3 5q44 17 66 38t41 50q15 22 26.5 31.5t33.5 9.5q23 0 35 -9.5t28 -32.5q20 -28 41.5 -48.5t62.5 -38.5q4 -2 3 -5z" />
    <glyph glyph-name="uni0122" unicode="&#x122;" horiz-adv-x="712" 
d="M209.5 27.5q-78.5 43.5 -125 124t-46.5 184.5q0 106 52 192.5t139 136t187 49.5q70 0 127.5 -18t90.5 -45.5t33 -55.5q0 -8 -1 -11l-87 -241q-1 -5 -6 -5t-1 8q21 45 21 95q0 68 -38 129q-30 55 -81.5 85t-107.5 30q-218 0 -218 -212q0 -121 49 -226.5t122 -168
t138 -62.5q63 0 103.5 17.5t49.5 63.5q1 18 -6.5 58.5t-19.5 94.5q-15 30 -53.5 48t-115.5 27q-5 1 -5 5t5 3q46 -5 119 -5q81 0 138 6l10 1q14 0 14 -11q0 -5 -3.5 -16.5t-4.5 -27.5q-3 -60 -3 -142q0 -9 -2.5 -14t-8.5 -12q-109 -128 -294 -128q-92 0 -170.5 43.5z
M334.5 -192.5q-0.5 2.5 3.5 4.5q52 23 52 65q0 8 -6.5 11t-20.5 5q-18 3 -27 8t-9 19q0 12 16 24t39 12q24 0 35.5 -11.5t11.5 -29.5q0 -35 -30 -66t-60 -42q-4 -2 -4.5 0.5z" />
    <glyph glyph-name="Gdotaccent" unicode="&#x120;" horiz-adv-x="712" 
d="M209.5 27.5q-78.5 43.5 -125 124t-46.5 184.5q0 106 52 192.5t139 136t187 49.5q70 0 127.5 -18t90.5 -45.5t33 -55.5q0 -8 -1 -11l-87 -241q-1 -5 -6 -5t-1 8q21 45 21 95q0 68 -38 129q-30 55 -81.5 85t-107.5 30q-218 0 -218 -212q0 -121 49 -226.5t122 -168
t138 -62.5q63 0 103.5 17.5t49.5 63.5q1 18 -6.5 58.5t-19.5 94.5q-15 30 -53.5 48t-115.5 27q-5 1 -5 5t5 3q46 -5 119 -5q81 0 138 6l10 1q14 0 14 -11q0 -5 -3.5 -16.5t-4.5 -27.5q-3 -60 -3 -142q0 -9 -2.5 -14t-8.5 -12q-109 -128 -294 -128q-92 0 -170.5 43.5z
M335 758q-16 13 -16 32q0 24 22 40.5t57 16.5q28 0 44.5 -13t16.5 -32q0 -24 -22.5 -40.5t-57.5 -16.5q-28 0 -44 13z" />
    <glyph glyph-name="uni1E20" unicode="&#x1e20;" horiz-adv-x="712" 
d="M209.5 27.5q-78.5 43.5 -125 124t-46.5 184.5q0 106 52 192.5t139 136t187 49.5q70 0 127.5 -18t90.5 -45.5t33 -55.5q0 -8 -1 -11l-87 -241q-1 -5 -6 -5t-1 8q21 45 21 95q0 68 -38 129q-30 55 -81.5 85t-107.5 30q-218 0 -218 -212q0 -121 49 -226.5t122 -168
t138 -62.5q63 0 103.5 17.5t49.5 63.5q1 18 -6.5 58.5t-19.5 94.5q-15 30 -53.5 48t-115.5 27q-5 1 -5 5t5 3q46 -5 119 -5q81 0 138 6l10 1q14 0 14 -11q0 -5 -3.5 -16.5t-4.5 -27.5q-3 -60 -3 -142q0 -9 -2.5 -14t-8.5 -12q-109 -128 -294 -128q-92 0 -170.5 43.5z
M255 767q-4 0 -6.5 1.5t-2.5 3.5q0 5 9 5h259q9 0 9 -5q0 -2 -2.5 -3.5t-6.5 -1.5h-259z" />
    <glyph glyph-name="Hbar" unicode="&#x126;" horiz-adv-x="808" 
d="M775 0.5q0 -3.5 -6 -3.5q-39 3 -58 3h-152q-19 0 -58 -3q-5 0 -5.5 3.5t5.5 4.5q35 2 53.5 25t18.5 78v266q0 15 -8 15q-5 0 -8 -2q-75 -33 -153.5 -52t-152.5 -24q-10 -1 -13 -7t-3 -17v-179q0 -55 18.5 -78t53.5 -25q6 -1 6 -4.5t-6 -3.5q-39 3 -58 3h-152
q-19 0 -58 -3q-6 0 -6 3.5t6 4.5q35 2 53.5 25t18.5 78v401h-54q-5 0 -5 3.5t5 3.5h54v76q0 55 -18.5 78t-53.5 25q-6 1 -6 4.5t6 3.5q39 -3 58 -3h152q19 0 58 3q6 0 6 -3.5t-6 -4.5q-35 -2 -53.5 -25t-18.5 -78v-76h338v76q0 55 -18.5 78t-53.5 25q-6 1 -5.5 4.5t5.5 3.5
q39 -3 58 -3h152q19 0 58 3q6 0 6 -3.5t-6 -4.5q-35 -2 -53.5 -25t-18.5 -78v-76h50q5 0 5 -3.5t-5 -3.5h-50v-401q0 -55 18.5 -78t53.5 -25q6 -1 6 -4.5zM569.5 405.5q3.5 5.5 3.5 15.5v88h-338v-179q3 -12 15 -11q74 4 153 23.5t152 52.5q11 5 14.5 10.5z" />
    <glyph glyph-name="uni1E2A" unicode="&#x1e2a;" horiz-adv-x="808" 
d="M775 0.5q0 -3.5 -6 -3.5q-39 3 -58 3h-152q-19 0 -58 -3q-5 0 -5.5 3.5t5.5 4.5q35 2 53.5 25t18.5 78v266q0 15 -8 15q-5 0 -8 -2q-75 -33 -153.5 -52t-152.5 -24q-10 -1 -13 -7t-3 -17v-179q0 -55 18.5 -78t53.5 -25q6 -1 6 -4.5t-6 -3.5q-39 3 -58 3h-152
q-19 0 -58 -3q-6 0 -6 3.5t6 4.5q35 2 53.5 25t18.5 78v484q0 55 -18.5 78t-53.5 25q-6 1 -6 4.5t6 3.5q39 -3 58 -3h152q19 0 58 3q6 0 6 -3.5t-6 -4.5q-35 -2 -53.5 -25t-18.5 -78v-262q3 -12 15 -11q74 4 153 23.5t152 52.5q11 5 14.5 10.5t3.5 15.5v171q0 55 -18.5 78
t-53.5 25q-6 1 -5.5 4.5t5.5 3.5q39 -3 58 -3h152q19 0 58 3q6 0 6 -3.5t-6 -4.5q-35 -2 -53.5 -25t-18.5 -78v-484q0 -55 18.5 -78t53.5 -25q6 -1 6 -4.5zM342 -58q9 -3 9 -10q0 -38 21 -70t61 -32q44 0 62.5 32t18.5 69q0 6 4 6q5 0 5 -6q0 -50 -30 -89.5t-94 -39.5
q-44 0 -72.5 20.5t-42 50.5t-13.5 60q0 6 7 9t27 3q28 0 37 -3z" />
    <glyph glyph-name="Hcircumflex" unicode="&#x124;" horiz-adv-x="808" 
d="M775 0.5q0 -3.5 -6 -3.5q-39 3 -58 3h-152q-19 0 -58 -3q-5 0 -5.5 3.5t5.5 4.5q35 2 53.5 25t18.5 78v266q0 15 -8 15q-5 0 -8 -2q-75 -33 -153.5 -52t-152.5 -24q-10 -1 -13 -7t-3 -17v-179q0 -55 18.5 -78t53.5 -25q6 -1 6 -4.5t-6 -3.5q-39 3 -58 3h-152
q-19 0 -58 -3q-6 0 -6 3.5t6 4.5q35 2 53.5 25t18.5 78v484q0 55 -18.5 78t-53.5 25q-6 1 -6 4.5t6 3.5q39 -3 58 -3h152q19 0 58 3q6 0 6 -3.5t-6 -4.5q-35 -2 -53.5 -25t-18.5 -78v-262q3 -12 15 -11q74 4 153 23.5t152 52.5q11 5 14.5 10.5t3.5 15.5v171q0 55 -18.5 78
t-53.5 25q-6 1 -5.5 4.5t5.5 3.5q39 -3 58 -3h152q19 0 58 3q6 0 6 -3.5t-6 -4.5q-35 -2 -53.5 -25t-18.5 -78v-484q0 -55 18.5 -78t53.5 -25q6 -1 6 -4.5zM574 740q-1 -3 -6 -3q-30 2 -81.5 26.5t-81.5 53.5q-30 -29 -82.5 -54t-82.5 -26q-5 0 -6 3t3 5q44 17 66 38t41 50
q15 22 26.5 31.5t33.5 9.5q23 0 35 -9.5t28 -32.5q20 -28 41.5 -48.5t62.5 -38.5q4 -2 3 -5z" />
    <glyph glyph-name="uni1E24" unicode="&#x1e24;" horiz-adv-x="808" 
d="M775 0.5q0 -3.5 -6 -3.5q-39 3 -58 3h-152q-19 0 -58 -3q-5 0 -5.5 3.5t5.5 4.5q35 2 53.5 25t18.5 78v266q0 15 -8 15q-5 0 -8 -2q-75 -33 -153.5 -52t-152.5 -24q-10 -1 -13 -7t-3 -17v-179q0 -55 18.5 -78t53.5 -25q6 -1 6 -4.5t-6 -3.5q-39 3 -58 3h-152
q-19 0 -58 -3q-6 0 -6 3.5t6 4.5q35 2 53.5 25t18.5 78v484q0 55 -18.5 78t-53.5 25q-6 1 -6 4.5t6 3.5q39 -3 58 -3h152q19 0 58 3q6 0 6 -3.5t-6 -4.5q-35 -2 -53.5 -25t-18.5 -78v-262q3 -12 15 -11q74 4 153 23.5t152 52.5q11 5 14.5 10.5t3.5 15.5v171q0 55 -18.5 78
t-53.5 25q-6 1 -5.5 4.5t5.5 3.5q39 -3 58 -3h152q19 0 58 3q6 0 6 -3.5t-6 -4.5q-35 -2 -53.5 -25t-18.5 -78v-484q0 -55 18.5 -78t53.5 -25q6 -1 6 -4.5zM361 -147q-17 14 -17 34q1 24 19.5 40t48.5 16q24 0 40.5 -13.5t16.5 -33.5q0 -24 -18.5 -40.5t-48.5 -16.5
q-24 0 -41 14z" />
    <glyph glyph-name="IJ" unicode="&#x132;" horiz-adv-x="917" 
d="M92.5 670q-18.5 23 -53.5 25q-6 1 -6 4.5t6 3.5q39 -3 58 -3h152q19 0 58 3q6 0 6 -3.5t-6 -4.5q-35 -2 -53.5 -25t-18.5 -78v-484q0 -55 18.5 -78t53.5 -25q6 -1 6 -4.5t-6 -3.5q-39 3 -58 3h-152q-19 0 -58 -3q-6 0 -6 3.5t6 4.5q35 2 53.5 25t18.5 78v484
q0 55 -18.5 78zM464.5 6.5q-47.5 22.5 -71.5 59.5t-24 79q0 61 47.5 92t109.5 36q5 1 5.5 -2.5t-4.5 -4.5q-29 -10 -43 -29t-14 -56q0 -39 15.5 -81t47 -70.5t76.5 -28.5q60 0 83.5 35t23.5 113q0 21 -4.5 51.5t-9.5 61.5q-8 49 -12.5 82t-4.5 64v184q0 55 -18.5 78
t-53.5 25q-7 1 -6.5 4.5t6.5 3.5q39 -3 58 -3h152q19 0 58 3q5 0 5.5 -3.5t-5.5 -4.5q-35 -2 -53.5 -25t-18.5 -78v-344q0 -130 -62 -197t-168 -67q-67 0 -114.5 22.5z" />
    <glyph glyph-name="Iacute" unicode="&#xcd;" horiz-adv-x="346" 
d="M92.5 670q-18.5 23 -53.5 25q-6 1 -6 4.5t6 3.5q39 -3 58 -3h152q19 0 58 3q6 0 6 -3.5t-6 -4.5q-35 -2 -53.5 -25t-18.5 -78v-484q0 -55 18.5 -78t53.5 -25q6 -1 6 -4.5t-6 -3.5q-39 3 -58 3h-152q-19 0 -58 -3q-6 0 -6 3.5t6 4.5q35 2 53.5 25t18.5 78v484
q0 55 -18.5 78zM84.5 745q-1.5 3 3.5 5q53 30 78 52.5t45 49.5l12 16q3 3 23 3q23 0 43.5 -4.5t19.5 -12.5q0 -15 -46 -41.5t-100.5 -49t-70.5 -22.5q-6 1 -7.5 4z" />
    <glyph glyph-name="Ibreve" unicode="&#x12c;" horiz-adv-x="346" 
d="M92.5 670q-18.5 23 -53.5 25q-6 1 -6 4.5t6 3.5q39 -3 58 -3h152q19 0 58 3q6 0 6 -3.5t-6 -4.5q-35 -2 -53.5 -25t-18.5 -78v-484q0 -55 18.5 -78t53.5 -25q6 -1 6 -4.5t-6 -3.5q-39 3 -58 3h-152q-19 0 -58 -3q-6 0 -6 3.5t6 4.5q35 2 53.5 25t18.5 78v484
q0 55 -18.5 78zM116 878q9 -3 9 -10q0 -38 21 -70t61 -32q44 0 62.5 32t18.5 69q0 6 4 6q5 0 5 -6q0 -50 -30 -89.5t-94 -39.5q-44 0 -72.5 20.5t-42 50.5t-13.5 60q0 6 7 9t27 3q28 0 37 -3z" />
    <glyph glyph-name="uni01CF" unicode="&#x1cf;" horiz-adv-x="346" 
d="M92.5 670q-18.5 23 -53.5 25q-6 1 -6 4.5t6 3.5q39 -3 58 -3h152q19 0 58 3q6 0 6 -3.5t-6 -4.5q-35 -2 -53.5 -25t-18.5 -78v-484q0 -55 18.5 -78t53.5 -25q6 -1 6 -4.5t-6 -3.5q-39 3 -58 3h-152q-19 0 -58 -3q-6 0 -6 3.5t6 4.5q35 2 53.5 25t18.5 78v484
q0 55 -18.5 78zM334 866.5q1 -2.5 -3 -4.5q-40 -16 -61 -36t-39 -47q-14 -21 -25 -30t-31 -9q-22 0 -33.5 9.5t-25.5 30.5q-18 27 -38.5 46t-58.5 36q-4 2 -3 4.5t5 2.5q29 -2 77 -25t76 -50q29 27 78 50.5t77 24.5q4 0 5 -2.5z" />
    <glyph glyph-name="Icircumflex" unicode="&#xce;" horiz-adv-x="346" 
d="M92.5 670q-18.5 23 -53.5 25q-6 1 -6 4.5t6 3.5q39 -3 58 -3h152q19 0 58 3q6 0 6 -3.5t-6 -4.5q-35 -2 -53.5 -25t-18.5 -78v-484q0 -55 18.5 -78t53.5 -25q6 -1 6 -4.5t-6 -3.5q-39 3 -58 3h-152q-19 0 -58 -3q-6 0 -6 3.5t6 4.5q35 2 53.5 25t18.5 78v484
q0 55 -18.5 78zM346 740q-1 -3 -6 -3q-30 2 -81.5 26.5t-81.5 53.5q-30 -29 -82.5 -54t-82.5 -26q-5 0 -6 3t3 5q44 17 66 38t41 50q15 22 26.5 31.5t33.5 9.5q23 0 35 -9.5t28 -32.5q20 -28 41.5 -48.5t62.5 -38.5q4 -2 3 -5z" />
    <glyph glyph-name="Idieresis" unicode="&#xcf;" horiz-adv-x="346" 
d="M92.5 670q-18.5 23 -53.5 25q-6 1 -6 4.5t6 3.5q39 -3 58 -3h152q19 0 58 3q6 0 6 -3.5t-6 -4.5q-35 -2 -53.5 -25t-18.5 -78v-484q0 -55 18.5 -78t53.5 -25q6 -1 6 -4.5t-6 -3.5q-39 3 -58 3h-152q-19 0 -58 -3q-6 0 -6 3.5t6 4.5q35 2 53.5 25t18.5 78v484
q0 55 -18.5 78zM50.5 767.5q-16.5 13.5 -16.5 33.5q1 24 19.5 39.5t48.5 15.5q24 0 40.5 -14t16.5 -34q-1 -23 -19.5 -38.5t-47.5 -15.5q-25 0 -41.5 13.5zM210.5 767.5q-16.5 13.5 -16.5 33.5q1 24 19.5 39.5t48.5 15.5q24 0 40.5 -14t16.5 -34q-1 -23 -19.5 -38.5
t-47.5 -15.5q-25 0 -41.5 13.5z" />
    <glyph glyph-name="Idotaccent" unicode="&#x130;" horiz-adv-x="346" 
d="M92.5 670q-18.5 23 -53.5 25q-6 1 -6 4.5t6 3.5q39 -3 58 -3h152q19 0 58 3q6 0 6 -3.5t-6 -4.5q-35 -2 -53.5 -25t-18.5 -78v-484q0 -55 18.5 -78t53.5 -25q6 -1 6 -4.5t-6 -3.5q-39 3 -58 3h-152q-19 0 -58 -3q-6 0 -6 3.5t6 4.5q35 2 53.5 25t18.5 78v484
q0 55 -18.5 78zM125 758q-16 13 -16 32q0 24 22 40.5t57 16.5q28 0 44.5 -13t16.5 -32q0 -24 -22.5 -40.5t-57.5 -16.5q-28 0 -44 13z" />
    <glyph glyph-name="uni1ECA" unicode="&#x1eca;" horiz-adv-x="346" 
d="M92.5 670q-18.5 23 -53.5 25q-6 1 -6 4.5t6 3.5q39 -3 58 -3h152q19 0 58 3q6 0 6 -3.5t-6 -4.5q-35 -2 -53.5 -25t-18.5 -78v-484q0 -55 18.5 -78t53.5 -25q6 -1 6 -4.5t-6 -3.5q-39 3 -58 3h-152q-19 0 -58 -3q-6 0 -6 3.5t6 4.5q35 2 53.5 25t18.5 78v484
q0 55 -18.5 78zM135 -147q-17 14 -17 34q1 24 19.5 40t48.5 16q24 0 40.5 -13.5t16.5 -33.5q0 -24 -18.5 -40.5t-48.5 -16.5q-24 0 -41 14z" />
    <glyph glyph-name="Igrave" unicode="&#xcc;" horiz-adv-x="346" 
d="M92.5 670q-18.5 23 -53.5 25q-6 1 -6 4.5t6 3.5q39 -3 58 -3h152q19 0 58 3q6 0 6 -3.5t-6 -4.5q-35 -2 -53.5 -25t-18.5 -78v-484q0 -55 18.5 -78t53.5 -25q6 -1 6 -4.5t-6 -3.5q-39 3 -58 3h-152q-19 0 -58 -3q-6 0 -6 3.5t6 4.5q35 2 53.5 25t18.5 78v484
q0 55 -18.5 78zM136.5 763.5q-54.5 22.5 -100.5 49t-46 41.5q-1 8 19.5 12.5t43.5 4.5q20 0 23 -3l12 -16q20 -27 45 -49.5t78 -52.5q3 -1 3 -4q0 -4 -7 -5q-16 0 -70.5 22.5z" />
    <glyph glyph-name="Imacron" unicode="&#x12a;" horiz-adv-x="346" 
d="M92.5 670q-18.5 23 -53.5 25q-6 1 -6 4.5t6 3.5q39 -3 58 -3h152q19 0 58 3q6 0 6 -3.5t-6 -4.5q-35 -2 -53.5 -25t-18.5 -78v-484q0 -55 18.5 -78t53.5 -25q6 -1 6 -4.5t-6 -3.5q-39 3 -58 3h-152q-19 0 -58 -3q-6 0 -6 3.5t6 4.5q35 2 53.5 25t18.5 78v484
q0 55 -18.5 78zM46 767q-4 0 -6.5 1.5t-2.5 3.5q0 5 9 5h259q9 0 9 -5q0 -2 -2.5 -3.5t-6.5 -1.5h-259z" />
    <glyph glyph-name="Iogonek" unicode="&#x12e;" horiz-adv-x="346" 
d="M313 0.5q0 -3.5 -6 -3.5q-39 3 -58 3h-54q-34 -29 -46.5 -52.5t-12.5 -46.5q0 -24 12.5 -36.5t33.5 -12.5q58 0 58 59q0 6 3.5 6t3.5 -6q0 -44 -29 -71.5t-79 -27.5q-36 0 -56 16t-20 45q0 38 33 68.5t89 58.5h-88q-19 0 -58 -3q-6 0 -6 3.5t6 4.5q35 2 53.5 25t18.5 78
v484q0 55 -18.5 78t-53.5 25q-6 1 -6 4.5t6 3.5q39 -3 58 -3h152q19 0 58 3q6 0 6 -3.5t-6 -4.5q-35 -2 -53.5 -25t-18.5 -78v-484q0 -55 18.5 -78t53.5 -25q6 -1 6 -4.5z" />
    <glyph glyph-name="Itilde" unicode="&#x128;" horiz-adv-x="346" 
d="M92.5 670q-18.5 23 -53.5 25q-6 1 -6 4.5t6 3.5q39 -3 58 -3h152q19 0 58 3q6 0 6 -3.5t-6 -4.5q-35 -2 -53.5 -25t-18.5 -78v-484q0 -55 18.5 -78t53.5 -25q6 -1 6 -4.5t-6 -3.5q-39 3 -58 3h-152q-19 0 -58 -3q-6 0 -6 3.5t6 4.5q35 2 53.5 25t18.5 78v484
q0 55 -18.5 78zM9 740q-2 0 -3 2t0 6q16 49 42 72.5t64 23.5q29 0 64 -13l43 -16q30 -12 54 -12q42 0 64 42q3 4 6 4q5 0 2 -8q-32 -98 -106 -98q-25 0 -62 13l-47 17q-45 17 -70 17q-19 0 -29 -10.5t-17 -33.5q-2 -6 -5 -6z" />
    <glyph glyph-name="Jcircumflex" unicode="&#x134;" horiz-adv-x="571" 
d="M118.5 6.5q-47.5 22.5 -71.5 59.5t-24 79q0 61 47.5 92t109.5 36q5 1 5.5 -2.5t-4.5 -4.5q-29 -10 -43 -29t-14 -56q0 -39 15.5 -81t47 -70.5t76.5 -28.5q60 0 83.5 35t23.5 113q0 21 -4.5 51.5t-9.5 61.5q-8 49 -12.5 82t-4.5 64v184q0 55 -18.5 78t-53.5 25
q-7 1 -6.5 4.5t6.5 3.5q39 -3 58 -3h152q19 0 58 3q5 0 5.5 -3.5t-5.5 -4.5q-35 -2 -53.5 -25t-18.5 -78v-344q0 -130 -62 -197t-168 -67q-67 0 -114.5 22.5zM450 740q-1 -3 -6 -3q-30 2 -81.5 26.5t-81.5 53.5q-30 -29 -82.5 -54t-82.5 -26q-5 0 -6 3t3 5q44 17 66 38
t41 50q15 22 26.5 31.5t33.5 9.5q23 0 35 -9.5t28 -32.5q20 -28 41.5 -48.5t62.5 -38.5q4 -2 3 -5z" />
    <glyph glyph-name="uni0136" unicode="&#x136;" horiz-adv-x="691" 
d="M740 -69q-1 -3 -7 -1q-130 47 -238 164t-176 275l-84 -98v-163q0 -55 18.5 -78t53.5 -25q6 -1 6 -4.5t-6 -3.5q-39 3 -58 3h-152q-19 0 -58 -3q-6 0 -6 3.5t6 4.5q35 2 53.5 25t18.5 78v484q0 55 -18.5 78t-53.5 25q-6 1 -6 4.5t6 3.5q39 -3 58 -3h152q19 0 58 3
q6 0 6 -3.5t-6 -4.5q-35 -2 -53.5 -25t-18.5 -78v-311l80 95l-3 8q3 0 11 2l187 222q24 30 24 50q0 17 -14.5 26.5t-36.5 10.5q-6 1 -5.5 4.5t5.5 3.5q39 -3 56 -3h45q22 0 73 3q7 0 7 -4t-7 -4q-38 -1 -66 -20.5t-68 -66.5l-188 -221q49 10 99 28q2 1 5 1q6 0 8 -5
q23 -94 71 -194t106.5 -176.5t111.5 -104.5q5 -2 4 -5zM319.5 -224.5q-0.5 2.5 3.5 4.5q60 29 60 77q0 9 -8 12.5t-23 5.5q-20 3 -31 9t-11 23q0 15 18.5 28.5t44.5 13.5q29 0 42.5 -13.5t13.5 -34.5q0 -28 -17 -54.5t-42 -45.5t-46 -26q-4 -2 -4.5 0.5z" />
    <glyph glyph-name="Lacute" unicode="&#x139;" horiz-adv-x="614" 
d="M39 -3q-6 0 -6 3.5t6 4.5q35 2 53.5 25t18.5 78v484q0 55 -18.5 78t-53.5 25q-6 1 -6 4.5t6 3.5q39 -3 58 -3h154q21 0 63 3q7 0 7.5 -3.5t-6.5 -4.5q-39 -2 -60 -25t-21 -78v-542q0 -25 8 -34t26 -9q86 0 148 22.5t97 62.5q27 33 44 82.5t28 122.5q1 6 5 5t3 -6
q-9 -68 -14.5 -143t-5.5 -128q0 -22 -2 -29.5t-11 -7.5l-22 2q-113 10 -203 10h-238q-19 0 -58 -3zM207.5 745q-1.5 3 3.5 5q53 30 78 52.5t45 49.5l12 16q3 3 23 3q23 0 43.5 -4.5t19.5 -12.5q0 -15 -46 -41.5t-100.5 -49t-70.5 -22.5q-6 1 -7.5 4z" />
    <glyph glyph-name="Lcaron" unicode="&#x13d;" horiz-adv-x="614" 
d="M39 -3q-6 0 -6 3.5t6 4.5q35 2 53.5 25t18.5 78v484q0 55 -18.5 78t-53.5 25q-6 1 -6 4.5t6 3.5q39 -3 58 -3h154q21 0 63 3q7 0 7.5 -3.5t-6.5 -4.5q-39 -2 -60 -25t-21 -78v-542q0 -25 8 -34t26 -9q86 0 148 22.5t97 62.5q27 33 44 82.5t28 122.5q1 6 5 5t3 -6
q-9 -68 -14.5 -143t-5.5 -128q0 -22 -2 -29.5t-11 -7.5l-22 2q-113 10 -203 10h-238q-19 0 -58 -3zM560 497q-4 0 -4 4q-2 44 -9 71t-18 55q-4 11 -7.5 21.5t-3.5 19.5q0 19 8 25.5t34 6.5t34.5 -7t8.5 -26q0 -9 -3.5 -19.5t-7.5 -21.5q-11 -26 -18 -53.5t-9 -71.5
q-1 -4 -5 -4z" />
    <glyph glyph-name="uni013B" unicode="&#x13b;" horiz-adv-x="614" 
d="M39 -3q-6 0 -6 3.5t6 4.5q35 2 53.5 25t18.5 78v484q0 55 -18.5 78t-53.5 25q-6 1 -6 4.5t6 3.5q39 -3 58 -3h154q21 0 63 3q7 0 7.5 -3.5t-6.5 -4.5q-39 -2 -60 -25t-21 -78v-542q0 -25 8 -34t26 -9q86 0 148 22.5t97 62.5q27 33 44 82.5t28 122.5q1 6 5 5t3 -6
q-9 -68 -14.5 -143t-5.5 -128q0 -22 -2 -29.5t-11 -7.5l-22 2q-113 10 -203 10h-238q-19 0 -58 -3zM241.5 -224.5q-0.5 2.5 3.5 4.5q60 29 60 77q0 9 -8 12.5t-23 5.5q-20 3 -31 9t-11 23q0 15 18.5 28.5t44.5 13.5q29 0 42.5 -13.5t13.5 -34.5q0 -28 -17 -54.5t-42 -45.5
t-46 -26q-4 -2 -4.5 0.5z" />
    <glyph glyph-name="Ldot" unicode="&#x13f;" horiz-adv-x="593" 
d="M39 -3q-6 0 -6 3.5t6 4.5q35 2 53.5 25t18.5 78v484q0 55 -18.5 78t-53.5 25q-6 1 -6 4.5t6 3.5q39 -3 58 -3h154q21 0 63 3q7 0 7.5 -3.5t-6.5 -4.5q-39 -2 -60 -25t-21 -78v-542q0 -25 8 -34t26 -9q86 0 148 22.5t97 62.5q27 33 44 82.5t28 122.5q1 6 5 5t3 -6
q-9 -68 -14.5 -143t-5.5 -128q0 -22 -2 -29.5t-11 -7.5l-22 2q-113 10 -203 10h-238q-19 0 -58 -3zM429.5 376q-17.5 12 -17.5 30q0 24 25.5 41.5t64.5 17.5q29 0 47 -12t18 -30q0 -23 -26 -41t-65 -18q-29 0 -46.5 12z" />
    <glyph glyph-name="uni1E36" unicode="&#x1e36;" horiz-adv-x="614" 
d="M39 -3q-6 0 -6 3.5t6 4.5q35 2 53.5 25t18.5 78v484q0 55 -18.5 78t-53.5 25q-6 1 -6 4.5t6 3.5q39 -3 58 -3h154q21 0 63 3q7 0 7.5 -3.5t-6.5 -4.5q-39 -2 -60 -25t-21 -78v-542q0 -25 8 -34t26 -9q86 0 148 22.5t97 62.5q27 33 44 82.5t28 122.5q1 6 5 5t3 -6
q-9 -68 -14.5 -143t-5.5 -128q0 -22 -2 -29.5t-11 -7.5l-22 2q-113 10 -203 10h-238q-19 0 -58 -3zM259 -147q-17 14 -17 34q1 24 19.5 40t48.5 16q24 0 40.5 -13.5t16.5 -33.5q0 -24 -18.5 -40.5t-48.5 -16.5q-24 0 -41 14z" />
    <glyph glyph-name="uni1E38" unicode="&#x1e38;" horiz-adv-x="614" 
d="M39 -3q-6 0 -6 3.5t6 4.5q35 2 53.5 25t18.5 78v484q0 55 -18.5 78t-53.5 25q-6 1 -6 4.5t6 3.5q39 -3 58 -3h154q21 0 63 3q7 0 7.5 -3.5t-6.5 -4.5q-39 -2 -60 -25t-21 -78v-542q0 -25 8 -34t26 -9q86 0 148 22.5t97 62.5q27 33 44 82.5t28 122.5q1 6 5 5t3 -6
q-9 -68 -14.5 -143t-5.5 -128q0 -22 -2 -29.5t-11 -7.5l-22 2q-113 10 -203 10h-238q-19 0 -58 -3zM259 -147q-17 14 -17 34q1 24 19.5 40t48.5 16q24 0 40.5 -13.5t16.5 -33.5q0 -24 -18.5 -40.5t-48.5 -16.5q-24 0 -41 14zM170 767q-4 0 -6.5 1.5t-2.5 3.5q0 5 9 5h259
q9 0 9 -5q0 -2 -2.5 -3.5t-6.5 -1.5h-259z" />
    <glyph glyph-name="uni1E3A" unicode="&#x1e3a;" horiz-adv-x="614" 
d="M39 -3q-6 0 -6 3.5t6 4.5q35 2 53.5 25t18.5 78v484q0 55 -18.5 78t-53.5 25q-6 1 -6 4.5t6 3.5q39 -3 58 -3h154q21 0 63 3q7 0 7.5 -3.5t-6.5 -4.5q-39 -2 -60 -25t-21 -78v-542q0 -25 8 -34t26 -9q86 0 148 22.5t97 62.5q27 33 44 82.5t28 122.5q1 6 5 5t3 -6
q-9 -68 -14.5 -143t-5.5 -128q0 -22 -2 -29.5t-11 -7.5l-22 2q-113 10 -203 10h-238q-19 0 -58 -3zM169 -114q-4 0 -6.5 1.5t-2.5 3.5q0 5 9 5h259q9 0 9 -5q0 -2 -2.5 -3.5t-6.5 -1.5h-259z" />
    <glyph glyph-name="Lslash" unicode="&#x141;" horiz-adv-x="614" 
d="M590 302q4 -1 3 -6q-9 -68 -14.5 -143t-5.5 -128q0 -22 -2 -29.5t-11 -7.5l-22 2q-113 10 -203 10h-238q-19 0 -58 -3q-6 0 -6 3.5t6 4.5q35 2 53.5 25t18.5 78v200l-79 -48q-4 -2 -6 -2q-4 0 -4.5 3.5t3.5 5.5l86 52v273q0 55 -18.5 78t-53.5 25q-6 1 -6 4.5t6 3.5
q39 -3 58 -3h154q21 0 63 3q7 0 7.5 -3.5t-6.5 -4.5q-39 -2 -60 -25t-21 -78v-198l72 44q2 2 6 2q5 0 5.5 -3t-4.5 -6l-79 -48v-333q0 -25 8 -34t26 -9q86 0 148 22.5t97 62.5q27 33 44 82.5t28 122.5q1 6 5 5z" />
    <glyph glyph-name="uni1E42" unicode="&#x1e42;" horiz-adv-x="895" 
d="M883.5 0.5q-0.5 -3.5 -5.5 -3.5q-39 3 -58 3h-158q-23 0 -74 -3q-8 0 -8 4t8 4q41 2 64 20.5t23 62.5q0 12 -1 19l-50 494q-1 5 -5 5q-3 0 -6 -6l-216 -561q-2 -5 -4.5 -8t-6.5 -3q-7 0 -11 10l-214 554q-3 7 -7 7q-2 0 -4 -6l-46 -485q-1 -7 -1 -19q0 -44 23.5 -63
t64.5 -21q8 0 8 -4t-8 -4q-51 3 -75 3h-42q-16 0 -58 -3q-5 0 -5.5 3.5t5.5 4.5q34 2 53.5 24.5t25.5 77.5l51 517q-18 38 -38 53.5t-48 17.5q-6 1 -6 4.5t6 3.5q39 -3 58 -3h113q14 0 18 -11l187 -484q2 -5 4 -5q4 0 5 5l194 487q3 8 10 8h108q18 0 60 3q6 0 6.5 -3.5
t-6.5 -4.5q-70 -3 -70 -80q0 -14 1 -22l51 -486q6 -55 25.5 -77.5t53.5 -24.5q6 -1 5.5 -4.5zM352 -147q-17 14 -17 34q1 24 19.5 40t48.5 16q24 0 40.5 -13.5t16.5 -33.5q0 -24 -18.5 -40.5t-48.5 -16.5q-24 0 -41 14z" />
    <glyph glyph-name="Nacute" unicode="&#x143;" horiz-adv-x="758" 
d="M740.5 699.5q0.5 -3.5 -5.5 -4.5q-35 -2 -53.5 -25t-18.5 -78v-595q0 -7 -6 -7q-5 0 -10 7l-504 631q-4 4 -7 4q-4 0 -4 -6v-519q0 -55 19 -78t54 -25q6 0 5.5 -3.5t-5.5 -3.5l-58 3h-39l-57 -3q-6 0 -6.5 3.5t5.5 3.5q35 2 54 25t19 78v546q-21 22 -37.5 32t-38.5 11
q-6 0 -5.5 3.5t5.5 3.5l58 -3h114q23 0 32 -13l390 -502q4 -6 8 -6q5 0 5 7l-1 406q0 55 -19 78t-54 25q-6 1 -5.5 4.5t6.5 3.5q39 -3 57 -3h39q16 0 58 3q5 0 5.5 -3.5zM162 609l-35 39zM314.5 745q-1.5 3 3.5 5q53 30 78 52.5t45 49.5l12 16q3 3 23 3q23 0 43.5 -4.5
t19.5 -12.5q0 -15 -46 -41.5t-100.5 -49t-70.5 -22.5q-6 1 -7.5 4z" />
    <glyph glyph-name="Ncaron" unicode="&#x147;" horiz-adv-x="758" 
d="M740.5 699.5q0.5 -3.5 -5.5 -4.5q-35 -2 -53.5 -25t-18.5 -78v-595q0 -7 -6 -7q-5 0 -10 7l-504 631q-4 4 -7 4q-4 0 -4 -6v-519q0 -55 19 -78t54 -25q6 0 5.5 -3.5t-5.5 -3.5l-58 3h-39l-57 -3q-6 0 -6.5 3.5t5.5 3.5q35 2 54 25t19 78v546q-21 22 -37.5 32t-38.5 11
q-6 0 -5.5 3.5t5.5 3.5l58 -3h114q23 0 32 -13l390 -502q4 -6 8 -6q5 0 5 7l-1 406q0 55 -19 78t-54 25q-6 1 -5.5 4.5t6.5 3.5q39 -3 57 -3h39q16 0 58 3q5 0 5.5 -3.5zM162 609l-35 39zM565 866.5q1 -2.5 -3 -4.5q-40 -16 -61 -36t-39 -47q-14 -21 -25 -30t-31 -9
q-22 0 -33.5 9.5t-25.5 30.5q-18 27 -38.5 46t-58.5 36q-4 2 -3 4.5t5 2.5q29 -2 77 -25t76 -50q29 27 78 50.5t77 24.5q4 0 5 -2.5z" />
    <glyph glyph-name="uni0145" unicode="&#x145;" horiz-adv-x="758" 
d="M740.5 699.5q0.5 -3.5 -5.5 -4.5q-35 -2 -53.5 -25t-18.5 -78v-595q0 -7 -6 -7q-5 0 -10 7l-504 631q-4 4 -7 4q-4 0 -4 -6v-519q0 -55 19 -78t54 -25q6 0 5.5 -3.5t-5.5 -3.5l-58 3h-39l-57 -3q-6 0 -6.5 3.5t5.5 3.5q35 2 54 25t19 78v546q-21 22 -37.5 32t-38.5 11
q-6 0 -5.5 3.5t5.5 3.5l58 -3h114q23 0 32 -13l390 -502q4 -6 8 -6q5 0 5 7l-1 406q0 55 -19 78t-54 25q-6 1 -5.5 4.5t6.5 3.5q39 -3 57 -3h39q16 0 58 3q5 0 5.5 -3.5zM162 609l-35 39zM328.5 -224.5q-0.5 2.5 3.5 4.5q60 29 60 77q0 9 -8 12.5t-23 5.5q-20 3 -31 9
t-11 23q0 15 18.5 28.5t44.5 13.5q29 0 42.5 -13.5t13.5 -34.5q0 -28 -17 -54.5t-42 -45.5t-46 -26q-4 -2 -4.5 0.5z" />
    <glyph glyph-name="uni1E44" unicode="&#x1e44;" horiz-adv-x="758" 
d="M740.5 699.5q0.5 -3.5 -5.5 -4.5q-35 -2 -53.5 -25t-18.5 -78v-595q0 -7 -6 -7q-5 0 -10 7l-504 631q-4 4 -7 4q-4 0 -4 -6v-519q0 -55 19 -78t54 -25q6 0 5.5 -3.5t-5.5 -3.5l-58 3h-39l-57 -3q-6 0 -6.5 3.5t5.5 3.5q35 2 54 25t19 78v546q-21 22 -37.5 32t-38.5 11
q-6 0 -5.5 3.5t5.5 3.5l58 -3h114q23 0 32 -13l390 -502q4 -6 8 -6q5 0 5 7l-1 406q0 55 -19 78t-54 25q-6 1 -5.5 4.5t6.5 3.5q39 -3 57 -3h39q16 0 58 3q5 0 5.5 -3.5zM162 609l-35 39zM355 758q-16 13 -16 32q0 24 22 40.5t57 16.5q28 0 44.5 -13t16.5 -32
q0 -24 -22.5 -40.5t-57.5 -16.5q-28 0 -44 13z" />
    <glyph glyph-name="uni1E46" unicode="&#x1e46;" horiz-adv-x="758" 
d="M740.5 699.5q0.5 -3.5 -5.5 -4.5q-35 -2 -53.5 -25t-18.5 -78v-595q0 -7 -6 -7q-5 0 -10 7l-504 631q-4 4 -7 4q-4 0 -4 -6v-519q0 -55 19 -78t54 -25q6 0 5.5 -3.5t-5.5 -3.5l-58 3h-39l-57 -3q-6 0 -6.5 3.5t5.5 3.5q35 2 54 25t19 78v546q-21 22 -37.5 32t-38.5 11
q-6 0 -5.5 3.5t5.5 3.5l58 -3h114q23 0 32 -13l390 -502q4 -6 8 -6q5 0 5 7l-1 406q0 55 -19 78t-54 25q-6 1 -5.5 4.5t6.5 3.5q39 -3 57 -3h39q16 0 58 3q5 0 5.5 -3.5zM162 609l-35 39zM346 -147q-17 14 -17 34q1 24 19.5 40t48.5 16q24 0 40.5 -13.5t16.5 -33.5
q0 -24 -18.5 -40.5t-48.5 -16.5q-24 0 -41 14z" />
    <glyph glyph-name="Eng" unicode="&#x14a;" horiz-adv-x="753" 
d="M730.5 699.5q0.5 -3.5 -6.5 -4.5q-34 -2 -53 -25t-19 -78v-605q0 -109 -30 -156t-99 -47q-56 0 -104 24q-8 4 5 24.5t31.5 37t23.5 10.5q19 -25 39 -38t43 -13q31 0 48.5 15.5t25 49.5t7.5 93v56l-510 585q-3 4 -6 4q-4 0 -4 -6v-519q0 -54 19 -77.5t53 -25.5
q7 0 6.5 -3.5t-6.5 -3.5l-58 3h-38l-58 -3q-5 0 -5.5 3.5t5.5 3.5q35 2 53.5 25t18.5 78l1 545q-21 23 -38 33t-39 11q-6 0 -5.5 3.5t6.5 3.5l57 -3h115q12 0 18.5 -3t13.5 -10l389 -461q6 -6 9 -6q4 0 4 7l-1 365q0 55 -18.5 78t-53.5 25q-6 1 -5.5 4.5t5.5 3.5
q39 -3 58 -3h38q19 0 58 3q6 0 6.5 -3.5zM133 630l18 -21z" />
    <glyph glyph-name="uni019D" unicode="&#x19d;" horiz-adv-x="753" 
d="M730.5 699.5q0.5 -3.5 -6.5 -4.5q-34 -2 -53 -25t-19 -78v-594q0 -8 -5 -8q-6 0 -11 7l-504 631q-3 4 -6 4q-4 0 -4 -6v-639q0 -109 -30 -156t-99 -47q-56 0 -104 24q-8 4 5 24.5t31.5 37t23.5 10.5q19 -25 39 -38t43 -13q31 0 48.5 15.5t25 49.5t7.5 93v169l1 496
q-21 23 -38 33t-39 11q-6 0 -5.5 3.5t6.5 3.5l57 -3h115q21 0 32 -13l389 -502q5 -6 9 -6t4 7l-1 406q0 55 -18.5 78t-53.5 25q-6 1 -5.5 4.5t5.5 3.5q39 -3 58 -3h38q19 0 58 3q6 0 6.5 -3.5zM133 630l18 -21z" />
    <glyph glyph-name="uni1E48" unicode="&#x1e48;" horiz-adv-x="758" 
d="M740.5 699.5q0.5 -3.5 -5.5 -4.5q-35 -2 -53.5 -25t-18.5 -78v-595q0 -7 -6 -7q-5 0 -10 7l-504 631q-4 4 -7 4q-4 0 -4 -6v-519q0 -55 19 -78t54 -25q6 0 5.5 -3.5t-5.5 -3.5l-58 3h-39l-57 -3q-6 0 -6.5 3.5t5.5 3.5q35 2 54 25t19 78v546q-21 22 -37.5 32t-38.5 11
q-6 0 -5.5 3.5t5.5 3.5l58 -3h114q23 0 32 -13l390 -502q4 -6 8 -6q5 0 5 7l-1 406q0 55 -19 78t-54 25q-6 1 -5.5 4.5t6.5 3.5q39 -3 57 -3h39q16 0 58 3q5 0 5.5 -3.5zM162 609l-35 39zM256 -114q-4 0 -6.5 1.5t-2.5 3.5q0 5 9 5h259q9 0 9 -5q0 -2 -2.5 -3.5t-6.5 -1.5
h-259z" />
    <glyph glyph-name="Ntilde" unicode="&#xd1;" horiz-adv-x="758" 
d="M740.5 699.5q0.5 -3.5 -5.5 -4.5q-35 -2 -53.5 -25t-18.5 -78v-595q0 -7 -6 -7q-5 0 -10 7l-504 631q-4 4 -7 4q-4 0 -4 -6v-519q0 -55 19 -78t54 -25q6 0 5.5 -3.5t-5.5 -3.5l-58 3h-39l-57 -3q-6 0 -6.5 3.5t5.5 3.5q35 2 54 25t19 78v546q-21 22 -37.5 32t-38.5 11
q-6 0 -5.5 3.5t5.5 3.5l58 -3h114q23 0 32 -13l390 -502q4 -6 8 -6q5 0 5 7l-1 406q0 55 -19 78t-54 25q-6 1 -5.5 4.5t6.5 3.5q39 -3 57 -3h39q16 0 58 3q5 0 5.5 -3.5zM162 609l-35 39zM239 740q-2 0 -3 2t0 6q16 49 42 72.5t64 23.5q29 0 64 -13l43 -16q30 -12 54 -12
q42 0 64 42q3 4 6 4q5 0 2 -8q-32 -98 -106 -98q-25 0 -62 13l-47 17q-45 17 -70 17q-19 0 -29 -10.5t-17 -33.5q-2 -6 -5 -6z" />
    <glyph glyph-name="Oacute" unicode="&#xd3;" horiz-adv-x="831" 
d="M208 29q-80 45 -125 125.5t-45 182.5t51 188.5t141.5 138t202.5 51.5q104 0 185.5 -45.5t127.5 -125.5t46 -180q0 -103 -52 -190t-143.5 -138.5t-206.5 -51.5q-102 0 -182 45zM625.5 73q54.5 59 54.5 165q0 103 -46 208t-122 172.5t-160 67.5q-94 0 -148 -57.5
t-54 -160.5q0 -104 45.5 -210t120 -175t158.5 -69q97 0 151.5 59zM324.5 745q-1.5 3 3.5 5q53 30 78 52.5t45 49.5l12 16q3 3 23 3q23 0 43.5 -4.5t19.5 -12.5q0 -15 -46 -41.5t-100.5 -49t-70.5 -22.5q-6 1 -7.5 4z" />
    <glyph glyph-name="Obreve" unicode="&#x14e;" horiz-adv-x="831" 
d="M208 29q-80 45 -125 125.5t-45 182.5t51 188.5t141.5 138t202.5 51.5q104 0 185.5 -45.5t127.5 -125.5t46 -180q0 -103 -52 -190t-143.5 -138.5t-206.5 -51.5q-102 0 -182 45zM625.5 73q54.5 59 54.5 165q0 103 -46 208t-122 172.5t-160 67.5q-94 0 -148 -57.5
t-54 -160.5q0 -104 45.5 -210t120 -175t158.5 -69q97 0 151.5 59zM356 878q9 -3 9 -10q0 -38 21 -70t61 -32q44 0 62.5 32t18.5 69q0 6 4 6q5 0 5 -6q0 -50 -30 -89.5t-94 -39.5q-44 0 -72.5 20.5t-42 50.5t-13.5 60q0 6 7 9t27 3q28 0 37 -3z" />
    <glyph glyph-name="uni01D1" unicode="&#x1d1;" horiz-adv-x="831" 
d="M208 29q-80 45 -125 125.5t-45 182.5t51 188.5t141.5 138t202.5 51.5q104 0 185.5 -45.5t127.5 -125.5t46 -180q0 -103 -52 -190t-143.5 -138.5t-206.5 -51.5q-102 0 -182 45zM625.5 73q54.5 59 54.5 165q0 103 -46 208t-122 172.5t-160 67.5q-94 0 -148 -57.5
t-54 -160.5q0 -104 45.5 -210t120 -175t158.5 -69q97 0 151.5 59zM575 866.5q1 -2.5 -3 -4.5q-40 -16 -61 -36t-39 -47q-14 -21 -25 -30t-31 -9q-22 0 -33.5 9.5t-25.5 30.5q-18 27 -38.5 46t-58.5 36q-4 2 -3 4.5t5 2.5q29 -2 77 -25t76 -50q29 27 78 50.5t77 24.5
q4 0 5 -2.5z" />
    <glyph glyph-name="Ocircumflex" unicode="&#xd4;" horiz-adv-x="831" 
d="M208 29q-80 45 -125 125.5t-45 182.5t51 188.5t141.5 138t202.5 51.5q104 0 185.5 -45.5t127.5 -125.5t46 -180q0 -103 -52 -190t-143.5 -138.5t-206.5 -51.5q-102 0 -182 45zM625.5 73q54.5 59 54.5 165q0 103 -46 208t-122 172.5t-160 67.5q-94 0 -148 -57.5
t-54 -160.5q0 -104 45.5 -210t120 -175t158.5 -69q97 0 151.5 59zM586 740q-1 -3 -6 -3q-30 2 -81.5 26.5t-81.5 53.5q-30 -29 -82.5 -54t-82.5 -26q-5 0 -6 3t3 5q44 17 66 38t41 50q15 22 26.5 31.5t33.5 9.5q23 0 35 -9.5t28 -32.5q20 -28 41.5 -48.5t62.5 -38.5
q4 -2 3 -5z" />
    <glyph glyph-name="uni1ED8" unicode="&#x1ed8;" horiz-adv-x="831" 
d="M208 29q-80 45 -125 125.5t-45 182.5t51 188.5t141.5 138t202.5 51.5q104 0 185.5 -45.5t127.5 -125.5t46 -180q0 -103 -52 -190t-143.5 -138.5t-206.5 -51.5q-102 0 -182 45zM625.5 73q54.5 59 54.5 165q0 103 -46 208t-122 172.5t-160 67.5q-94 0 -148 -57.5
t-54 -160.5q0 -104 45.5 -210t120 -175t158.5 -69q97 0 151.5 59zM375 -147q-17 14 -17 34q1 24 19.5 40t48.5 16q24 0 40.5 -13.5t16.5 -33.5q0 -24 -18.5 -40.5t-48.5 -16.5q-24 0 -41 14zM586 740q-1 -3 -6 -3q-30 2 -81.5 26.5t-81.5 53.5q-30 -29 -82.5 -54t-82.5 -26
q-5 0 -6 3t3 5q44 17 66 38t41 50q15 22 26.5 31.5t33.5 9.5q23 0 35 -9.5t28 -32.5q20 -28 41.5 -48.5t62.5 -38.5q4 -2 3 -5z" />
    <glyph glyph-name="Odieresis" unicode="&#xd6;" horiz-adv-x="831" 
d="M208 29q-80 45 -125 125.5t-45 182.5t51 188.5t141.5 138t202.5 51.5q104 0 185.5 -45.5t127.5 -125.5t46 -180q0 -103 -52 -190t-143.5 -138.5t-206.5 -51.5q-102 0 -182 45zM625.5 73q54.5 59 54.5 165q0 103 -46 208t-122 172.5t-160 67.5q-94 0 -148 -57.5
t-54 -160.5q0 -104 45.5 -210t120 -175t158.5 -69q97 0 151.5 59zM290.5 767.5q-16.5 13.5 -16.5 33.5q1 24 19.5 39.5t48.5 15.5q24 0 40.5 -14t16.5 -34q-1 -23 -19.5 -38.5t-47.5 -15.5q-25 0 -41.5 13.5zM450.5 767.5q-16.5 13.5 -16.5 33.5q1 24 19.5 39.5t48.5 15.5
q24 0 40.5 -14t16.5 -34q-1 -23 -19.5 -38.5t-47.5 -15.5q-25 0 -41.5 13.5z" />
    <glyph glyph-name="uni1ECC" unicode="&#x1ecc;" horiz-adv-x="831" 
d="M208 29q-80 45 -125 125.5t-45 182.5t51 188.5t141.5 138t202.5 51.5q104 0 185.5 -45.5t127.5 -125.5t46 -180q0 -103 -52 -190t-143.5 -138.5t-206.5 -51.5q-102 0 -182 45zM625.5 73q54.5 59 54.5 165q0 103 -46 208t-122 172.5t-160 67.5q-94 0 -148 -57.5
t-54 -160.5q0 -104 45.5 -210t120 -175t158.5 -69q97 0 151.5 59zM375 -147q-17 14 -17 34q1 24 19.5 40t48.5 16q24 0 40.5 -13.5t16.5 -33.5q0 -24 -18.5 -40.5t-48.5 -16.5q-24 0 -41 14z" />
    <glyph glyph-name="Ograve" unicode="&#xd2;" horiz-adv-x="831" 
d="M208 29q-80 45 -125 125.5t-45 182.5t51 188.5t141.5 138t202.5 51.5q104 0 185.5 -45.5t127.5 -125.5t46 -180q0 -103 -52 -190t-143.5 -138.5t-206.5 -51.5q-102 0 -182 45zM625.5 73q54.5 59 54.5 165q0 103 -46 208t-122 172.5t-160 67.5q-94 0 -148 -57.5
t-54 -160.5q0 -104 45.5 -210t120 -175t158.5 -69q97 0 151.5 59zM377.5 763.5q-54.5 22.5 -100.5 49t-46 41.5q-1 8 19.5 12.5t43.5 4.5q20 0 23 -3l12 -16q20 -27 45 -49.5t78 -52.5q3 -1 3 -4q0 -4 -7 -5q-16 0 -70.5 22.5z" />
    <glyph glyph-name="Ohungarumlaut" unicode="&#x150;" horiz-adv-x="831" 
d="M208 29q-80 45 -125 125.5t-45 182.5t51 188.5t141.5 138t202.5 51.5q104 0 185.5 -45.5t127.5 -125.5t46 -180q0 -103 -52 -190t-143.5 -138.5t-206.5 -51.5q-102 0 -182 45zM625.5 73q54.5 59 54.5 165q0 103 -46 208t-122 172.5t-160 67.5q-94 0 -148 -57.5
t-54 -160.5q0 -104 45.5 -210t120 -175t158.5 -69q97 0 151.5 59zM244 738q-4 0 -5 3t3 5q41 32 58.5 60t28.5 60q6 17 11.5 25t16.5 9q19 3 44 3q37 0 37 -8q0 -16 -40 -52t-88.5 -69t-64.5 -36h-1zM405 738q-3 0 -4 3t3 5q40 32 58 60.5t29 59.5q6 18 11 25.5t16 8.5
q20 3 44 3q38 0 38 -8q0 -16 -40.5 -52t-89 -69t-64.5 -36h-1z" />
    <glyph glyph-name="Omacron" unicode="&#x14c;" horiz-adv-x="831" 
d="M208 29q-80 45 -125 125.5t-45 182.5t51 188.5t141.5 138t202.5 51.5q104 0 185.5 -45.5t127.5 -125.5t46 -180q0 -103 -52 -190t-143.5 -138.5t-206.5 -51.5q-102 0 -182 45zM625.5 73q54.5 59 54.5 165q0 103 -46 208t-122 172.5t-160 67.5q-94 0 -148 -57.5
t-54 -160.5q0 -104 45.5 -210t120 -175t158.5 -69q97 0 151.5 59zM286 767q-4 0 -6.5 1.5t-2.5 3.5q0 5 9 5h259q9 0 9 -5q0 -2 -2.5 -3.5t-6.5 -1.5h-259z" />
    <glyph glyph-name="uni01EA" unicode="&#x1ea;" horiz-adv-x="831" 
d="M575 -2q-11 -22 -11 -44q0 -24 12.5 -36.5t33.5 -12.5q58 0 58 59q0 6 3.5 6t3.5 -6q0 -44 -29 -71.5t-79 -27.5q-36 0 -56 16t-20 45q0 44 53 85q-73 -27 -154 -27q-102 0 -182 45t-125 125.5t-45 182.5t51 188.5t141.5 138t202.5 51.5q104 0 185.5 -45.5t127.5 -125.5
t46 -180q0 -97 -47 -181t-128 -135q-31 -28 -42 -50zM195.5 258q45.5 -106 120 -175t158.5 -69q97 0 151.5 59t54.5 165q0 103 -46 208t-122 172.5t-160 67.5q-94 0 -148 -57.5t-54 -160.5q0 -104 45.5 -210z" />
    <glyph glyph-name="Oslash" unicode="&#xd8;" horiz-adv-x="831" 
d="M628 664q77 -45 120.5 -124t43.5 -176q0 -103 -52 -190t-143.5 -138.5t-206.5 -51.5q-100 0 -181 45l-63 -95q-1 -3 -5 -3q-2 0 -2.5 2.5t1.5 5.5l62 94q-77 45 -120.5 124.5t-43.5 179.5q0 102 51 188.5t141.5 138t202.5 51.5q103 0 188 -47l62 95q3 5 6 5t3.5 -3
t-2.5 -7zM182 292q32 -90 86 -158l289 438q-45 53 -97.5 83.5t-107.5 30.5q-94 0 -148 -57.5t-54 -160.5q0 -86 32 -176zM625.5 73q54.5 59 54.5 165q0 85 -31.5 172.5t-85.5 154.5l-290 -438q44 -53 95.5 -83t105.5 -30q97 0 151.5 59z" />
    <glyph glyph-name="Oslashacute" unicode="&#x1fe;" horiz-adv-x="831" 
d="M628 664q77 -45 120.5 -124t43.5 -176q0 -103 -52 -190t-143.5 -138.5t-206.5 -51.5q-100 0 -181 45l-63 -95q-1 -3 -5 -3q-2 0 -2.5 2.5t1.5 5.5l62 94q-77 45 -120.5 124.5t-43.5 179.5q0 102 51 188.5t141.5 138t202.5 51.5q103 0 188 -47l62 95q3 5 6 5t3.5 -3
t-2.5 -7zM182 292q32 -90 86 -158l289 438q-45 53 -97.5 83.5t-107.5 30.5q-94 0 -148 -57.5t-54 -160.5q0 -86 32 -176zM625.5 73q54.5 59 54.5 165q0 85 -31.5 172.5t-85.5 154.5l-290 -438q44 -53 95.5 -83t105.5 -30q97 0 151.5 59zM318.5 745q-1.5 3 3.5 5
q53 30 78 52.5t45 49.5l12 16q3 3 23 3q23 0 43.5 -4.5t19.5 -12.5q0 -15 -46 -41.5t-100.5 -49t-70.5 -22.5q-6 1 -7.5 4z" />
    <glyph glyph-name="Otilde" unicode="&#xd5;" horiz-adv-x="831" 
d="M208 29q-80 45 -125 125.5t-45 182.5t51 188.5t141.5 138t202.5 51.5q104 0 185.5 -45.5t127.5 -125.5t46 -180q0 -103 -52 -190t-143.5 -138.5t-206.5 -51.5q-102 0 -182 45zM625.5 73q54.5 59 54.5 165q0 103 -46 208t-122 172.5t-160 67.5q-94 0 -148 -57.5
t-54 -160.5q0 -104 45.5 -210t120 -175t158.5 -69q97 0 151.5 59zM249 740q-2 0 -3 2t0 6q16 49 42 72.5t64 23.5q29 0 64 -13l43 -16q30 -12 54 -12q42 0 64 42q3 4 6 4q5 0 2 -8q-32 -98 -106 -98q-25 0 -62 13l-47 17q-45 17 -70 17q-19 0 -29 -10.5t-17 -33.5
q-2 -6 -5 -6z" />
    <glyph glyph-name="Racute" unicode="&#x154;" horiz-adv-x="685" 
d="M738.5 -71q-1.5 -3 -6.5 -1q-133 48 -224.5 143.5t-167.5 269.5l-60 2q-5 1 -5 3.5t5 3.5l37 1q85 7 125.5 55.5t40.5 129.5q0 82 -41.5 119.5t-128.5 39.5l-44 2q-19 0 -26.5 -8t-7.5 -29v-552q0 -55 18.5 -78t53.5 -25q6 -1 6 -4.5t-6 -3.5q-39 3 -58 3h-152
q-19 0 -58 -3q-6 0 -6 3.5t6 4.5q35 2 53.5 25t18.5 78v484q0 55 -18.5 78t-53.5 25q-7 0 -6.5 3.5t6.5 3.5q26 -2 58 -2q28 0 62.5 1.5t51.5 1.5q88 2 127 2q147 0 215.5 -43t68.5 -134q0 -75 -60.5 -123.5t-170.5 -59.5q44 -2 80 4h2q6 0 10 -9q37 -137 104 -249t148 -156
q5 -3 3.5 -6zM249.5 745q-1.5 3 3.5 5q53 30 78 52.5t45 49.5l12 16q3 3 23 3q23 0 43.5 -4.5t19.5 -12.5q0 -15 -46 -41.5t-100.5 -49t-70.5 -22.5q-6 1 -7.5 4z" />
    <glyph glyph-name="Rcaron" unicode="&#x158;" horiz-adv-x="685" 
d="M738.5 -71q-1.5 -3 -6.5 -1q-133 48 -224.5 143.5t-167.5 269.5l-60 2q-5 1 -5 3.5t5 3.5l37 1q85 7 125.5 55.5t40.5 129.5q0 82 -41.5 119.5t-128.5 39.5l-44 2q-19 0 -26.5 -8t-7.5 -29v-552q0 -55 18.5 -78t53.5 -25q6 -1 6 -4.5t-6 -3.5q-39 3 -58 3h-152
q-19 0 -58 -3q-6 0 -6 3.5t6 4.5q35 2 53.5 25t18.5 78v484q0 55 -18.5 78t-53.5 25q-7 0 -6.5 3.5t6.5 3.5q26 -2 58 -2q28 0 62.5 1.5t51.5 1.5q88 2 127 2q147 0 215.5 -43t68.5 -134q0 -75 -60.5 -123.5t-170.5 -59.5q44 -2 80 4h2q6 0 10 -9q37 -137 104 -249t148 -156
q5 -3 3.5 -6zM500 866.5q1 -2.5 -3 -4.5q-40 -16 -61 -36t-39 -47q-14 -21 -25 -30t-31 -9q-22 0 -33.5 9.5t-25.5 30.5q-18 27 -38.5 46t-58.5 36q-4 2 -3 4.5t5 2.5q29 -2 77 -25t76 -50q29 27 78 50.5t77 24.5q4 0 5 -2.5z" />
    <glyph glyph-name="uni0156" unicode="&#x156;" horiz-adv-x="685" 
d="M738.5 -71q-1.5 -3 -6.5 -1q-133 48 -224.5 143.5t-167.5 269.5l-60 2q-5 1 -5 3.5t5 3.5l37 1q85 7 125.5 55.5t40.5 129.5q0 82 -41.5 119.5t-128.5 39.5l-44 2q-19 0 -26.5 -8t-7.5 -29v-552q0 -55 18.5 -78t53.5 -25q6 -1 6 -4.5t-6 -3.5q-39 3 -58 3h-152
q-19 0 -58 -3q-6 0 -6 3.5t6 4.5q35 2 53.5 25t18.5 78v484q0 55 -18.5 78t-53.5 25q-7 0 -6.5 3.5t6.5 3.5q26 -2 58 -2q28 0 62.5 1.5t51.5 1.5q88 2 127 2q147 0 215.5 -43t68.5 -134q0 -75 -60.5 -123.5t-170.5 -59.5q44 -2 80 4h2q6 0 10 -9q37 -137 104 -249t148 -156
q5 -3 3.5 -6zM283.5 -224.5q-0.5 2.5 3.5 4.5q60 29 60 77q0 9 -8 12.5t-23 5.5q-20 3 -31 9t-11 23q0 15 18.5 28.5t44.5 13.5q29 0 42.5 -13.5t13.5 -34.5q0 -28 -17 -54.5t-42 -45.5t-46 -26q-4 -2 -4.5 0.5z" />
    <glyph glyph-name="uni1E5A" unicode="&#x1e5a;" horiz-adv-x="685" 
d="M738.5 -71q-1.5 -3 -6.5 -1q-133 48 -224.5 143.5t-167.5 269.5l-60 2q-5 1 -5 3.5t5 3.5l37 1q85 7 125.5 55.5t40.5 129.5q0 82 -41.5 119.5t-128.5 39.5l-44 2q-19 0 -26.5 -8t-7.5 -29v-552q0 -55 18.5 -78t53.5 -25q6 -1 6 -4.5t-6 -3.5q-39 3 -58 3h-152
q-19 0 -58 -3q-6 0 -6 3.5t6 4.5q35 2 53.5 25t18.5 78v484q0 55 -18.5 78t-53.5 25q-7 0 -6.5 3.5t6.5 3.5q26 -2 58 -2q28 0 62.5 1.5t51.5 1.5q88 2 127 2q147 0 215.5 -43t68.5 -134q0 -75 -60.5 -123.5t-170.5 -59.5q44 -2 80 4h2q6 0 10 -9q37 -137 104 -249t148 -156
q5 -3 3.5 -6zM301 -147q-17 14 -17 34q1 24 19.5 40t48.5 16q24 0 40.5 -13.5t16.5 -33.5q0 -24 -18.5 -40.5t-48.5 -16.5q-24 0 -41 14z" />
    <glyph glyph-name="uni1E5C" unicode="&#x1e5c;" horiz-adv-x="685" 
d="M738.5 -71q-1.5 -3 -6.5 -1q-133 48 -224.5 143.5t-167.5 269.5l-60 2q-5 1 -5 3.5t5 3.5l37 1q85 7 125.5 55.5t40.5 129.5q0 82 -41.5 119.5t-128.5 39.5l-44 2q-19 0 -26.5 -8t-7.5 -29v-552q0 -55 18.5 -78t53.5 -25q6 -1 6 -4.5t-6 -3.5q-39 3 -58 3h-152
q-19 0 -58 -3q-6 0 -6 3.5t6 4.5q35 2 53.5 25t18.5 78v484q0 55 -18.5 78t-53.5 25q-7 0 -6.5 3.5t6.5 3.5q26 -2 58 -2q28 0 62.5 1.5t51.5 1.5q88 2 127 2q147 0 215.5 -43t68.5 -134q0 -75 -60.5 -123.5t-170.5 -59.5q44 -2 80 4h2q6 0 10 -9q37 -137 104 -249t148 -156
q5 -3 3.5 -6zM301 -147q-17 14 -17 34q1 24 19.5 40t48.5 16q24 0 40.5 -13.5t16.5 -33.5q0 -24 -18.5 -40.5t-48.5 -16.5q-24 0 -41 14zM212 767q-4 0 -6.5 1.5t-2.5 3.5q0 5 9 5h259q9 0 9 -5q0 -2 -2.5 -3.5t-6.5 -1.5h-259z" />
    <glyph glyph-name="uni1E5E" unicode="&#x1e5e;" horiz-adv-x="685" 
d="M738.5 -71q-1.5 -3 -6.5 -1q-133 48 -224.5 143.5t-167.5 269.5l-60 2q-5 1 -5 3.5t5 3.5l37 1q85 7 125.5 55.5t40.5 129.5q0 82 -41.5 119.5t-128.5 39.5l-44 2q-19 0 -26.5 -8t-7.5 -29v-552q0 -55 18.5 -78t53.5 -25q6 -1 6 -4.5t-6 -3.5q-39 3 -58 3h-152
q-19 0 -58 -3q-6 0 -6 3.5t6 4.5q35 2 53.5 25t18.5 78v484q0 55 -18.5 78t-53.5 25q-7 0 -6.5 3.5t6.5 3.5q26 -2 58 -2q28 0 62.5 1.5t51.5 1.5q88 2 127 2q147 0 215.5 -43t68.5 -134q0 -75 -60.5 -123.5t-170.5 -59.5q44 -2 80 4h2q6 0 10 -9q37 -137 104 -249t148 -156
q5 -3 3.5 -6zM211 -114q-4 0 -6.5 1.5t-2.5 3.5q0 5 9 5h259q9 0 9 -5q0 -2 -2.5 -3.5t-6.5 -1.5h-259z" />
    <glyph glyph-name="Sacute" unicode="&#x15a;" horiz-adv-x="635" 
d="M114 291q2 8 5 8q1 0 2 -2.5t0 -7.5q-2 -30 -2 -43q0 -122 52 -184t152 -62q60 0 104 27t44 97q0 65 -46.5 109.5t-132.5 91.5q-66 38 -107 67.5t-66 64.5t-25 78q0 45 33.5 86.5t95.5 67.5t143 26q48 0 96.5 -13.5t80 -38.5t31.5 -57q0 -4 -2 -14l-41 -154q-1 -6 -5 -6
t-3 9q3 24 3 47q0 97 -49.5 154t-139.5 57q-72 0 -100.5 -24t-28.5 -75q0 -35 21 -63t55.5 -51.5t96.5 -58.5q66 -35 108.5 -64.5t71.5 -72.5t29 -99q0 -59 -35.5 -106t-100.5 -74t-150 -27q-64 0 -119.5 18.5t-87.5 48.5t-32 62q0 5 2 13zM240.5 745q-1.5 3 3.5 5
q53 30 78 52.5t45 49.5l12 16q3 3 23 3q23 0 43.5 -4.5t19.5 -12.5q0 -15 -46 -41.5t-100.5 -49t-70.5 -22.5q-6 1 -7.5 4z" />
    <glyph glyph-name="Scaron" unicode="&#x160;" horiz-adv-x="635" 
d="M114 291q2 8 5 8q1 0 2 -2.5t0 -7.5q-2 -30 -2 -43q0 -122 52 -184t152 -62q60 0 104 27t44 97q0 65 -46.5 109.5t-132.5 91.5q-66 38 -107 67.5t-66 64.5t-25 78q0 45 33.5 86.5t95.5 67.5t143 26q48 0 96.5 -13.5t80 -38.5t31.5 -57q0 -4 -2 -14l-41 -154q-1 -6 -5 -6
t-3 9q3 24 3 47q0 97 -49.5 154t-139.5 57q-72 0 -100.5 -24t-28.5 -75q0 -35 21 -63t55.5 -51.5t96.5 -58.5q66 -35 108.5 -64.5t71.5 -72.5t29 -99q0 -59 -35.5 -106t-100.5 -74t-150 -27q-64 0 -119.5 18.5t-87.5 48.5t-32 62q0 5 2 13zM491 866.5q1 -2.5 -3 -4.5
q-40 -16 -61 -36t-39 -47q-14 -21 -25 -30t-31 -9q-22 0 -33.5 9.5t-25.5 30.5q-18 27 -38.5 46t-58.5 36q-4 2 -3 4.5t5 2.5q29 -2 77 -25t76 -50q29 27 78 50.5t77 24.5q4 0 5 -2.5z" />
    <glyph glyph-name="Scedilla" unicode="&#x15e;" horiz-adv-x="635" 
d="M557 89q-33 -46 -93 -74t-140 -31q-15 -21 -25 -43q58 -13 84 -31.5t26 -45.5q0 -24 -26 -44t-66 -20q-39 0 -68 10.5t-30 30.5q0 7 9 18t17 11q5 0 10 -4t8 -8t4 -5q15 -18 30.5 -28.5t40.5 -10.5q24 0 37 7.5t14 21.5q-2 38 -127 63l51 78h-9q-64 0 -119.5 18.5
t-87.5 48.5t-32 62q0 5 2 13l47 165q2 8 5 8q1 0 2 -2.5t0 -7.5q-2 -30 -2 -43q0 -122 52 -184t152 -62q60 0 104 27t44 97q0 65 -46.5 109.5t-132.5 91.5q-66 38 -107 67.5t-66 64.5t-25 78q0 45 33.5 86.5t95.5 67.5t143 26q48 0 96.5 -13.5t80 -38.5t31.5 -57
q0 -4 -2 -14l-41 -154q-1 -6 -5 -6t-3 9q3 24 3 47q0 97 -49.5 154t-139.5 57q-72 0 -100.5 -24t-28.5 -75q0 -35 21 -63t55.5 -51.5t96.5 -58.5q66 -35 108.5 -64.5t71.5 -72.5t29 -99t-33 -102z" />
    <glyph glyph-name="Scircumflex" unicode="&#x15c;" horiz-adv-x="635" 
d="M114 291q2 8 5 8q1 0 2 -2.5t0 -7.5q-2 -30 -2 -43q0 -122 52 -184t152 -62q60 0 104 27t44 97q0 65 -46.5 109.5t-132.5 91.5q-66 38 -107 67.5t-66 64.5t-25 78q0 45 33.5 86.5t95.5 67.5t143 26q48 0 96.5 -13.5t80 -38.5t31.5 -57q0 -4 -2 -14l-41 -154q-1 -6 -5 -6
t-3 9q3 24 3 47q0 97 -49.5 154t-139.5 57q-72 0 -100.5 -24t-28.5 -75q0 -35 21 -63t55.5 -51.5t96.5 -58.5q66 -35 108.5 -64.5t71.5 -72.5t29 -99q0 -59 -35.5 -106t-100.5 -74t-150 -27q-64 0 -119.5 18.5t-87.5 48.5t-32 62q0 5 2 13zM502 740q-1 -3 -6 -3
q-30 2 -81.5 26.5t-81.5 53.5q-30 -29 -82.5 -54t-82.5 -26q-5 0 -6 3t3 5q44 17 66 38t41 50q15 22 26.5 31.5t33.5 9.5q23 0 35 -9.5t28 -32.5q20 -28 41.5 -48.5t62.5 -38.5q4 -2 3 -5z" />
    <glyph glyph-name="uni0218" unicode="&#x218;" horiz-adv-x="635" 
d="M114 291q2 8 5 8q1 0 2 -2.5t0 -7.5q-2 -30 -2 -43q0 -122 52 -184t152 -62q60 0 104 27t44 97q0 65 -46.5 109.5t-132.5 91.5q-66 38 -107 67.5t-66 64.5t-25 78q0 45 33.5 86.5t95.5 67.5t143 26q48 0 96.5 -13.5t80 -38.5t31.5 -57q0 -4 -2 -14l-41 -154q-1 -6 -5 -6
t-3 9q3 24 3 47q0 97 -49.5 154t-139.5 57q-72 0 -100.5 -24t-28.5 -75q0 -35 21 -63t55.5 -51.5t96.5 -58.5q66 -35 108.5 -64.5t71.5 -72.5t29 -99q0 -59 -35.5 -106t-100.5 -74t-150 -27q-64 0 -119.5 18.5t-87.5 48.5t-32 62q0 5 2 13zM277.5 -198.5q-0.5 2.5 3.5 4.5
q52 23 52 65q0 8 -6.5 11t-20.5 5q-18 3 -27 8t-9 19q0 12 16 24t39 12q24 0 35.5 -11.5t11.5 -29.5q0 -35 -30 -66t-60 -42q-4 -2 -4.5 0.5z" />
    <glyph glyph-name="uni1E60" unicode="&#x1e60;" horiz-adv-x="635" 
d="M114 291q2 8 5 8q1 0 2 -2.5t0 -7.5q-2 -30 -2 -43q0 -122 52 -184t152 -62q60 0 104 27t44 97q0 65 -46.5 109.5t-132.5 91.5q-66 38 -107 67.5t-66 64.5t-25 78q0 45 33.5 86.5t95.5 67.5t143 26q48 0 96.5 -13.5t80 -38.5t31.5 -57q0 -4 -2 -14l-41 -154q-1 -6 -5 -6
t-3 9q3 24 3 47q0 97 -49.5 154t-139.5 57q-72 0 -100.5 -24t-28.5 -75q0 -35 21 -63t55.5 -51.5t96.5 -58.5q66 -35 108.5 -64.5t71.5 -72.5t29 -99q0 -59 -35.5 -106t-100.5 -74t-150 -27q-64 0 -119.5 18.5t-87.5 48.5t-32 62q0 5 2 13zM282 758q-16 13 -16 32
q0 24 22 40.5t57 16.5q28 0 44.5 -13t16.5 -32q0 -24 -22.5 -40.5t-57.5 -16.5q-28 0 -44 13z" />
    <glyph glyph-name="uni1E62" unicode="&#x1e62;" horiz-adv-x="635" 
d="M114 291q2 8 5 8q1 0 2 -2.5t0 -7.5q-2 -30 -2 -43q0 -122 52 -184t152 -62q60 0 104 27t44 97q0 65 -46.5 109.5t-132.5 91.5q-66 38 -107 67.5t-66 64.5t-25 78q0 45 33.5 86.5t95.5 67.5t143 26q48 0 96.5 -13.5t80 -38.5t31.5 -57q0 -4 -2 -14l-41 -154q-1 -6 -5 -6
t-3 9q3 24 3 47q0 97 -49.5 154t-139.5 57q-72 0 -100.5 -24t-28.5 -75q0 -35 21 -63t55.5 -51.5t96.5 -58.5q66 -35 108.5 -64.5t71.5 -72.5t29 -99q0 -59 -35.5 -106t-100.5 -74t-150 -27q-64 0 -119.5 18.5t-87.5 48.5t-32 62q0 5 2 13zM287 -153q-17 14 -17 34
q1 24 19.5 40t48.5 16q24 0 40.5 -13.5t16.5 -33.5q0 -24 -18.5 -40.5t-48.5 -16.5q-24 0 -41 14z" />
    <glyph glyph-name="uni018F" unicode="&#x18f;" horiz-adv-x="761" 
d="M555 670q77 -45 122 -125t45 -181q0 -100 -51 -187.5t-139.5 -140t-196.5 -52.5q-97 0 -163.5 33.5t-99.5 92.5t-34 134q0 55 15 110l544 -5q-20 81 -64.5 148t-107 106t-133.5 39q-63 0 -113 -17.5t-95 -64.5q-4 -4 -7 -4q-2 0 -1.5 2.5t3.5 5.5q61 75 138.5 113
t166.5 38q94 0 171 -45zM555.5 70.5q54.5 58.5 54.5 166.5q0 50 -11 103l-413 -10q-8 -38 -8 -74q0 -71 30.5 -126.5t82.5 -86.5t113 -31q97 0 151.5 58.5z" />
    <glyph glyph-name="Tbar" unicode="&#x166;" horiz-adv-x="682" 
d="M662 456q0 -5 -3.5 -5t-4.5 5q-29 109 -56.5 159.5t-62.5 65.5q-16 12 -112 12q-8 0 -14 -10t-6 -26v-302h130q5 0 5 -4.5t-5 -4.5h-130v-238q0 -55 26.5 -78t75.5 -25q8 0 8 -4t-8 -4q-57 3 -81 3h-166q-27 0 -81 -3q-9 0 -9 4t9 4q49 2 75.5 25t26.5 78v238h-130
q-4 0 -4 4.5t4 4.5h130v302q0 16 -6 26t-14 10q-96 0 -113 -12q-35 -14 -63.5 -67t-55.5 -158q-1 -5 -4.5 -4.5t-2.5 5.5q16 124 15 231v3q0 21 19 21q3 0 23 -2q65 -10 202 -10h124q137 0 202 10q20 2 23 2q20 0 19 -24q-3 -99 15 -231v-1z" />
    <glyph glyph-name="Tcaron" unicode="&#x164;" horiz-adv-x="682" 
d="M662 456q0 -5 -3.5 -5t-4.5 5q-29 109 -56.5 159.5t-62.5 65.5q-16 12 -112 12q-8 0 -14 -10t-6 -26v-549q0 -55 26.5 -78t75.5 -25q8 0 8 -4t-8 -4q-57 3 -81 3h-166q-27 0 -81 -3q-9 0 -9 4t9 4q49 2 75.5 25t26.5 78v549q0 16 -6 26t-14 10q-96 0 -113 -12
q-35 -14 -63.5 -67t-55.5 -158q-1 -5 -4.5 -4.5t-2.5 5.5q16 124 15 231v3q0 21 19 21q3 0 23 -2q65 -10 202 -10h124q137 0 202 10q20 2 23 2q20 0 19 -24q-3 -99 15 -231v-1zM500 866.5q1 -2.5 -3 -4.5q-40 -16 -61 -36t-39 -47q-14 -21 -25 -30t-31 -9q-22 0 -33.5 9.5
t-25.5 30.5q-18 27 -38.5 46t-58.5 36q-4 2 -3 4.5t5 2.5q29 -2 77 -25t76 -50q29 27 78 50.5t77 24.5q4 0 5 -2.5z" />
    <glyph glyph-name="uni0162" unicode="&#x162;" horiz-adv-x="682" 
d="M662 456q0 -5 -3.5 -5t-4.5 5q-29 109 -56.5 159.5t-62.5 65.5q-16 12 -112 12q-8 0 -14 -10t-6 -26v-549q0 -55 26.5 -78t75.5 -25q8 0 8 -4t-8 -4q-57 3 -81 3h-166q-27 0 -81 -3q-9 0 -9 4t9 4q49 2 75.5 25t26.5 78v549q0 16 -6 26t-14 10q-96 0 -113 -12
q-35 -14 -63.5 -67t-55.5 -158q-1 -5 -4.5 -4.5t-2.5 5.5q16 124 15 231v3q0 21 19 21q3 0 23 -2q65 -10 202 -10h124q137 0 202 10q20 2 23 2q20 0 19 -24q-3 -99 15 -231v-1zM263.5 -190q-29.5 11 -30.5 32q0 8 9 19t17 11q5 0 11 -5.5t11 -12.5q15 -18 30.5 -29t40.5 -11
q24 0 37 8t14 22q-2 38 -127 65l57 91h12q-10 -14 -17 -25.5t-15 -29.5q59 -14 84.5 -33t25.5 -47q0 -24 -26 -45t-66 -21q-38 0 -67.5 11z" />
    <glyph glyph-name="uni021A" unicode="&#x21a;" horiz-adv-x="682" 
d="M662 456q0 -5 -3.5 -5t-4.5 5q-29 109 -56.5 159.5t-62.5 65.5q-16 12 -112 12q-8 0 -14 -10t-6 -26v-549q0 -55 26.5 -78t75.5 -25q8 0 8 -4t-8 -4q-57 3 -81 3h-166q-27 0 -81 -3q-9 0 -9 4t9 4q49 2 75.5 25t26.5 78v549q0 16 -6 26t-14 10q-96 0 -113 -12
q-35 -14 -63.5 -67t-55.5 -158q-1 -5 -4.5 -4.5t-2.5 5.5q16 124 15 231v3q0 21 19 21q3 0 23 -2q65 -10 202 -10h124q137 0 202 10q20 2 23 2q20 0 19 -24q-3 -99 15 -231v-1zM283.5 -224.5q-0.5 2.5 3.5 4.5q60 29 60 77q0 9 -8 12.5t-23 5.5q-20 3 -31 9t-11 23
q0 15 18.5 28.5t44.5 13.5q29 0 42.5 -13.5t13.5 -34.5q0 -28 -17 -54.5t-42 -45.5t-46 -26q-4 -2 -4.5 0.5z" />
    <glyph glyph-name="uni1E6C" unicode="&#x1e6c;" horiz-adv-x="682" 
d="M662 456q0 -5 -3.5 -5t-4.5 5q-29 109 -56.5 159.5t-62.5 65.5q-16 12 -112 12q-8 0 -14 -10t-6 -26v-549q0 -55 26.5 -78t75.5 -25q8 0 8 -4t-8 -4q-57 3 -81 3h-166q-27 0 -81 -3q-9 0 -9 4t9 4q49 2 75.5 25t26.5 78v549q0 16 -6 26t-14 10q-96 0 -113 -12
q-35 -14 -63.5 -67t-55.5 -158q-1 -5 -4.5 -4.5t-2.5 5.5q16 124 15 231v3q0 21 19 21q3 0 23 -2q65 -10 202 -10h124q137 0 202 10q20 2 23 2q20 0 19 -24q-3 -99 15 -231v-1zM300 -147q-17 14 -17 34q1 24 19.5 40t48.5 16q24 0 40.5 -13.5t16.5 -33.5q0 -24 -18.5 -40.5
t-48.5 -16.5q-24 0 -41 14z" />
    <glyph glyph-name="uni1E6E" unicode="&#x1e6e;" horiz-adv-x="682" 
d="M662 456q0 -5 -3.5 -5t-4.5 5q-29 109 -56.5 159.5t-62.5 65.5q-16 12 -112 12q-8 0 -14 -10t-6 -26v-549q0 -55 26.5 -78t75.5 -25q8 0 8 -4t-8 -4q-57 3 -81 3h-166q-27 0 -81 -3q-9 0 -9 4t9 4q49 2 75.5 25t26.5 78v549q0 16 -6 26t-14 10q-96 0 -113 -12
q-35 -14 -63.5 -67t-55.5 -158q-1 -5 -4.5 -4.5t-2.5 5.5q16 124 15 231v3q0 21 19 21q3 0 23 -2q65 -10 202 -10h124q137 0 202 10q20 2 23 2q20 0 19 -24q-3 -99 15 -231v-1zM211 -114q-4 0 -6.5 1.5t-2.5 3.5q0 5 9 5h259q9 0 9 -5q0 -2 -2.5 -3.5t-6.5 -1.5h-259z" />
    <glyph glyph-name="Uacute" unicode="&#xda;" horiz-adv-x="743" 
d="M237 20q-66 36 -101.5 102.5t-35.5 156.5v313q0 55 -16.5 78t-48.5 25q-5 1 -4.5 4.5t5.5 3.5q36 -3 51 -3h154q22 0 70 3q7 0 7 -4t-7 -4q-42 -2 -64.5 -25t-22.5 -78v-319q0 -110 57.5 -174.5t157.5 -64.5q63 0 111 31t74.5 87t26.5 129l-1 311q0 55 -22.5 78t-64.5 25
q-7 0 -7 4t7 4q48 -3 69 -3h37q13 0 46 3q5 0 5 -3.5t-5 -4.5q-28 -2 -42.5 -25t-14.5 -78v-308q0 -92 -32 -160t-92 -104t-142 -36q-89 0 -155 36zM320.5 745q-1.5 3 3.5 5q53 30 78 52.5t45 49.5l12 16q3 3 23 3q23 0 43.5 -4.5t19.5 -12.5q0 -15 -46 -41.5t-100.5 -49
t-70.5 -22.5q-6 1 -7.5 4z" />
    <glyph glyph-name="Ubreve" unicode="&#x16c;" horiz-adv-x="743" 
d="M237 20q-66 36 -101.5 102.5t-35.5 156.5v313q0 55 -16.5 78t-48.5 25q-5 1 -4.5 4.5t5.5 3.5q36 -3 51 -3h154q22 0 70 3q7 0 7 -4t-7 -4q-42 -2 -64.5 -25t-22.5 -78v-319q0 -110 57.5 -174.5t157.5 -64.5q63 0 111 31t74.5 87t26.5 129l-1 311q0 55 -22.5 78t-64.5 25
q-7 0 -7 4t7 4q48 -3 69 -3h37q13 0 46 3q5 0 5 -3.5t-5 -4.5q-28 -2 -42.5 -25t-14.5 -78v-308q0 -92 -32 -160t-92 -104t-142 -36q-89 0 -155 36zM351 878q9 -3 9 -10q0 -38 21 -70t61 -32q44 0 62.5 32t18.5 69q0 6 4 6q5 0 5 -6q0 -50 -30 -89.5t-94 -39.5
q-44 0 -72.5 20.5t-42 50.5t-13.5 60q0 6 7 9t27 3q28 0 37 -3z" />
    <glyph glyph-name="uni01D3" unicode="&#x1d3;" horiz-adv-x="743" 
d="M237 20q-66 36 -101.5 102.5t-35.5 156.5v313q0 55 -16.5 78t-48.5 25q-5 1 -4.5 4.5t5.5 3.5q36 -3 51 -3h154q22 0 70 3q7 0 7 -4t-7 -4q-42 -2 -64.5 -25t-22.5 -78v-319q0 -110 57.5 -174.5t157.5 -64.5q63 0 111 31t74.5 87t26.5 129l-1 311q0 55 -22.5 78t-64.5 25
q-7 0 -7 4t7 4q48 -3 69 -3h37q13 0 46 3q5 0 5 -3.5t-5 -4.5q-28 -2 -42.5 -25t-14.5 -78v-308q0 -92 -32 -160t-92 -104t-142 -36q-89 0 -155 36zM570 866.5q1 -2.5 -3 -4.5q-40 -16 -61 -36t-39 -47q-14 -21 -25 -30t-31 -9q-22 0 -33.5 9.5t-25.5 30.5q-18 27 -38.5 46
t-58.5 36q-4 2 -3 4.5t5 2.5q29 -2 77 -25t76 -50q29 27 78 50.5t77 24.5q4 0 5 -2.5z" />
    <glyph glyph-name="Ucircumflex" unicode="&#xdb;" horiz-adv-x="743" 
d="M237 20q-66 36 -101.5 102.5t-35.5 156.5v313q0 55 -16.5 78t-48.5 25q-5 1 -4.5 4.5t5.5 3.5q36 -3 51 -3h154q22 0 70 3q7 0 7 -4t-7 -4q-42 -2 -64.5 -25t-22.5 -78v-319q0 -110 57.5 -174.5t157.5 -64.5q63 0 111 31t74.5 87t26.5 129l-1 311q0 55 -22.5 78t-64.5 25
q-7 0 -7 4t7 4q48 -3 69 -3h37q13 0 46 3q5 0 5 -3.5t-5 -4.5q-28 -2 -42.5 -25t-14.5 -78v-308q0 -92 -32 -160t-92 -104t-142 -36q-89 0 -155 36zM582 740q-1 -3 -6 -3q-30 2 -81.5 26.5t-81.5 53.5q-30 -29 -82.5 -54t-82.5 -26q-5 0 -6 3t3 5q44 17 66 38t41 50
q15 22 26.5 31.5t33.5 9.5q23 0 35 -9.5t28 -32.5q20 -28 41.5 -48.5t62.5 -38.5q4 -2 3 -5z" />
    <glyph glyph-name="Udieresis" unicode="&#xdc;" horiz-adv-x="743" 
d="M237 20q-66 36 -101.5 102.5t-35.5 156.5v313q0 55 -16.5 78t-48.5 25q-5 1 -4.5 4.5t5.5 3.5q36 -3 51 -3h154q22 0 70 3q7 0 7 -4t-7 -4q-42 -2 -64.5 -25t-22.5 -78v-319q0 -110 57.5 -174.5t157.5 -64.5q63 0 111 31t74.5 87t26.5 129l-1 311q0 55 -22.5 78t-64.5 25
q-7 0 -7 4t7 4q48 -3 69 -3h37q13 0 46 3q5 0 5 -3.5t-5 -4.5q-28 -2 -42.5 -25t-14.5 -78v-308q0 -92 -32 -160t-92 -104t-142 -36q-89 0 -155 36zM286.5 767.5q-16.5 13.5 -16.5 33.5q1 24 19.5 39.5t48.5 15.5q24 0 40.5 -14t16.5 -34q-1 -23 -19.5 -38.5t-47.5 -15.5
q-25 0 -41.5 13.5zM446.5 767.5q-16.5 13.5 -16.5 33.5q1 24 19.5 39.5t48.5 15.5q24 0 40.5 -14t16.5 -34q-1 -23 -19.5 -38.5t-47.5 -15.5q-25 0 -41.5 13.5z" />
    <glyph glyph-name="uni01D7" unicode="&#x1d7;" horiz-adv-x="743" 
d="M237 20q-66 36 -101.5 102.5t-35.5 156.5v313q0 55 -16.5 78t-48.5 25q-5 1 -4.5 4.5t5.5 3.5q36 -3 51 -3h154q22 0 70 3q7 0 7 -4t-7 -4q-42 -2 -64.5 -25t-22.5 -78v-319q0 -110 57.5 -174.5t157.5 -64.5q63 0 111 31t74.5 87t26.5 129l-1 311q0 55 -22.5 78t-64.5 25
q-7 0 -7 4t7 4q48 -3 69 -3h37q13 0 46 3q5 0 5 -3.5t-5 -4.5q-28 -2 -42.5 -25t-14.5 -78v-308q0 -92 -32 -160t-92 -104t-142 -36q-89 0 -155 36zM286.5 767.5q-16.5 13.5 -16.5 33.5q1 24 19.5 39.5t48.5 15.5q24 0 40.5 -14t16.5 -34q-1 -23 -19.5 -38.5t-47.5 -15.5
q-25 0 -41.5 13.5zM446.5 767.5q-16.5 13.5 -16.5 33.5q1 24 19.5 39.5t48.5 15.5q24 0 40.5 -14t16.5 -34q-1 -23 -19.5 -38.5t-47.5 -15.5q-25 0 -41.5 13.5zM317.5 873q-1.5 3 3.5 5q53 30 78 52.5t45 49.5l12 16q3 3 23 3q23 0 43.5 -4.5t19.5 -12.5q0 -15 -46 -41.5
t-100.5 -49t-70.5 -22.5q-6 1 -7.5 4z" />
    <glyph glyph-name="uni01D9" unicode="&#x1d9;" horiz-adv-x="743" 
d="M237 20q-66 36 -101.5 102.5t-35.5 156.5v313q0 55 -16.5 78t-48.5 25q-5 1 -4.5 4.5t5.5 3.5q36 -3 51 -3h154q22 0 70 3q7 0 7 -4t-7 -4q-42 -2 -64.5 -25t-22.5 -78v-319q0 -110 57.5 -174.5t157.5 -64.5q63 0 111 31t74.5 87t26.5 129l-1 311q0 55 -22.5 78t-64.5 25
q-7 0 -7 4t7 4q48 -3 69 -3h37q13 0 46 3q5 0 5 -3.5t-5 -4.5q-28 -2 -42.5 -25t-14.5 -78v-308q0 -92 -32 -160t-92 -104t-142 -36q-89 0 -155 36zM286.5 767.5q-16.5 13.5 -16.5 33.5q1 24 19.5 39.5t48.5 15.5q24 0 40.5 -14t16.5 -34q-1 -23 -19.5 -38.5t-47.5 -15.5
q-25 0 -41.5 13.5zM446.5 767.5q-16.5 13.5 -16.5 33.5q1 24 19.5 39.5t48.5 15.5q24 0 40.5 -14t16.5 -34q-1 -23 -19.5 -38.5t-47.5 -15.5q-25 0 -41.5 13.5zM568 994.5q1 -2.5 -3 -4.5q-40 -16 -61 -36t-39 -47q-14 -21 -25 -30t-31 -9q-22 0 -33.5 9.5t-25.5 30.5
q-18 27 -38.5 46t-58.5 36q-4 2 -3 4.5t5 2.5q29 -2 77 -25t76 -50q29 27 78 50.5t77 24.5q4 0 5 -2.5z" />
    <glyph glyph-name="uni01DB" unicode="&#x1db;" horiz-adv-x="743" 
d="M237 20q-66 36 -101.5 102.5t-35.5 156.5v313q0 55 -16.5 78t-48.5 25q-5 1 -4.5 4.5t5.5 3.5q36 -3 51 -3h154q22 0 70 3q7 0 7 -4t-7 -4q-42 -2 -64.5 -25t-22.5 -78v-319q0 -110 57.5 -174.5t157.5 -64.5q63 0 111 31t74.5 87t26.5 129l-1 311q0 55 -22.5 78t-64.5 25
q-7 0 -7 4t7 4q48 -3 69 -3h37q13 0 46 3q5 0 5 -3.5t-5 -4.5q-28 -2 -42.5 -25t-14.5 -78v-308q0 -92 -32 -160t-92 -104t-142 -36q-89 0 -155 36zM286.5 767.5q-16.5 13.5 -16.5 33.5q1 24 19.5 39.5t48.5 15.5q24 0 40.5 -14t16.5 -34q-1 -23 -19.5 -38.5t-47.5 -15.5
q-25 0 -41.5 13.5zM446.5 767.5q-16.5 13.5 -16.5 33.5q1 24 19.5 39.5t48.5 15.5q24 0 40.5 -14t16.5 -34q-1 -23 -19.5 -38.5t-47.5 -15.5q-25 0 -41.5 13.5zM370.5 891.5q-54.5 22.5 -100.5 49t-46 41.5q-1 8 19.5 12.5t43.5 4.5q20 0 23 -3l12 -16q20 -27 45 -49.5
t78 -52.5q3 -1 3 -4q0 -4 -7 -5q-16 0 -70.5 22.5z" />
    <glyph glyph-name="uni01D5" unicode="&#x1d5;" horiz-adv-x="743" 
d="M237 20q-66 36 -101.5 102.5t-35.5 156.5v313q0 55 -16.5 78t-48.5 25q-5 1 -4.5 4.5t5.5 3.5q36 -3 51 -3h154q22 0 70 3q7 0 7 -4t-7 -4q-42 -2 -64.5 -25t-22.5 -78v-319q0 -110 57.5 -174.5t157.5 -64.5q63 0 111 31t74.5 87t26.5 129l-1 311q0 55 -22.5 78t-64.5 25
q-7 0 -7 4t7 4q48 -3 69 -3h37q13 0 46 3q5 0 5 -3.5t-5 -4.5q-28 -2 -42.5 -25t-14.5 -78v-308q0 -92 -32 -160t-92 -104t-142 -36q-89 0 -155 36zM286.5 767.5q-16.5 13.5 -16.5 33.5q1 24 19.5 39.5t48.5 15.5q24 0 40.5 -14t16.5 -34q-1 -23 -19.5 -38.5t-47.5 -15.5
q-25 0 -41.5 13.5zM446.5 767.5q-16.5 13.5 -16.5 33.5q1 24 19.5 39.5t48.5 15.5q24 0 40.5 -14t16.5 -34q-1 -23 -19.5 -38.5t-47.5 -15.5q-25 0 -41.5 13.5zM280 895q-4 0 -6.5 1.5t-2.5 3.5q0 5 9 5h259q9 0 9 -5q0 -2 -2.5 -3.5t-6.5 -1.5h-259z" />
    <glyph glyph-name="uni1EE4" unicode="&#x1ee4;" horiz-adv-x="743" 
d="M237 20q-66 36 -101.5 102.5t-35.5 156.5v313q0 55 -16.5 78t-48.5 25q-5 1 -4.5 4.5t5.5 3.5q36 -3 51 -3h154q22 0 70 3q7 0 7 -4t-7 -4q-42 -2 -64.5 -25t-22.5 -78v-319q0 -110 57.5 -174.5t157.5 -64.5q63 0 111 31t74.5 87t26.5 129l-1 311q0 55 -22.5 78t-64.5 25
q-7 0 -7 4t7 4q48 -3 69 -3h37q13 0 46 3q5 0 5 -3.5t-5 -4.5q-28 -2 -42.5 -25t-14.5 -78v-308q0 -92 -32 -160t-92 -104t-142 -36q-89 0 -155 36zM350 -147q-17 14 -17 34q1 24 19.5 40t48.5 16q24 0 40.5 -13.5t16.5 -33.5q0 -24 -18.5 -40.5t-48.5 -16.5q-24 0 -41 14z
" />
    <glyph glyph-name="Ugrave" unicode="&#xd9;" horiz-adv-x="743" 
d="M237 20q-66 36 -101.5 102.5t-35.5 156.5v313q0 55 -16.5 78t-48.5 25q-5 1 -4.5 4.5t5.5 3.5q36 -3 51 -3h154q22 0 70 3q7 0 7 -4t-7 -4q-42 -2 -64.5 -25t-22.5 -78v-319q0 -110 57.5 -174.5t157.5 -64.5q63 0 111 31t74.5 87t26.5 129l-1 311q0 55 -22.5 78t-64.5 25
q-7 0 -7 4t7 4q48 -3 69 -3h37q13 0 46 3q5 0 5 -3.5t-5 -4.5q-28 -2 -42.5 -25t-14.5 -78v-308q0 -92 -32 -160t-92 -104t-142 -36q-89 0 -155 36zM372.5 763.5q-54.5 22.5 -100.5 49t-46 41.5q-1 8 19.5 12.5t43.5 4.5q20 0 23 -3l12 -16q20 -27 45 -49.5t78 -52.5
q3 -1 3 -4q0 -4 -7 -5q-16 0 -70.5 22.5z" />
    <glyph glyph-name="Uhungarumlaut" unicode="&#x170;" horiz-adv-x="743" 
d="M237 20q-66 36 -101.5 102.5t-35.5 156.5v313q0 55 -16.5 78t-48.5 25q-5 1 -4.5 4.5t5.5 3.5q36 -3 51 -3h154q22 0 70 3q7 0 7 -4t-7 -4q-42 -2 -64.5 -25t-22.5 -78v-319q0 -110 57.5 -174.5t157.5 -64.5q63 0 111 31t74.5 87t26.5 129l-1 311q0 55 -22.5 78t-64.5 25
q-7 0 -7 4t7 4q48 -3 69 -3h37q13 0 46 3q5 0 5 -3.5t-5 -4.5q-28 -2 -42.5 -25t-14.5 -78v-308q0 -92 -32 -160t-92 -104t-142 -36q-89 0 -155 36zM239 738q-4 0 -5 3t3 5q41 32 58.5 60t28.5 60q6 17 11.5 25t16.5 9q19 3 44 3q37 0 37 -8q0 -16 -40 -52t-88.5 -69
t-64.5 -36h-1zM400 738q-3 0 -4 3t3 5q40 32 58 60.5t29 59.5q6 18 11 25.5t16 8.5q20 3 44 3q38 0 38 -8q0 -16 -40.5 -52t-89 -69t-64.5 -36h-1z" />
    <glyph glyph-name="Umacron" unicode="&#x16a;" horiz-adv-x="743" 
d="M237 20q-66 36 -101.5 102.5t-35.5 156.5v313q0 55 -16.5 78t-48.5 25q-5 1 -4.5 4.5t5.5 3.5q36 -3 51 -3h154q22 0 70 3q7 0 7 -4t-7 -4q-42 -2 -64.5 -25t-22.5 -78v-319q0 -110 57.5 -174.5t157.5 -64.5q63 0 111 31t74.5 87t26.5 129l-1 311q0 55 -22.5 78t-64.5 25
q-7 0 -7 4t7 4q48 -3 69 -3h37q13 0 46 3q5 0 5 -3.5t-5 -4.5q-28 -2 -42.5 -25t-14.5 -78v-308q0 -92 -32 -160t-92 -104t-142 -36q-89 0 -155 36zM282 767q-4 0 -6.5 1.5t-2.5 3.5q0 5 9 5h259q9 0 9 -5q0 -2 -2.5 -3.5t-6.5 -1.5h-259z" />
    <glyph glyph-name="Uogonek" unicode="&#x172;" horiz-adv-x="743" 
d="M720 699.5q0 -3.5 -5 -4.5q-28 -2 -42.5 -25t-14.5 -78v-308q0 -98 -36 -168t-102 -104q-23 -23 -32 -42.5t-9 -39.5q0 -24 12.5 -36.5t33.5 -12.5q58 0 58 59q0 6 3.5 6t3.5 -6q0 -44 -29 -71.5t-79 -27.5q-36 0 -56 16t-20 45q0 48 60 91q-34 -9 -74 -9q-89 0 -155 36
t-101.5 102.5t-35.5 156.5v313q0 55 -16.5 78t-48.5 25q-5 1 -4.5 4.5t5.5 3.5q36 -3 51 -3h154q22 0 70 3q7 0 7 -4t-7 -4q-42 -2 -64.5 -25t-22.5 -78v-319q0 -110 57.5 -174.5t157.5 -64.5q63 0 111 31t74.5 87t26.5 129l-1 311q0 55 -22.5 78t-64.5 25q-7 0 -7 4t7 4
q48 -3 69 -3h37q13 0 46 3q5 0 5 -3.5z" />
    <glyph glyph-name="Uring" unicode="&#x16e;" horiz-adv-x="743" 
d="M237 20q-66 36 -101.5 102.5t-35.5 156.5v313q0 55 -16.5 78t-48.5 25q-5 1 -4.5 4.5t5.5 3.5q36 -3 51 -3h154q22 0 70 3q7 0 7 -4t-7 -4q-42 -2 -64.5 -25t-22.5 -78v-319q0 -110 57.5 -174.5t157.5 -64.5q63 0 111 31t74.5 87t26.5 129l-1 311q0 55 -22.5 78t-64.5 25
q-7 0 -7 4t7 4q48 -3 69 -3h37q13 0 46 3q5 0 5 -3.5t-5 -4.5q-28 -2 -42.5 -25t-14.5 -78v-308q0 -92 -32 -160t-92 -104t-142 -36q-89 0 -155 36zM338 746.5q-27 20.5 -27 52.5q0 30 29 54t70 24q40 0 69 -20t29 -51q0 -32 -30.5 -56t-74.5 -24q-38 0 -65 20.5zM466 773
q0 17 -12 39t-30 37.5t-35 15.5q-34 0 -34 -33q0 -17 11.5 -39.5t29.5 -38t36 -15.5q34 0 34 34z" />
    <glyph glyph-name="Utilde" unicode="&#x168;" horiz-adv-x="743" 
d="M237 20q-66 36 -101.5 102.5t-35.5 156.5v313q0 55 -16.5 78t-48.5 25q-5 1 -4.5 4.5t5.5 3.5q36 -3 51 -3h154q22 0 70 3q7 0 7 -4t-7 -4q-42 -2 -64.5 -25t-22.5 -78v-319q0 -110 57.5 -174.5t157.5 -64.5q63 0 111 31t74.5 87t26.5 129l-1 311q0 55 -22.5 78t-64.5 25
q-7 0 -7 4t7 4q48 -3 69 -3h37q13 0 46 3q5 0 5 -3.5t-5 -4.5q-28 -2 -42.5 -25t-14.5 -78v-308q0 -92 -32 -160t-92 -104t-142 -36q-89 0 -155 36zM245 740q-2 0 -3 2t0 6q16 49 42 72.5t64 23.5q29 0 64 -13l43 -16q30 -12 54 -12q42 0 64 42q3 4 6 4q5 0 2 -8
q-32 -98 -106 -98q-25 0 -62 13l-47 17q-45 17 -70 17q-19 0 -29 -10.5t-17 -33.5q-2 -6 -5 -6z" />
    <glyph glyph-name="Wacute" unicode="&#x1e82;" horiz-adv-x="1056" 
d="M1051 699.5q0 -3.5 -4 -4.5q-26 -1 -43 -22.5t-36 -76.5l-176 -526l-1 -2q-1 -3 -1 -9q0 -7 2 -11l5 -10q2 -6 2 -7q0 -7 -8 -9l-95 -34l-8 -2q-4 0 -7 3t-4 6l-148 447l-126 -371q-2 -4 -2 -12q0 -7 2 -11l4 -10q2 -6 2 -7q0 -7 -7 -9l-96 -34q-6 -2 -8 -2q-8 0 -10 9
l-200 601q-18 54 -35 75.5t-43 23.5q-5 1 -5 4.5t5 3.5q33 -3 47 -3h156q19 0 58 3q6 0 6.5 -3.5t-6.5 -4.5q-60 -4 -60 -55q0 -21 8 -44l170 -513q2 -4 5.5 -4t4.5 4l118 347q4 16 4 21q0 10 -6 28l2 -1l-39 118q-18 54 -40.5 75.5t-57.5 23.5q-6 1 -5.5 4.5t6.5 3.5
q42 -3 61 -3h162q21 0 63 3q6 0 6.5 -3.5t-6.5 -4.5q-67 -4 -67 -58q0 -16 8 -42l169 -511q2 -6 6 -6q3 0 6 5v1l171 512q8 26 8 41q0 29 -19.5 42.5t-51.5 15.5q-7 1 -6.5 4.5t6.5 3.5q48 -3 67 -3h36q16 0 46 3q5 0 5 -3.5zM437.5 745q-1.5 3 3.5 5q53 30 78 52.5t45 49.5
l12 16q3 3 23 3q23 0 43.5 -4.5t19.5 -12.5q0 -15 -46 -41.5t-100.5 -49t-70.5 -22.5q-6 1 -7.5 4z" />
    <glyph glyph-name="Wcircumflex" unicode="&#x174;" horiz-adv-x="1056" 
d="M1051 699.5q0 -3.5 -4 -4.5q-26 -1 -43 -22.5t-36 -76.5l-176 -526l-1 -2q-1 -3 -1 -9q0 -7 2 -11l5 -10q2 -6 2 -7q0 -7 -8 -9l-95 -34l-8 -2q-4 0 -7 3t-4 6l-148 447l-126 -371q-2 -4 -2 -12q0 -7 2 -11l4 -10q2 -6 2 -7q0 -7 -7 -9l-96 -34q-6 -2 -8 -2q-8 0 -10 9
l-200 601q-18 54 -35 75.5t-43 23.5q-5 1 -5 4.5t5 3.5q33 -3 47 -3h156q19 0 58 3q6 0 6.5 -3.5t-6.5 -4.5q-60 -4 -60 -55q0 -21 8 -44l170 -513q2 -4 5.5 -4t4.5 4l118 347q4 16 4 21q0 10 -6 28l2 -1l-39 118q-18 54 -40.5 75.5t-57.5 23.5q-6 1 -5.5 4.5t6.5 3.5
q42 -3 61 -3h162q21 0 63 3q6 0 6.5 -3.5t-6.5 -4.5q-67 -4 -67 -58q0 -16 8 -42l169 -511q2 -6 6 -6q3 0 6 5v1l171 512q8 26 8 41q0 29 -19.5 42.5t-51.5 15.5q-7 1 -6.5 4.5t6.5 3.5q48 -3 67 -3h36q16 0 46 3q5 0 5 -3.5zM699 740q-1 -3 -6 -3q-30 2 -81.5 26.5
t-81.5 53.5q-30 -29 -82.5 -54t-82.5 -26q-5 0 -6 3t3 5q44 17 66 38t41 50q15 22 26.5 31.5t33.5 9.5q23 0 35 -9.5t28 -32.5q20 -28 41.5 -48.5t62.5 -38.5q4 -2 3 -5z" />
    <glyph glyph-name="Wdieresis" unicode="&#x1e84;" horiz-adv-x="1056" 
d="M1051 699.5q0 -3.5 -4 -4.5q-26 -1 -43 -22.5t-36 -76.5l-176 -526l-1 -2q-1 -3 -1 -9q0 -7 2 -11l5 -10q2 -6 2 -7q0 -7 -8 -9l-95 -34l-8 -2q-4 0 -7 3t-4 6l-148 447l-126 -371q-2 -4 -2 -12q0 -7 2 -11l4 -10q2 -6 2 -7q0 -7 -7 -9l-96 -34q-6 -2 -8 -2q-8 0 -10 9
l-200 601q-18 54 -35 75.5t-43 23.5q-5 1 -5 4.5t5 3.5q33 -3 47 -3h156q19 0 58 3q6 0 6.5 -3.5t-6.5 -4.5q-60 -4 -60 -55q0 -21 8 -44l170 -513q2 -4 5.5 -4t4.5 4l118 347q4 16 4 21q0 10 -6 28l2 -1l-39 118q-18 54 -40.5 75.5t-57.5 23.5q-6 1 -5.5 4.5t6.5 3.5
q42 -3 61 -3h162q21 0 63 3q6 0 6.5 -3.5t-6.5 -4.5q-67 -4 -67 -58q0 -16 8 -42l169 -511q2 -6 6 -6q3 0 6 5v1l171 512q8 26 8 41q0 29 -19.5 42.5t-51.5 15.5q-7 1 -6.5 4.5t6.5 3.5q48 -3 67 -3h36q16 0 46 3q5 0 5 -3.5zM403.5 767.5q-16.5 13.5 -16.5 33.5
q1 24 19.5 39.5t48.5 15.5q24 0 40.5 -14t16.5 -34q-1 -23 -19.5 -38.5t-47.5 -15.5q-25 0 -41.5 13.5zM563.5 767.5q-16.5 13.5 -16.5 33.5q1 24 19.5 39.5t48.5 15.5q24 0 40.5 -14t16.5 -34q-1 -23 -19.5 -38.5t-47.5 -15.5q-25 0 -41.5 13.5z" />
    <glyph glyph-name="Wgrave" unicode="&#x1e80;" horiz-adv-x="1056" 
d="M1051 699.5q0 -3.5 -4 -4.5q-26 -1 -43 -22.5t-36 -76.5l-176 -526l-1 -2q-1 -3 -1 -9q0 -7 2 -11l5 -10q2 -6 2 -7q0 -7 -8 -9l-95 -34l-8 -2q-4 0 -7 3t-4 6l-148 447l-126 -371q-2 -4 -2 -12q0 -7 2 -11l4 -10q2 -6 2 -7q0 -7 -7 -9l-96 -34q-6 -2 -8 -2q-8 0 -10 9
l-200 601q-18 54 -35 75.5t-43 23.5q-5 1 -5 4.5t5 3.5q33 -3 47 -3h156q19 0 58 3q6 0 6.5 -3.5t-6.5 -4.5q-60 -4 -60 -55q0 -21 8 -44l170 -513q2 -4 5.5 -4t4.5 4l118 347q4 16 4 21q0 10 -6 28l2 -1l-39 118q-18 54 -40.5 75.5t-57.5 23.5q-6 1 -5.5 4.5t6.5 3.5
q42 -3 61 -3h162q21 0 63 3q6 0 6.5 -3.5t-6.5 -4.5q-67 -4 -67 -58q0 -16 8 -42l169 -511q2 -6 6 -6q3 0 6 5v1l171 512q8 26 8 41q0 29 -19.5 42.5t-51.5 15.5q-7 1 -6.5 4.5t6.5 3.5q48 -3 67 -3h36q16 0 46 3q5 0 5 -3.5zM490.5 763.5q-54.5 22.5 -100.5 49t-46 41.5
q-1 8 19.5 12.5t43.5 4.5q20 0 23 -3l12 -16q20 -27 45 -49.5t78 -52.5q3 -1 3 -4q0 -4 -7 -5q-16 0 -70.5 22.5z" />
    <glyph glyph-name="Yacute" unicode="&#xdd;" horiz-adv-x="663" 
d="M200 -3q-5 0 -5.5 3.5t5.5 4.5q35 2 54 25t18 78v149q0 21 -9 36l-164 307q-29 55 -47 75t-42 21q-5 0 -4.5 3.5t4.5 3.5l47 -3h162l69 3q7 0 7.5 -3.5t-6.5 -3.5q-31 -1 -51 -13t-20 -37q0 -18 14 -46l154 -293q3 -7 8 -7q3 0 8 8l154 292q14 25 14 46q0 24 -20 36
t-50 13q-7 0 -7 4t7 4q48 -3 69 -3h38q13 0 46 3q5 0 5 -3.5t-5 -4.5q-24 -1 -41.5 -20.5t-46.5 -74.5l-161 -306q-8 -15 -8 -37v-149q0 -55 19 -78t53 -25q7 -1 6.5 -4.5t-6.5 -3.5q-39 3 -58 3h-152q-16 0 -58 -3zM237.5 745q-1.5 3 3.5 5q53 30 78 52.5t45 49.5l12 16
q3 3 23 3q23 0 43.5 -4.5t19.5 -12.5q0 -15 -46 -41.5t-100.5 -49t-70.5 -22.5q-6 1 -7.5 4z" />
    <glyph glyph-name="Ycircumflex" unicode="&#x176;" horiz-adv-x="663" 
d="M200 -3q-5 0 -5.5 3.5t5.5 4.5q35 2 54 25t18 78v149q0 21 -9 36l-164 307q-29 55 -47 75t-42 21q-5 0 -4.5 3.5t4.5 3.5l47 -3h162l69 3q7 0 7.5 -3.5t-6.5 -3.5q-31 -1 -51 -13t-20 -37q0 -18 14 -46l154 -293q3 -7 8 -7q3 0 8 8l154 292q14 25 14 46q0 24 -20 36
t-50 13q-7 0 -7 4t7 4q48 -3 69 -3h38q13 0 46 3q5 0 5 -3.5t-5 -4.5q-24 -1 -41.5 -20.5t-46.5 -74.5l-161 -306q-8 -15 -8 -37v-149q0 -55 19 -78t53 -25q7 -1 6.5 -4.5t-6.5 -3.5q-39 3 -58 3h-152q-16 0 -58 -3zM499 740q-1 -3 -6 -3q-30 2 -81.5 26.5t-81.5 53.5
q-30 -29 -82.5 -54t-82.5 -26q-5 0 -6 3t3 5q44 17 66 38t41 50q15 22 26.5 31.5t33.5 9.5q23 0 35 -9.5t28 -32.5q20 -28 41.5 -48.5t62.5 -38.5q4 -2 3 -5z" />
    <glyph glyph-name="Ydieresis" unicode="&#x178;" horiz-adv-x="663" 
d="M200 -3q-5 0 -5.5 3.5t5.5 4.5q35 2 54 25t18 78v149q0 21 -9 36l-164 307q-29 55 -47 75t-42 21q-5 0 -4.5 3.5t4.5 3.5l47 -3h162l69 3q7 0 7.5 -3.5t-6.5 -3.5q-31 -1 -51 -13t-20 -37q0 -18 14 -46l154 -293q3 -7 8 -7q3 0 8 8l154 292q14 25 14 46q0 24 -20 36
t-50 13q-7 0 -7 4t7 4q48 -3 69 -3h38q13 0 46 3q5 0 5 -3.5t-5 -4.5q-24 -1 -41.5 -20.5t-46.5 -74.5l-161 -306q-8 -15 -8 -37v-149q0 -55 19 -78t53 -25q7 -1 6.5 -4.5t-6.5 -3.5q-39 3 -58 3h-152q-16 0 -58 -3zM204.5 767.5q-16.5 13.5 -16.5 33.5q1 24 19.5 39.5
t48.5 15.5q24 0 40.5 -14t16.5 -34q-1 -23 -19.5 -38.5t-47.5 -15.5q-25 0 -41.5 13.5zM364.5 767.5q-16.5 13.5 -16.5 33.5q1 24 19.5 39.5t48.5 15.5q24 0 40.5 -14t16.5 -34q-1 -23 -19.5 -38.5t-47.5 -15.5q-25 0 -41.5 13.5z" />
    <glyph glyph-name="uni1E8E" unicode="&#x1e8e;" horiz-adv-x="663" 
d="M200 -3q-5 0 -5.5 3.5t5.5 4.5q35 2 54 25t18 78v149q0 21 -9 36l-164 307q-29 55 -47 75t-42 21q-5 0 -4.5 3.5t4.5 3.5l47 -3h162l69 3q7 0 7.5 -3.5t-6.5 -3.5q-31 -1 -51 -13t-20 -37q0 -18 14 -46l154 -293q3 -7 8 -7q3 0 8 8l154 292q14 25 14 46q0 24 -20 36
t-50 13q-7 0 -7 4t7 4q48 -3 69 -3h38q13 0 46 3q5 0 5 -3.5t-5 -4.5q-24 -1 -41.5 -20.5t-46.5 -74.5l-161 -306q-8 -15 -8 -37v-149q0 -55 19 -78t53 -25q7 -1 6.5 -4.5t-6.5 -3.5q-39 3 -58 3h-152q-16 0 -58 -3zM279 758q-16 13 -16 32q0 24 22 40.5t57 16.5
q28 0 44.5 -13t16.5 -32q0 -24 -22.5 -40.5t-57.5 -16.5q-28 0 -44 13z" />
    <glyph glyph-name="Ygrave" unicode="&#x1ef2;" horiz-adv-x="663" 
d="M200 -3q-5 0 -5.5 3.5t5.5 4.5q35 2 54 25t18 78v149q0 21 -9 36l-164 307q-29 55 -47 75t-42 21q-5 0 -4.5 3.5t4.5 3.5l47 -3h162l69 3q7 0 7.5 -3.5t-6.5 -3.5q-31 -1 -51 -13t-20 -37q0 -18 14 -46l154 -293q3 -7 8 -7q3 0 8 8l154 292q14 25 14 46q0 24 -20 36
t-50 13q-7 0 -7 4t7 4q48 -3 69 -3h38q13 0 46 3q5 0 5 -3.5t-5 -4.5q-24 -1 -41.5 -20.5t-46.5 -74.5l-161 -306q-8 -15 -8 -37v-149q0 -55 19 -78t53 -25q7 -1 6.5 -4.5t-6.5 -3.5q-39 3 -58 3h-152q-16 0 -58 -3zM290.5 763.5q-54.5 22.5 -100.5 49t-46 41.5
q-1 8 19.5 12.5t43.5 4.5q20 0 23 -3l12 -16q20 -27 45 -49.5t78 -52.5q3 -1 3 -4q0 -4 -7 -5q-16 0 -70.5 22.5z" />
    <glyph glyph-name="uni0232" unicode="&#x232;" horiz-adv-x="663" 
d="M200 -3q-5 0 -5.5 3.5t5.5 4.5q35 2 54 25t18 78v149q0 21 -9 36l-164 307q-29 55 -47 75t-42 21q-5 0 -4.5 3.5t4.5 3.5l47 -3h162l69 3q7 0 7.5 -3.5t-6.5 -3.5q-31 -1 -51 -13t-20 -37q0 -18 14 -46l154 -293q3 -7 8 -7q3 0 8 8l154 292q14 25 14 46q0 24 -20 36
t-50 13q-7 0 -7 4t7 4q48 -3 69 -3h38q13 0 46 3q5 0 5 -3.5t-5 -4.5q-24 -1 -41.5 -20.5t-46.5 -74.5l-161 -306q-8 -15 -8 -37v-149q0 -55 19 -78t53 -25q7 -1 6.5 -4.5t-6.5 -3.5q-39 3 -58 3h-152q-16 0 -58 -3zM199 767q-4 0 -6.5 1.5t-2.5 3.5q0 5 9 5h259q9 0 9 -5
q0 -2 -2.5 -3.5t-6.5 -1.5h-259z" />
    <glyph glyph-name="Zacute" unicode="&#x179;" horiz-adv-x="669" 
d="M561 -8q-43 8 -73 8h-346q-30 0 -60 -2q-11 -1 -26 -1q-10 0 -15 3.5t-5 9.5q0 9 8 22l437 647q3 5 3 8q0 7 -9 7l-243 -12q-44 -2 -73 -20t-50.5 -61.5t-40.5 -125.5q-1 -5 -4.5 -4.5t-2.5 5.5q8 55 11.5 102t5.5 110q0 23 19 23q7 0 13.5 -1t13.5 -2q45 -9 96 -9l222 1
l164 2q12 0 12 -9q0 -10 -17 -34l-429 -641q-3 -3 -3 -7q0 -5 8 -5l274 13q59 3 103 64t67 179q0 4 4 4q3 0 2 -5q-21 -125 -21 -249q0 -12 -4 -18t-15 -6q-6 0 -26 4zM237.5 745q-1.5 3 3.5 5q53 30 78 52.5t45 49.5l12 16q3 3 23 3q23 0 43.5 -4.5t19.5 -12.5
q0 -15 -46 -41.5t-100.5 -49t-70.5 -22.5q-6 1 -7.5 4z" />
    <glyph glyph-name="Zcaron" unicode="&#x17d;" horiz-adv-x="669" 
d="M561 -8q-43 8 -73 8h-346q-30 0 -60 -2q-11 -1 -26 -1q-10 0 -15 3.5t-5 9.5q0 9 8 22l437 647q3 5 3 8q0 7 -9 7l-243 -12q-44 -2 -73 -20t-50.5 -61.5t-40.5 -125.5q-1 -5 -4.5 -4.5t-2.5 5.5q8 55 11.5 102t5.5 110q0 23 19 23q7 0 13.5 -1t13.5 -2q45 -9 96 -9l222 1
l164 2q12 0 12 -9q0 -10 -17 -34l-429 -641q-3 -3 -3 -7q0 -5 8 -5l274 13q59 3 103 64t67 179q0 4 4 4q3 0 2 -5q-21 -125 -21 -249q0 -12 -4 -18t-15 -6q-6 0 -26 4zM488 866.5q1 -2.5 -3 -4.5q-40 -16 -61 -36t-39 -47q-14 -21 -25 -30t-31 -9q-22 0 -33.5 9.5
t-25.5 30.5q-18 27 -38.5 46t-58.5 36q-4 2 -3 4.5t5 2.5q29 -2 77 -25t76 -50q29 27 78 50.5t77 24.5q4 0 5 -2.5z" />
    <glyph glyph-name="Zdotaccent" unicode="&#x17b;" horiz-adv-x="669" 
d="M561 -8q-43 8 -73 8h-346q-30 0 -60 -2q-11 -1 -26 -1q-10 0 -15 3.5t-5 9.5q0 9 8 22l437 647q3 5 3 8q0 7 -9 7l-243 -12q-44 -2 -73 -20t-50.5 -61.5t-40.5 -125.5q-1 -5 -4.5 -4.5t-2.5 5.5q8 55 11.5 102t5.5 110q0 23 19 23q7 0 13.5 -1t13.5 -2q45 -9 96 -9l222 1
l164 2q12 0 12 -9q0 -10 -17 -34l-429 -641q-3 -3 -3 -7q0 -5 8 -5l274 13q59 3 103 64t67 179q0 4 4 4q3 0 2 -5q-21 -125 -21 -249q0 -12 -4 -18t-15 -6q-6 0 -26 4zM279 758q-16 13 -16 32q0 24 22 40.5t57 16.5q28 0 44.5 -13t16.5 -32q0 -24 -22.5 -40.5t-57.5 -16.5
q-28 0 -44 13z" />
    <glyph glyph-name="uni1E92" unicode="&#x1e92;" horiz-adv-x="669" 
d="M561 -8q-43 8 -73 8h-346q-30 0 -60 -2q-11 -1 -26 -1q-10 0 -15 3.5t-5 9.5q0 9 8 22l437 647q3 5 3 8q0 7 -9 7l-243 -12q-44 -2 -73 -20t-50.5 -61.5t-40.5 -125.5q-1 -5 -4.5 -4.5t-2.5 5.5q8 55 11.5 102t5.5 110q0 23 19 23q7 0 13.5 -1t13.5 -2q45 -9 96 -9l222 1
l164 2q12 0 12 -9q0 -10 -17 -34l-429 -641q-3 -3 -3 -7q0 -5 8 -5l274 13q59 3 103 64t67 179q0 4 4 4q3 0 2 -5q-21 -125 -21 -249q0 -12 -4 -18t-15 -6q-6 0 -26 4zM289 -147q-17 14 -17 34q1 24 19.5 40t48.5 16q24 0 40.5 -13.5t16.5 -33.5q0 -24 -18.5 -40.5
t-48.5 -16.5q-24 0 -41 14z" />
    <glyph glyph-name="Q.calt" horiz-adv-x="831" 
d="M1406 -69q2 -2 -3 -6q-67 -50 -169.5 -81.5t-205.5 -31.5q-151 0 -306.5 51t-257.5 127q-36 -6 -74 -6q-102 0 -182 45t-125 125.5t-45 182.5t51 188.5t141.5 138t202.5 51.5q104 0 185.5 -45.5t127.5 -125.5t46 -180q0 -112 -61 -204.5t-164 -138.5l29 -14
q247 -127 532 -127q177 0 271 50q5 3 7 1zM189 273q39 -99 105.5 -169.5t142.5 -85.5q-4 11 6 18.5t31 7.5q33 0 79 -18q61 21 94 75.5t33 136.5q0 103 -46 208t-122 172.5t-160 67.5q-94 0 -148 -57.5t-54 -160.5q0 -96 39 -195z" />
    <glyph glyph-name="K.dlig" horiz-adv-x="691" 
d="M1043.5 -71.5q1.5 -3.5 -3.5 -5.5q-57 -42 -115.5 -62t-125.5 -20q-181 0 -304 141t-178 385l-82 -96v-163q0 -55 18.5 -78t53.5 -25q6 -1 6 -4.5t-6 -3.5q-39 3 -58 3h-152q-19 0 -58 -3q-6 0 -6 3.5t6 4.5q35 2 53.5 25t18.5 78v484q0 55 -18.5 78t-53.5 25
q-6 1 -6 4.5t6 3.5q39 -3 58 -3h152q19 0 58 3q6 0 6 -3.5t-6 -4.5q-35 -2 -53.5 -25t-18.5 -78v-311l80 95l-3 13l16 2l182 217q24 30 24 50q0 17 -14.5 26.5t-36.5 10.5q-6 1 -5.5 4.5t5.5 3.5q39 -3 56 -3h45q22 0 73 3q7 0 7 -4t-7 -4q-38 -1 -66 -20.5t-68 -66.5
l-184 -215q41 7 92 27q4 1 6.5 -0.5t2.5 -4.5q20 -179 82.5 -299t150.5 -178t188 -58q46 0 88.5 12.5t87.5 36.5q5 3 6.5 -0.5z" />
    <glyph glyph-name="R.dlig" horiz-adv-x="685" 
d="M1043.5 -71q1.5 -3 -3.5 -6q-55 -43 -113.5 -62.5t-127.5 -19.5q-181 0 -294 132t-167 368l-58 2q-5 1 -5 3.5t5 3.5l37 1l18 2v1h3q75 12 110 59t35 123q0 82 -41.5 119.5t-128.5 39.5l-44 2q-19 0 -26.5 -8t-7.5 -29v-552q0 -55 18.5 -78t53.5 -25q6 -1 6 -4.5t-6 -3.5
q-39 3 -58 3h-152q-19 0 -58 -3q-6 0 -6 3.5t6 4.5q35 2 53.5 25t18.5 78v484q0 55 -18.5 78t-53.5 25q-7 0 -6.5 3.5t6.5 3.5q26 -2 58 -2q28 0 62.5 1.5t51.5 1.5q88 2 127 2q147 0 215.5 -43t68.5 -134q0 -71 -55.5 -119t-157.5 -62q25 0 52 3h3q9 0 11 -10
q41 -230 140 -345t246 -115q46 0 88 12.5t88 36.5q5 3 6.5 0z" />
    <glyph glyph-name="uni01CD.ss01" horiz-adv-x="730" 
d="M206 866.5q1 2.5 5 2.5q29 -2 77 -25t76 -50q29 27 78 50.5t77 24.5q4 0 5 -2.5t-3 -4.5q-40 -16 -61 -36t-39 -47q-14 -21 -25 -30t-31 -9q-22 0 -33.5 9.5t-25.5 30.5q-18 27 -38.5 46t-58.5 36q-4 2 -3 4.5zM725 0.5q0 -3.5 -5 -3.5q-30 3 -43 3h-160q-21 0 -72 -3
q-8 0 -8 4t8 4q75 4 75 55q0 19 -10 43l-35 84q-8 10 -29 10h-289q-9 0 -17 -4.5t-12 -12.5l-32 -77q-10 -23 -10 -41q0 -53 79 -57q8 0 8 -4t-8 -4q-51 3 -75 3h-37q-13 0 -43 -3q-5 0 -5 3.5t4 4.5q24 1 40 21.5t39 76.5l200 484q5 10 5 23q0 14 -6 30l-17 41
q-5 13 -17 14q-3 1 -1.5 3t5.5 2h123q7 0 11 -2.5t7 -8.5l243 -586q23 -55 39 -76t40 -22q5 -1 5 -4.5zM456 209.5q5 5.5 5 12.5l-158 381l-157 -379l1 1q-2 -3 -2 -9t3.5 -9t9.5 -3h285q8 0 13 5.5z" />
    <glyph glyph-name="uni1EAC.ss01" horiz-adv-x="730" 
d="M195 740q-1 3 3 5q44 17 66 38t41 50q15 22 26.5 31.5t33.5 9.5q23 0 35 -9.5t28 -32.5q20 -28 41.5 -48.5t62.5 -38.5q4 -2 3 -5t-6 -3q-30 2 -81.5 26.5t-81.5 53.5q-30 -29 -82.5 -54t-82.5 -26q-5 0 -6 3zM725 0.5q0 -3.5 -5 -3.5q-30 3 -43 3h-160q-21 0 -72 -3
q-8 0 -8 4t8 4q75 4 75 55q0 19 -10 43l-35 84q-8 10 -29 10h-289q-9 0 -17 -4.5t-12 -12.5l-32 -77q-10 -23 -10 -41q0 -53 79 -57q8 0 8 -4t-8 -4q-51 3 -75 3h-37q-13 0 -43 -3q-5 0 -5 3.5t4 4.5q24 1 40 21.5t39 76.5l200 484q5 10 5 23q0 14 -6 30l-17 41
q-5 13 -17 14q-3 1 -1.5 3t5.5 2h123q7 0 11 -2.5t7 -8.5l243 -586q23 -55 39 -76t40 -22q5 -1 5 -4.5zM456 209.5q5 5.5 5 12.5l-158 381l-157 -379l1 1q-2 -3 -2 -9t3.5 -9t9.5 -3h285q8 0 13 5.5zM416.5 -72q16.5 -14 16.5 -34q-1 -23 -19.5 -39t-48.5 -16q-24 0 -41 14
t-17 34q1 23 20 39t49 16q24 0 40.5 -14z" />
    <glyph glyph-name="uni1E2A.ss01" horiz-adv-x="808" 
d="M775 0.5q0 -3.5 -6 -3.5q-39 3 -58 3h-152q-19 0 -58 -3q-5 0 -5.5 3.5t5.5 4.5q35 2 53.5 25t18.5 78v241q0 10 -3.5 14t-13.5 4h-305q-10 0 -13 -6t-3 -18v-235q0 -55 18.5 -78t53.5 -25q6 -1 6 -4.5t-6 -3.5q-39 3 -58 3h-152q-19 0 -58 -3q-6 0 -6 3.5t6 4.5
q35 2 53.5 25t18.5 78v484q0 55 -18.5 78t-53.5 25q-6 1 -6 4.5t6 3.5q39 -3 58 -3h152q19 0 58 3q6 0 6 -3.5t-6 -4.5q-35 -2 -53.5 -25t-18.5 -78v-205q3 -13 15 -13h304q19 0 19 22v196q0 55 -18.5 78t-53.5 25q-6 1 -5.5 4.5t5.5 3.5q39 -3 58 -3h152q19 0 58 3
q6 0 6 -3.5t-6 -4.5q-35 -2 -53.5 -25t-18.5 -78v-484q0 -55 18.5 -78t53.5 -25q6 -1 6 -4.5zM523 -69q0 -50 -30 -89.5t-94 -39.5q-44 0 -72.5 20.5t-42 51t-13.5 59.5q0 6 7 9t27 3q28 0 37 -3t9 -10q0 -37 21 -69.5t61 -32.5q44 0 62.5 32t18.5 69q0 6 4 6q5 0 5 -6z" />
    <glyph glyph-name="uni1E24.ss01" horiz-adv-x="808" 
d="M775 0.5q0 -3.5 -6 -3.5q-39 3 -58 3h-152q-19 0 -58 -3q-5 0 -5.5 3.5t5.5 4.5q35 2 53.5 25t18.5 78v241q0 10 -3.5 14t-13.5 4h-305q-10 0 -13 -6t-3 -18v-235q0 -55 18.5 -78t53.5 -25q6 -1 6 -4.5t-6 -3.5q-39 3 -58 3h-152q-19 0 -58 -3q-6 0 -6 3.5t6 4.5
q35 2 53.5 25t18.5 78v484q0 55 -18.5 78t-53.5 25q-6 1 -6 4.5t6 3.5q39 -3 58 -3h152q19 0 58 3q6 0 6 -3.5t-6 -4.5q-35 -2 -53.5 -25t-18.5 -78v-205q3 -13 15 -13h304q19 0 19 22v196q0 55 -18.5 78t-53.5 25q-6 1 -5.5 4.5t5.5 3.5q39 -3 58 -3h152q19 0 58 3
q6 0 6 -3.5t-6 -4.5q-35 -2 -53.5 -25t-18.5 -78v-484q0 -55 18.5 -78t53.5 -25q6 -1 6 -4.5zM453.5 -72q16.5 -14 16.5 -34q-1 -23 -19.5 -39t-48.5 -16q-24 0 -41 14t-17 34q1 23 20 39t49 16q24 0 40.5 -14z" />
    <glyph glyph-name="uni0136.ss01" horiz-adv-x="744" 
d="M729.5 0.5q-0.5 -3.5 -6.5 -3.5q-39 3 -57 3h-98q-20 0 -31.5 11.5t-18.5 34.5l-62 168q-31 80 -75 117t-128 37h-19v-260q0 -55 18.5 -78t53.5 -25q7 -1 6.5 -4.5t-6.5 -3.5q-39 3 -58 3h-151q-19 0 -58 -3q-6 0 -6 3.5t6 4.5q35 2 53.5 25t18.5 78v484q0 55 -18.5 78
t-53.5 25q-6 1 -6 4.5t6 3.5q39 -3 58 -3h151q19 0 58 3q6 0 6.5 -3.5t-6.5 -4.5q-35 -2 -53.5 -25t-18.5 -78v-217h16q64 0 108 17.5t72.5 45.5t56.5 71l61 94q19 29 19 50q0 20 -15.5 30.5t-39.5 11.5q-7 1 -6.5 4.5t6.5 3.5q39 -3 58 -3h41q21 0 69 3q7 0 7 -4t-7 -4
q-37 -1 -63.5 -21.5t-59.5 -70.5l-62 -95q-38 -58 -76 -90t-99 -43q108 -4 171 -44.5t99 -134.5l37 -93q22 -54 43 -75t54 -23q6 -1 5.5 -4.5zM300.5 -224.5q-0.5 2.5 3.5 4.5q60 29 60 77q0 9 -8 12.5t-23 5.5q-20 3 -31 9t-11 23q0 15 18.5 28.5t44.5 13.5
q29 0 42.5 -13.5t13.5 -34.5q0 -28 -17 -54.5t-42 -45.5t-46 -26q-4 -2 -4.5 0.5z" />
    <glyph glyph-name="uni1E42.ss01" horiz-adv-x="888" 
d="M792.5 670q-19.5 -23 -19.5 -78v-484q0 -55 19 -78t54 -25q6 -1 5.5 -4.5t-5.5 -3.5q-42 3 -58 3h-157q-24 0 -75 -3q-8 0 -8 4t8 4q45 2 69.5 25t24.5 78v501q0 6 -5 6q-2 0 -6 -7l-244 -543q-4 -10 -10 -10q-7 0 -11 9l-237 536q-3 7 -6 7q-4 0 -4 -6v-493
q0 -55 24 -78t69 -25q8 0 8 -4t-8 -4q-51 3 -74 3h-46q-16 0 -58 -3q-5 0 -5.5 3.5t5.5 4.5q35 2 53.5 25t19.5 78l5 528q-18 31 -36 44t-44 15q-6 1 -5.5 4.5t5.5 3.5q39 -3 58 -3h112q13 0 18 -11l209 -473q2 -6 6 -6q3 0 6 6l217 473q5 11 14 11h109q18 0 60 3
q6 0 6.5 -3.5t-6.5 -4.5q-37 -2 -56.5 -25zM437.5 -72q16.5 -14 16.5 -34q-1 -23 -19.5 -39t-48.5 -16q-24 0 -41 14t-17 34q1 23 20 39t49 16q24 0 40.5 -14z" />
    <glyph glyph-name="Racute.ss01" horiz-adv-x="706" 
d="M703.5 0.5q-0.5 -3.5 -5.5 -3.5q-36 3 -54 3h-107q-13 0 -21.5 9t-11.5 25q-11 40 -37 151q-15 65 -43.5 93.5t-67.5 32.5q-23 -1 -76 1q-5 1 -5 4.5t5 3.5q117 5 170.5 52.5t53.5 145.5q0 84 -47 129.5t-133 47.5l-55 1q-19 1 -26.5 -7.5t-7.5 -29.5v-551
q0 -55 18.5 -78t53.5 -25q6 -1 6 -4.5t-6 -3.5q-39 3 -58 3h-152q-19 0 -58 -3q-6 0 -6 3.5t6 4.5q35 2 53.5 25t18.5 78v484q0 55 -18.5 78t-53.5 25q-7 0 -6.5 3.5t6.5 3.5q26 -2 58 -2q28 0 64 1t54 2q92 2 134 2q146 0 220 -49.5t74 -142.5q0 -86 -60 -136t-172 -62
l11 -1q66 -3 108 -25.5t60 -90.5q16 -60 24 -92q14 -55 33.5 -77t50.5 -24q6 -1 5.5 -4.5zM252.5 745q-1.5 3 3.5 5q53 30 78 52.5t45 49.5l12 16q3 3 23 3q23 0 43.5 -4.5t19.5 -12.5q0 -15 -46 -41.5t-100.5 -49t-70.5 -22.5q-6 1 -7.5 4z" />
    <glyph glyph-name="Rcaron.ss01" horiz-adv-x="706" 
d="M703.5 0.5q-0.5 -3.5 -5.5 -3.5q-36 3 -54 3h-107q-13 0 -21.5 9t-11.5 25q-11 40 -37 151q-15 65 -43.5 93.5t-67.5 32.5q-23 -1 -76 1q-5 1 -5 4.5t5 3.5q117 5 170.5 52.5t53.5 145.5q0 84 -47 129.5t-133 47.5l-55 1q-19 1 -26.5 -7.5t-7.5 -29.5v-551
q0 -55 18.5 -78t53.5 -25q6 -1 6 -4.5t-6 -3.5q-39 3 -58 3h-152q-19 0 -58 -3q-6 0 -6 3.5t6 4.5q35 2 53.5 25t18.5 78v484q0 55 -18.5 78t-53.5 25q-7 0 -6.5 3.5t6.5 3.5q26 -2 58 -2q28 0 64 1t54 2q92 2 134 2q146 0 220 -49.5t74 -142.5q0 -86 -60 -136t-172 -62
l11 -1q66 -3 108 -25.5t60 -90.5q16 -60 24 -92q14 -55 33.5 -77t50.5 -24q6 -1 5.5 -4.5zM503 866.5q1 -2.5 -3 -4.5q-40 -16 -61 -36t-39 -47q-14 -21 -25 -30t-31 -9q-22 0 -33.5 9.5t-25.5 30.5q-18 27 -38.5 46t-58.5 36q-4 2 -3 4.5t5 2.5q29 -2 77 -25t76 -50
q29 27 78 50.5t77 24.5q4 0 5 -2.5z" />
    <glyph glyph-name="uni0156.ss01" horiz-adv-x="706" 
d="M703.5 0.5q-0.5 -3.5 -5.5 -3.5q-36 3 -54 3h-107q-13 0 -21.5 9t-11.5 25q-11 40 -37 151q-15 65 -43.5 93.5t-67.5 32.5q-23 -1 -76 1q-5 1 -5 4.5t5 3.5q117 5 170.5 52.5t53.5 145.5q0 84 -47 129.5t-133 47.5l-55 1q-19 1 -26.5 -7.5t-7.5 -29.5v-551
q0 -55 18.5 -78t53.5 -25q6 -1 6 -4.5t-6 -3.5q-39 3 -58 3h-152q-19 0 -58 -3q-6 0 -6 3.5t6 4.5q35 2 53.5 25t18.5 78v484q0 55 -18.5 78t-53.5 25q-7 0 -6.5 3.5t6.5 3.5q26 -2 58 -2q28 0 64 1t54 2q92 2 134 2q146 0 220 -49.5t74 -142.5q0 -86 -60 -136t-172 -62
l11 -1q66 -3 108 -25.5t60 -90.5q16 -60 24 -92q14 -55 33.5 -77t50.5 -24q6 -1 5.5 -4.5zM295.5 -224.5q-0.5 2.5 3.5 4.5q60 29 60 77q0 9 -8 12.5t-23 5.5q-20 3 -31 9t-11 23q0 15 18.5 28.5t44.5 13.5q29 0 42.5 -13.5t13.5 -34.5q0 -28 -17 -54.5t-42 -45.5t-46 -26
q-4 -2 -4.5 0.5z" />
    <glyph glyph-name="uni1E5A.ss01" horiz-adv-x="706" 
d="M703.5 0.5q-0.5 -3.5 -5.5 -3.5q-36 3 -54 3h-107q-13 0 -21.5 9t-11.5 25q-11 40 -37 151q-15 65 -43.5 93.5t-67.5 32.5q-23 -1 -76 1q-5 1 -5 4.5t5 3.5q117 5 170.5 52.5t53.5 145.5q0 84 -47 129.5t-133 47.5l-55 1q-19 1 -26.5 -7.5t-7.5 -29.5v-551
q0 -55 18.5 -78t53.5 -25q6 -1 6 -4.5t-6 -3.5q-39 3 -58 3h-152q-19 0 -58 -3q-6 0 -6 3.5t6 4.5q35 2 53.5 25t18.5 78v484q0 55 -18.5 78t-53.5 25q-7 0 -6.5 3.5t6.5 3.5q26 -2 58 -2q28 0 64 1t54 2q92 2 134 2q146 0 220 -49.5t74 -142.5q0 -86 -60 -136t-172 -62
l11 -1q66 -3 108 -25.5t60 -90.5q16 -60 24 -92q14 -55 33.5 -77t50.5 -24q6 -1 5.5 -4.5zM313 -147q-17 14 -17 34q1 24 19.5 40t48.5 16q24 0 40.5 -13.5t16.5 -33.5q0 -24 -18.5 -40.5t-48.5 -16.5q-24 0 -41 14z" />
    <glyph glyph-name="uni1E5C.ss01" horiz-adv-x="706" 
d="M703.5 0.5q-0.5 -3.5 -5.5 -3.5q-36 3 -54 3h-107q-13 0 -21.5 9t-11.5 25q-11 40 -37 151q-15 65 -43.5 93.5t-67.5 32.5q-23 -1 -76 1q-5 1 -5 4.5t5 3.5q117 5 170.5 52.5t53.5 145.5q0 84 -47 129.5t-133 47.5l-55 1q-19 1 -26.5 -7.5t-7.5 -29.5v-551
q0 -55 18.5 -78t53.5 -25q6 -1 6 -4.5t-6 -3.5q-39 3 -58 3h-152q-19 0 -58 -3q-6 0 -6 3.5t6 4.5q35 2 53.5 25t18.5 78v484q0 55 -18.5 78t-53.5 25q-7 0 -6.5 3.5t6.5 3.5q26 -2 58 -2q28 0 64 1t54 2q92 2 134 2q146 0 220 -49.5t74 -142.5q0 -86 -60 -136t-172 -62
l11 -1q66 -3 108 -25.5t60 -90.5q16 -60 24 -92q14 -55 33.5 -77t50.5 -24q6 -1 5.5 -4.5zM313 -147q-17 14 -17 34q1 24 19.5 40t48.5 16q24 0 40.5 -13.5t16.5 -33.5q0 -24 -18.5 -40.5t-48.5 -16.5q-24 0 -41 14zM215 767q-4 0 -6.5 1.5t-2.5 3.5q0 5 9 5h259q9 0 9 -5
q0 -2 -2.5 -3.5t-6.5 -1.5h-259z" />
    <glyph glyph-name="uni1E5E.ss01" horiz-adv-x="706" 
d="M703.5 0.5q-0.5 -3.5 -5.5 -3.5q-36 3 -54 3h-107q-13 0 -21.5 9t-11.5 25q-11 40 -37 151q-15 65 -43.5 93.5t-67.5 32.5q-23 -1 -76 1q-5 1 -5 4.5t5 3.5q117 5 170.5 52.5t53.5 145.5q0 84 -47 129.5t-133 47.5l-55 1q-19 1 -26.5 -7.5t-7.5 -29.5v-551
q0 -55 18.5 -78t53.5 -25q6 -1 6 -4.5t-6 -3.5q-39 3 -58 3h-152q-19 0 -58 -3q-6 0 -6 3.5t6 4.5q35 2 53.5 25t18.5 78v484q0 55 -18.5 78t-53.5 25q-7 0 -6.5 3.5t6.5 3.5q26 -2 58 -2q28 0 64 1t54 2q92 2 134 2q146 0 220 -49.5t74 -142.5q0 -86 -60 -136t-172 -62
l11 -1q66 -3 108 -25.5t60 -90.5q16 -60 24 -92q14 -55 33.5 -77t50.5 -24q6 -1 5.5 -4.5zM224 -114q-4 0 -6.5 1.5t-2.5 3.5q0 5 9 5h259q9 0 9 -5q0 -2 -2.5 -3.5t-6.5 -1.5h-259z" />
    <glyph glyph-name="Nacute.ss02" horiz-adv-x="726" 
d="M40 -3q-5 0 -5.5 3.5t5.5 3.5q35 2 53.5 25t18.5 78l-1 486q0 55 -18.5 78.5t-53.5 25.5q-6 1 -5.5 4.5t6.5 3.5q26 -4 57 -4l38 -1q9 0 17.5 -3t20.5 -10l422 -241q6 -4 8 -4q4 0 4 7v143q0 55 -19 78t-53 25q-7 1 -6.5 4.5t6.5 3.5q39 -3 58 -3h36q16 0 58 3
q5 0 5.5 -3.5t-5.5 -4.5q-35 -2 -54 -25t-19 -78v-484q0 -55 19 -78t54 -25q6 -1 5.5 -4.5t-5.5 -3.5q-42 3 -58 3h-36q-19 0 -58 -3q-6 0 -6.5 3.5t6.5 4.5q34 2 53 25t19 78v182q0 8 -6 12l-470 268q-3 3 -6 3q-5 0 -5 -6v-460q0 -55 18.5 -78t53.5 -25q6 0 5.5 -3.5
t-5.5 -3.5l-58 3h-36zM269.5 745q-1.5 3 3.5 5q53 30 78 52.5t45 49.5l12 16q3 3 23 3q23 0 43.5 -4.5t19.5 -12.5q0 -15 -46 -41.5t-100.5 -49t-70.5 -22.5q-6 1 -7.5 4z" />
    <glyph glyph-name="Ncaron.ss02" horiz-adv-x="726" 
d="M40 -3q-5 0 -5.5 3.5t5.5 3.5q35 2 53.5 25t18.5 78l-1 486q0 55 -18.5 78.5t-53.5 25.5q-6 1 -5.5 4.5t6.5 3.5q26 -4 57 -4l38 -1q9 0 17.5 -3t20.5 -10l422 -241q6 -4 8 -4q4 0 4 7v143q0 55 -19 78t-53 25q-7 1 -6.5 4.5t6.5 3.5q39 -3 58 -3h36q16 0 58 3
q5 0 5.5 -3.5t-5.5 -4.5q-35 -2 -54 -25t-19 -78v-484q0 -55 19 -78t54 -25q6 -1 5.5 -4.5t-5.5 -3.5q-42 3 -58 3h-36q-19 0 -58 -3q-6 0 -6.5 3.5t6.5 4.5q34 2 53 25t19 78v182q0 8 -6 12l-470 268q-3 3 -6 3q-5 0 -5 -6v-460q0 -55 18.5 -78t53.5 -25q6 0 5.5 -3.5
t-5.5 -3.5l-58 3h-36zM520 866.5q1 -2.5 -3 -4.5q-40 -16 -61 -36t-39 -47q-14 -21 -25 -30t-31 -9q-22 0 -33.5 9.5t-25.5 30.5q-18 27 -38.5 46t-58.5 36q-4 2 -3 4.5t5 2.5q29 -2 77 -25t76 -50q29 27 78 50.5t77 24.5q4 0 5 -2.5z" />
    <glyph glyph-name="uni0145.ss02" horiz-adv-x="726" 
d="M40 -3q-5 0 -5.5 3.5t5.5 3.5q35 2 53.5 25t18.5 78l-1 486q0 55 -18.5 78.5t-53.5 25.5q-6 1 -5.5 4.5t6.5 3.5q26 -4 57 -4l38 -1q9 0 17.5 -3t20.5 -10l422 -241q6 -4 8 -4q4 0 4 7v143q0 55 -19 78t-53 25q-7 1 -6.5 4.5t6.5 3.5q39 -3 58 -3h36q16 0 58 3
q5 0 5.5 -3.5t-5.5 -4.5q-35 -2 -54 -25t-19 -78v-484q0 -55 19 -78t54 -25q6 -1 5.5 -4.5t-5.5 -3.5q-42 3 -58 3h-36q-19 0 -58 -3q-6 0 -6.5 3.5t6.5 4.5q34 2 53 25t19 78v182q0 8 -6 12l-470 268q-3 3 -6 3q-5 0 -5 -6v-460q0 -55 18.5 -78t53.5 -25q6 0 5.5 -3.5
t-5.5 -3.5l-58 3h-36zM303.5 -224.5q-0.5 2.5 3.5 4.5q60 29 60 77q0 9 -8 12.5t-23 5.5q-20 3 -31 9t-11 23q0 15 18.5 28.5t44.5 13.5q29 0 42.5 -13.5t13.5 -34.5q0 -28 -17 -54.5t-42 -45.5t-46 -26q-4 -2 -4.5 0.5z" />
    <glyph glyph-name="uni1E44.ss02" horiz-adv-x="726" 
d="M40 -3q-5 0 -5.5 3.5t5.5 3.5q35 2 53.5 25t18.5 78l-1 486q0 55 -18.5 78.5t-53.5 25.5q-6 1 -5.5 4.5t6.5 3.5q26 -4 57 -4l38 -1q9 0 17.5 -3t20.5 -10l422 -241q6 -4 8 -4q4 0 4 7v143q0 55 -19 78t-53 25q-7 1 -6.5 4.5t6.5 3.5q39 -3 58 -3h36q16 0 58 3
q5 0 5.5 -3.5t-5.5 -4.5q-35 -2 -54 -25t-19 -78v-484q0 -55 19 -78t54 -25q6 -1 5.5 -4.5t-5.5 -3.5q-42 3 -58 3h-36q-19 0 -58 -3q-6 0 -6.5 3.5t6.5 4.5q34 2 53 25t19 78v182q0 8 -6 12l-470 268q-3 3 -6 3q-5 0 -5 -6v-460q0 -55 18.5 -78t53.5 -25q6 0 5.5 -3.5
t-5.5 -3.5l-58 3h-36zM311 758q-16 13 -16 32q0 24 22 40.5t57 16.5q28 0 44.5 -13t16.5 -32q0 -24 -22.5 -40.5t-57.5 -16.5q-28 0 -44 13z" />
    <glyph glyph-name="uni1E46.ss02" horiz-adv-x="726" 
d="M40 -3q-5 0 -5.5 3.5t5.5 3.5q35 2 53.5 25t18.5 78l-1 486q0 55 -18.5 78.5t-53.5 25.5q-6 1 -5.5 4.5t6.5 3.5q26 -4 57 -4l38 -1q9 0 17.5 -3t20.5 -10l422 -241q6 -4 8 -4q4 0 4 7v143q0 55 -19 78t-53 25q-7 1 -6.5 4.5t6.5 3.5q39 -3 58 -3h36q16 0 58 3
q5 0 5.5 -3.5t-5.5 -4.5q-35 -2 -54 -25t-19 -78v-484q0 -55 19 -78t54 -25q6 -1 5.5 -4.5t-5.5 -3.5q-42 3 -58 3h-36q-19 0 -58 -3q-6 0 -6.5 3.5t6.5 4.5q34 2 53 25t19 78v182q0 8 -6 12l-470 268q-3 3 -6 3q-5 0 -5 -6v-460q0 -55 18.5 -78t53.5 -25q6 0 5.5 -3.5
t-5.5 -3.5l-58 3h-36zM321 -147q-17 14 -17 34q1 24 19.5 40t48.5 16q24 0 40.5 -13.5t16.5 -33.5q0 -24 -18.5 -40.5t-48.5 -16.5q-24 0 -41 14z" />
    <glyph glyph-name="uni1E48.ss02" horiz-adv-x="726" 
d="M40 -3q-5 0 -5.5 3.5t5.5 3.5q35 2 53.5 25t18.5 78l-1 486q0 55 -18.5 78.5t-53.5 25.5q-6 1 -5.5 4.5t6.5 3.5q26 -4 57 -4l38 -1q9 0 17.5 -3t20.5 -10l422 -241q6 -4 8 -4q4 0 4 7v143q0 55 -19 78t-53 25q-7 1 -6.5 4.5t6.5 3.5q39 -3 58 -3h36q16 0 58 3
q5 0 5.5 -3.5t-5.5 -4.5q-35 -2 -54 -25t-19 -78v-484q0 -55 19 -78t54 -25q6 -1 5.5 -4.5t-5.5 -3.5q-42 3 -58 3h-36q-19 0 -58 -3q-6 0 -6.5 3.5t6.5 4.5q34 2 53 25t19 78v182q0 8 -6 12l-470 268q-3 3 -6 3q-5 0 -5 -6v-460q0 -55 18.5 -78t53.5 -25q6 0 5.5 -3.5
t-5.5 -3.5l-58 3h-36zM231 -114q-4 0 -6.5 1.5t-2.5 3.5q0 5 9 5h259q9 0 9 -5q0 -2 -2.5 -3.5t-6.5 -1.5h-259z" />
    <glyph glyph-name="Racute.ss02" horiz-adv-x="659" 
d="M39 -3q-6 0 -6 3.5t6 4.5q35 2 53.5 25t18.5 78v484q0 55 -18.5 78t-53.5 25q-7 0 -6.5 3.5t6.5 3.5q26 -2 58 -2q31 0 69 1.5t56 1.5q78 2 106 2q148 0 221 -49.5t73 -129.5q0 -38 -14 -65t-33.5 -44t-50.5 -36q-36 -23 -53 -41.5t-17 -46.5q0 -34 30.5 -91.5t73 -111
t73.5 -74.5q14 -10 36 -10q6 0 5.5 -3.5t-5.5 -3.5l-119 -1q-37 0 -89 50.5t-89.5 120.5t-37.5 122q0 35 16.5 55t50.5 43q27 19 43.5 34.5t28.5 41.5t12 64q0 72 -44.5 117t-128.5 49l-42 2q-20 0 -26.5 -9t-6.5 -33v-547q0 -55 20.5 -78t58.5 -25q7 -1 6.5 -4.5t-6.5 -3.5
q-42 3 -63 3h-154q-19 0 -58 -3zM252.5 745q-1.5 3 3.5 5q53 30 78 52.5t45 49.5l12 16q3 3 23 3q23 0 43.5 -4.5t19.5 -12.5q0 -15 -46 -41.5t-100.5 -49t-70.5 -22.5q-6 1 -7.5 4z" />
    <glyph glyph-name="Rcaron.ss02" horiz-adv-x="659" 
d="M39 -3q-6 0 -6 3.5t6 4.5q35 2 53.5 25t18.5 78v484q0 55 -18.5 78t-53.5 25q-7 0 -6.5 3.5t6.5 3.5q26 -2 58 -2q31 0 69 1.5t56 1.5q78 2 106 2q148 0 221 -49.5t73 -129.5q0 -38 -14 -65t-33.5 -44t-50.5 -36q-36 -23 -53 -41.5t-17 -46.5q0 -34 30.5 -91.5t73 -111
t73.5 -74.5q14 -10 36 -10q6 0 5.5 -3.5t-5.5 -3.5l-119 -1q-37 0 -89 50.5t-89.5 120.5t-37.5 122q0 35 16.5 55t50.5 43q27 19 43.5 34.5t28.5 41.5t12 64q0 72 -44.5 117t-128.5 49l-42 2q-20 0 -26.5 -9t-6.5 -33v-547q0 -55 20.5 -78t58.5 -25q7 -1 6.5 -4.5t-6.5 -3.5
q-42 3 -63 3h-154q-19 0 -58 -3zM503 866.5q1 -2.5 -3 -4.5q-40 -16 -61 -36t-39 -47q-14 -21 -25 -30t-31 -9q-22 0 -33.5 9.5t-25.5 30.5q-18 27 -38.5 46t-58.5 36q-4 2 -3 4.5t5 2.5q29 -2 77 -25t76 -50q29 27 78 50.5t77 24.5q4 0 5 -2.5z" />
    <glyph glyph-name="uni0156.ss02" horiz-adv-x="659" 
d="M39 -3q-6 0 -6 3.5t6 4.5q35 2 53.5 25t18.5 78v484q0 55 -18.5 78t-53.5 25q-7 0 -6.5 3.5t6.5 3.5q26 -2 58 -2q31 0 69 1.5t56 1.5q78 2 106 2q148 0 221 -49.5t73 -129.5q0 -38 -14 -65t-33.5 -44t-50.5 -36q-36 -23 -53 -41.5t-17 -46.5q0 -34 30.5 -91.5t73 -111
t73.5 -74.5q14 -10 36 -10q6 0 5.5 -3.5t-5.5 -3.5l-119 -1q-37 0 -89 50.5t-89.5 120.5t-37.5 122q0 35 16.5 55t50.5 43q27 19 43.5 34.5t28.5 41.5t12 64q0 72 -44.5 117t-128.5 49l-42 2q-20 0 -26.5 -9t-6.5 -33v-547q0 -55 20.5 -78t58.5 -25q7 -1 6.5 -4.5t-6.5 -3.5
q-42 3 -63 3h-154q-19 0 -58 -3zM286.5 -224.5q-0.5 2.5 3.5 4.5q60 29 60 77q0 9 -8 12.5t-23 5.5q-20 3 -31 9t-11 23q0 15 18.5 28.5t44.5 13.5q29 0 42.5 -13.5t13.5 -34.5q0 -28 -17 -54.5t-42 -45.5t-46 -26q-4 -2 -4.5 0.5z" />
    <glyph glyph-name="uni1E5A.ss02" horiz-adv-x="659" 
d="M39 -3q-6 0 -6 3.5t6 4.5q35 2 53.5 25t18.5 78v484q0 55 -18.5 78t-53.5 25q-7 0 -6.5 3.5t6.5 3.5q26 -2 58 -2q31 0 69 1.5t56 1.5q78 2 106 2q148 0 221 -49.5t73 -129.5q0 -38 -14 -65t-33.5 -44t-50.5 -36q-36 -23 -53 -41.5t-17 -46.5q0 -34 30.5 -91.5t73 -111
t73.5 -74.5q14 -10 36 -10q6 0 5.5 -3.5t-5.5 -3.5l-119 -1q-37 0 -89 50.5t-89.5 120.5t-37.5 122q0 35 16.5 55t50.5 43q27 19 43.5 34.5t28.5 41.5t12 64q0 72 -44.5 117t-128.5 49l-42 2q-20 0 -26.5 -9t-6.5 -33v-547q0 -55 20.5 -78t58.5 -25q7 -1 6.5 -4.5t-6.5 -3.5
q-42 3 -63 3h-154q-19 0 -58 -3zM304 -147q-17 14 -17 34q1 24 19.5 40t48.5 16q24 0 40.5 -13.5t16.5 -33.5q0 -24 -18.5 -40.5t-48.5 -16.5q-24 0 -41 14z" />
    <glyph glyph-name="uni1E5C.ss02" horiz-adv-x="659" 
d="M39 -3q-6 0 -6 3.5t6 4.5q35 2 53.5 25t18.5 78v484q0 55 -18.5 78t-53.5 25q-7 0 -6.5 3.5t6.5 3.5q26 -2 58 -2q31 0 69 1.5t56 1.5q78 2 106 2q148 0 221 -49.5t73 -129.5q0 -38 -14 -65t-33.5 -44t-50.5 -36q-36 -23 -53 -41.5t-17 -46.5q0 -34 30.5 -91.5t73 -111
t73.5 -74.5q14 -10 36 -10q6 0 5.5 -3.5t-5.5 -3.5l-119 -1q-37 0 -89 50.5t-89.5 120.5t-37.5 122q0 35 16.5 55t50.5 43q27 19 43.5 34.5t28.5 41.5t12 64q0 72 -44.5 117t-128.5 49l-42 2q-20 0 -26.5 -9t-6.5 -33v-547q0 -55 20.5 -78t58.5 -25q7 -1 6.5 -4.5t-6.5 -3.5
q-42 3 -63 3h-154q-19 0 -58 -3zM304 -147q-17 14 -17 34q1 24 19.5 40t48.5 16q24 0 40.5 -13.5t16.5 -33.5q0 -24 -18.5 -40.5t-48.5 -16.5q-24 0 -41 14zM215 767q-4 0 -6.5 1.5t-2.5 3.5q0 5 9 5h259q9 0 9 -5q0 -2 -2.5 -3.5t-6.5 -1.5h-259z" />
    <glyph glyph-name="uni1E5E.ss02" horiz-adv-x="659" 
d="M39 -3q-6 0 -6 3.5t6 4.5q35 2 53.5 25t18.5 78v484q0 55 -18.5 78t-53.5 25q-7 0 -6.5 3.5t6.5 3.5q26 -2 58 -2q31 0 69 1.5t56 1.5q78 2 106 2q148 0 221 -49.5t73 -129.5q0 -38 -14 -65t-33.5 -44t-50.5 -36q-36 -23 -53 -41.5t-17 -46.5q0 -34 30.5 -91.5t73 -111
t73.5 -74.5q14 -10 36 -10q6 0 5.5 -3.5t-5.5 -3.5l-119 -1q-37 0 -89 50.5t-89.5 120.5t-37.5 122q0 35 16.5 55t50.5 43q27 19 43.5 34.5t28.5 41.5t12 64q0 72 -44.5 117t-128.5 49l-42 2q-20 0 -26.5 -9t-6.5 -33v-547q0 -55 20.5 -78t58.5 -25q7 -1 6.5 -4.5t-6.5 -3.5
q-42 3 -63 3h-154q-19 0 -58 -3zM214 -114q-4 0 -6.5 1.5t-2.5 3.5q0 5 9 5h259q9 0 9 -5q0 -2 -2.5 -3.5t-6.5 -1.5h-259z" />
    <glyph glyph-name="Uacute.ss02" horiz-adv-x="712" 
d="M224 12q-56 27 -86 74t-30 106v400q0 55 -18.5 78t-53.5 25q-6 1 -5.5 4.5t5.5 3.5q42 -3 58 -3h152q19 0 58 3q6 0 6.5 -3.5t-6.5 -4.5q-34 -2 -53 -25t-19 -78v-387q0 -78 45 -120t151 -42q63 0 112.5 20.5t49.5 60.5v468q0 55 -19 78t-54 25q-6 1 -5.5 4.5t6.5 3.5
q39 -3 57 -3h37q19 0 58 3q5 0 5.5 -3.5t-5.5 -4.5q-35 -2 -53.5 -25t-18.5 -78v-496q-24 -36 -85 -73.5t-159 -37.5q-74 0 -130 27zM289.5 745q-1.5 3 3.5 5q53 30 78 52.5t45 49.5l12 16q3 3 23 3q23 0 43.5 -4.5t19.5 -12.5q0 -15 -46 -41.5t-100.5 -49t-70.5 -22.5
q-6 1 -7.5 4z" />
    <glyph glyph-name="Ubreve.ss02" horiz-adv-x="712" 
d="M224 12q-56 27 -86 74t-30 106v400q0 55 -18.5 78t-53.5 25q-6 1 -5.5 4.5t5.5 3.5q42 -3 58 -3h152q19 0 58 3q6 0 6.5 -3.5t-6.5 -4.5q-34 -2 -53 -25t-19 -78v-387q0 -78 45 -120t151 -42q63 0 112.5 20.5t49.5 60.5v468q0 55 -19 78t-54 25q-6 1 -5.5 4.5t6.5 3.5
q39 -3 57 -3h37q19 0 58 3q5 0 5.5 -3.5t-5.5 -4.5q-35 -2 -53.5 -25t-18.5 -78v-496q-24 -36 -85 -73.5t-159 -37.5q-74 0 -130 27zM321 878q9 -3 9 -10q0 -38 21 -70t61 -32q44 0 62.5 32t18.5 69q0 6 4 6q5 0 5 -6q0 -50 -30 -89.5t-94 -39.5q-44 0 -72.5 20.5t-42 50.5
t-13.5 60q0 6 7 9t27 3q28 0 37 -3z" />
    <glyph glyph-name="uni01D3.ss02" horiz-adv-x="712" 
d="M224 12q-56 27 -86 74t-30 106v400q0 55 -18.5 78t-53.5 25q-6 1 -5.5 4.5t5.5 3.5q42 -3 58 -3h152q19 0 58 3q6 0 6.5 -3.5t-6.5 -4.5q-34 -2 -53 -25t-19 -78v-387q0 -78 45 -120t151 -42q63 0 112.5 20.5t49.5 60.5v468q0 55 -19 78t-54 25q-6 1 -5.5 4.5t6.5 3.5
q39 -3 57 -3h37q19 0 58 3q5 0 5.5 -3.5t-5.5 -4.5q-35 -2 -53.5 -25t-18.5 -78v-496q-24 -36 -85 -73.5t-159 -37.5q-74 0 -130 27zM540 866.5q1 -2.5 -3 -4.5q-40 -16 -61 -36t-39 -47q-14 -21 -25 -30t-31 -9q-22 0 -33.5 9.5t-25.5 30.5q-18 27 -38.5 46t-58.5 36
q-4 2 -3 4.5t5 2.5q29 -2 77 -25t76 -50q29 27 78 50.5t77 24.5q4 0 5 -2.5z" />
    <glyph glyph-name="Ucircumflex.ss02" horiz-adv-x="712" 
d="M224 12q-56 27 -86 74t-30 106v400q0 55 -18.5 78t-53.5 25q-6 1 -5.5 4.5t5.5 3.5q42 -3 58 -3h152q19 0 58 3q6 0 6.5 -3.5t-6.5 -4.5q-34 -2 -53 -25t-19 -78v-387q0 -78 45 -120t151 -42q63 0 112.5 20.5t49.5 60.5v468q0 55 -19 78t-54 25q-6 1 -5.5 4.5t6.5 3.5
q39 -3 57 -3h37q19 0 58 3q5 0 5.5 -3.5t-5.5 -4.5q-35 -2 -53.5 -25t-18.5 -78v-496q-24 -36 -85 -73.5t-159 -37.5q-74 0 -130 27zM551 740q-1 -3 -6 -3q-30 2 -81.5 26.5t-81.5 53.5q-30 -29 -82.5 -54t-82.5 -26q-5 0 -6 3t3 5q44 17 66 38t41 50q15 22 26.5 31.5
t33.5 9.5q23 0 35 -9.5t28 -32.5q20 -28 41.5 -48.5t62.5 -38.5q4 -2 3 -5z" />
    <glyph glyph-name="Udieresis.ss02" horiz-adv-x="712" 
d="M224 12q-56 27 -86 74t-30 106v400q0 55 -18.5 78t-53.5 25q-6 1 -5.5 4.5t5.5 3.5q42 -3 58 -3h152q19 0 58 3q6 0 6.5 -3.5t-6.5 -4.5q-34 -2 -53 -25t-19 -78v-387q0 -78 45 -120t151 -42q63 0 112.5 20.5t49.5 60.5v468q0 55 -19 78t-54 25q-6 1 -5.5 4.5t6.5 3.5
q39 -3 57 -3h37q19 0 58 3q5 0 5.5 -3.5t-5.5 -4.5q-35 -2 -53.5 -25t-18.5 -78v-496q-24 -36 -85 -73.5t-159 -37.5q-74 0 -130 27zM255.5 767.5q-16.5 13.5 -16.5 33.5q1 24 19.5 39.5t48.5 15.5q24 0 40.5 -14t16.5 -34q-1 -23 -19.5 -38.5t-47.5 -15.5q-25 0 -41.5 13.5
zM415.5 767.5q-16.5 13.5 -16.5 33.5q1 24 19.5 39.5t48.5 15.5q24 0 40.5 -14t16.5 -34q-1 -23 -19.5 -38.5t-47.5 -15.5q-25 0 -41.5 13.5z" />
    <glyph glyph-name="uni01D7.ss02" horiz-adv-x="712" 
d="M224 12q-56 27 -86 74t-30 106v400q0 55 -18.5 78t-53.5 25q-6 1 -5.5 4.5t5.5 3.5q42 -3 58 -3h152q19 0 58 3q6 0 6.5 -3.5t-6.5 -4.5q-34 -2 -53 -25t-19 -78v-387q0 -78 45 -120t151 -42q63 0 112.5 20.5t49.5 60.5v468q0 55 -19 78t-54 25q-6 1 -5.5 4.5t6.5 3.5
q39 -3 57 -3h37q19 0 58 3q5 0 5.5 -3.5t-5.5 -4.5q-35 -2 -53.5 -25t-18.5 -78v-496q-24 -36 -85 -73.5t-159 -37.5q-74 0 -130 27zM255.5 767.5q-16.5 13.5 -16.5 33.5q1 24 19.5 39.5t48.5 15.5q24 0 40.5 -14t16.5 -34q-1 -23 -19.5 -38.5t-47.5 -15.5q-25 0 -41.5 13.5
zM415.5 767.5q-16.5 13.5 -16.5 33.5q1 24 19.5 39.5t48.5 15.5q24 0 40.5 -14t16.5 -34q-1 -23 -19.5 -38.5t-47.5 -15.5q-25 0 -41.5 13.5zM287.5 873q-1.5 3 3.5 5q53 30 78 52.5t45 49.5l12 16q3 3 23 3q23 0 43.5 -4.5t19.5 -12.5q0 -15 -46 -41.5t-100.5 -49
t-70.5 -22.5q-6 1 -7.5 4z" />
    <glyph glyph-name="uni01D9.ss02" horiz-adv-x="712" 
d="M224 12q-56 27 -86 74t-30 106v400q0 55 -18.5 78t-53.5 25q-6 1 -5.5 4.5t5.5 3.5q42 -3 58 -3h152q19 0 58 3q6 0 6.5 -3.5t-6.5 -4.5q-34 -2 -53 -25t-19 -78v-387q0 -78 45 -120t151 -42q63 0 112.5 20.5t49.5 60.5v468q0 55 -19 78t-54 25q-6 1 -5.5 4.5t6.5 3.5
q39 -3 57 -3h37q19 0 58 3q5 0 5.5 -3.5t-5.5 -4.5q-35 -2 -53.5 -25t-18.5 -78v-496q-24 -36 -85 -73.5t-159 -37.5q-74 0 -130 27zM255.5 767.5q-16.5 13.5 -16.5 33.5q1 24 19.5 39.5t48.5 15.5q24 0 40.5 -14t16.5 -34q-1 -23 -19.5 -38.5t-47.5 -15.5q-25 0 -41.5 13.5
zM415.5 767.5q-16.5 13.5 -16.5 33.5q1 24 19.5 39.5t48.5 15.5q24 0 40.5 -14t16.5 -34q-1 -23 -19.5 -38.5t-47.5 -15.5q-25 0 -41.5 13.5zM537 994.5q1 -2.5 -3 -4.5q-40 -16 -61 -36t-39 -47q-14 -21 -25 -30t-31 -9q-22 0 -33.5 9.5t-25.5 30.5q-18 27 -38.5 46
t-58.5 36q-4 2 -3 4.5t5 2.5q29 -2 77 -25t76 -50q29 27 78 50.5t77 24.5q4 0 5 -2.5z" />
    <glyph glyph-name="uni01DB.ss02" horiz-adv-x="712" 
d="M224 12q-56 27 -86 74t-30 106v400q0 55 -18.5 78t-53.5 25q-6 1 -5.5 4.5t5.5 3.5q42 -3 58 -3h152q19 0 58 3q6 0 6.5 -3.5t-6.5 -4.5q-34 -2 -53 -25t-19 -78v-387q0 -78 45 -120t151 -42q63 0 112.5 20.5t49.5 60.5v468q0 55 -19 78t-54 25q-6 1 -5.5 4.5t6.5 3.5
q39 -3 57 -3h37q19 0 58 3q5 0 5.5 -3.5t-5.5 -4.5q-35 -2 -53.5 -25t-18.5 -78v-496q-24 -36 -85 -73.5t-159 -37.5q-74 0 -130 27zM255.5 767.5q-16.5 13.5 -16.5 33.5q1 24 19.5 39.5t48.5 15.5q24 0 40.5 -14t16.5 -34q-1 -23 -19.5 -38.5t-47.5 -15.5q-25 0 -41.5 13.5
zM415.5 767.5q-16.5 13.5 -16.5 33.5q1 24 19.5 39.5t48.5 15.5q24 0 40.5 -14t16.5 -34q-1 -23 -19.5 -38.5t-47.5 -15.5q-25 0 -41.5 13.5zM339.5 891.5q-54.5 22.5 -100.5 49t-46 41.5q-1 8 19.5 12.5t43.5 4.5q20 0 23 -3l12 -16q20 -27 45 -49.5t78 -52.5q3 -1 3 -4
q0 -4 -7 -5q-16 0 -70.5 22.5z" />
    <glyph glyph-name="uni01D5.ss02" horiz-adv-x="712" 
d="M224 12q-56 27 -86 74t-30 106v400q0 55 -18.5 78t-53.5 25q-6 1 -5.5 4.5t5.5 3.5q42 -3 58 -3h152q19 0 58 3q6 0 6.5 -3.5t-6.5 -4.5q-34 -2 -53 -25t-19 -78v-387q0 -78 45 -120t151 -42q63 0 112.5 20.5t49.5 60.5v468q0 55 -19 78t-54 25q-6 1 -5.5 4.5t6.5 3.5
q39 -3 57 -3h37q19 0 58 3q5 0 5.5 -3.5t-5.5 -4.5q-35 -2 -53.5 -25t-18.5 -78v-496q-24 -36 -85 -73.5t-159 -37.5q-74 0 -130 27zM255.5 767.5q-16.5 13.5 -16.5 33.5q1 24 19.5 39.5t48.5 15.5q24 0 40.5 -14t16.5 -34q-1 -23 -19.5 -38.5t-47.5 -15.5q-25 0 -41.5 13.5
zM415.5 767.5q-16.5 13.5 -16.5 33.5q1 24 19.5 39.5t48.5 15.5q24 0 40.5 -14t16.5 -34q-1 -23 -19.5 -38.5t-47.5 -15.5q-25 0 -41.5 13.5zM249 895q-4 0 -6.5 1.5t-2.5 3.5q0 5 9 5h259q9 0 9 -5q0 -2 -2.5 -3.5t-6.5 -1.5h-259z" />
    <glyph glyph-name="uni1EE4.ss02" horiz-adv-x="712" 
d="M224 12q-56 27 -86 74t-30 106v400q0 55 -18.5 78t-53.5 25q-6 1 -5.5 4.5t5.5 3.5q42 -3 58 -3h152q19 0 58 3q6 0 6.5 -3.5t-6.5 -4.5q-34 -2 -53 -25t-19 -78v-387q0 -78 45 -120t151 -42q63 0 112.5 20.5t49.5 60.5v468q0 55 -19 78t-54 25q-6 1 -5.5 4.5t6.5 3.5
q39 -3 57 -3h37q19 0 58 3q5 0 5.5 -3.5t-5.5 -4.5q-35 -2 -53.5 -25t-18.5 -78v-496q-24 -36 -85 -73.5t-159 -37.5q-74 0 -130 27zM341 -147q-17 14 -17 34q1 24 19.5 40t48.5 16q24 0 40.5 -13.5t16.5 -33.5q0 -24 -18.5 -40.5t-48.5 -16.5q-24 0 -41 14z" />
    <glyph glyph-name="Ugrave.ss02" horiz-adv-x="712" 
d="M224 12q-56 27 -86 74t-30 106v400q0 55 -18.5 78t-53.5 25q-6 1 -5.5 4.5t5.5 3.5q42 -3 58 -3h152q19 0 58 3q6 0 6.5 -3.5t-6.5 -4.5q-34 -2 -53 -25t-19 -78v-387q0 -78 45 -120t151 -42q63 0 112.5 20.5t49.5 60.5v468q0 55 -19 78t-54 25q-6 1 -5.5 4.5t6.5 3.5
q39 -3 57 -3h37q19 0 58 3q5 0 5.5 -3.5t-5.5 -4.5q-35 -2 -53.5 -25t-18.5 -78v-496q-24 -36 -85 -73.5t-159 -37.5q-74 0 -130 27zM342.5 763.5q-54.5 22.5 -100.5 49t-46 41.5q-1 8 19.5 12.5t43.5 4.5q20 0 23 -3l12 -16q20 -27 45 -49.5t78 -52.5q3 -1 3 -4q0 -4 -7 -5
q-16 0 -70.5 22.5z" />
    <glyph glyph-name="Uhungarumlaut.ss02" horiz-adv-x="712" 
d="M224 12q-56 27 -86 74t-30 106v400q0 55 -18.5 78t-53.5 25q-6 1 -5.5 4.5t5.5 3.5q42 -3 58 -3h152q19 0 58 3q6 0 6.5 -3.5t-6.5 -4.5q-34 -2 -53 -25t-19 -78v-387q0 -78 45 -120t151 -42q63 0 112.5 20.5t49.5 60.5v468q0 55 -19 78t-54 25q-6 1 -5.5 4.5t6.5 3.5
q39 -3 57 -3h37q19 0 58 3q5 0 5.5 -3.5t-5.5 -4.5q-35 -2 -53.5 -25t-18.5 -78v-496q-24 -36 -85 -73.5t-159 -37.5q-74 0 -130 27zM209 738q-4 0 -5 3t3 5q41 32 58.5 60t28.5 60q6 17 11.5 25t16.5 9q19 3 44 3q37 0 37 -8q0 -16 -40 -52t-88.5 -69t-64.5 -36h-1z
M370 738q-3 0 -4 3t3 5q40 32 58 60.5t29 59.5q6 18 11 25.5t16 8.5q20 3 44 3q38 0 38 -8q0 -16 -40.5 -52t-89 -69t-64.5 -36h-1z" />
    <glyph glyph-name="Umacron.ss02" horiz-adv-x="712" 
d="M224 12q-56 27 -86 74t-30 106v400q0 55 -18.5 78t-53.5 25q-6 1 -5.5 4.5t5.5 3.5q42 -3 58 -3h152q19 0 58 3q6 0 6.5 -3.5t-6.5 -4.5q-34 -2 -53 -25t-19 -78v-387q0 -78 45 -120t151 -42q63 0 112.5 20.5t49.5 60.5v468q0 55 -19 78t-54 25q-6 1 -5.5 4.5t6.5 3.5
q39 -3 57 -3h37q19 0 58 3q5 0 5.5 -3.5t-5.5 -4.5q-35 -2 -53.5 -25t-18.5 -78v-496q-24 -36 -85 -73.5t-159 -37.5q-74 0 -130 27zM251 767q-4 0 -6.5 1.5t-2.5 3.5q0 5 9 5h259q9 0 9 -5q0 -2 -2.5 -3.5t-6.5 -1.5h-259z" />
    <glyph glyph-name="Uogonek.ss02" horiz-adv-x="712" 
d="M675.5 699.5q0.5 -3.5 -5.5 -4.5q-35 -2 -53.5 -25t-18.5 -78v-496q-15 -20 -34 -38l4 -1q-34 -29 -46.5 -52.5t-12.5 -46.5q0 -24 12.5 -36.5t33.5 -12.5q58 0 58 59q0 6 3.5 6t3.5 -6q0 -44 -29 -71.5t-79 -27.5q-36 0 -56 16t-20 45q0 41 43 77q-58 -22 -125 -22
q-74 0 -130 27t-86 74t-30 106v400q0 55 -18.5 78t-53.5 25q-6 1 -5.5 4.5t5.5 3.5q42 -3 58 -3h152q19 0 58 3q6 0 6.5 -3.5t-6.5 -4.5q-34 -2 -53 -25t-19 -78v-387q0 -78 45 -120t151 -42q63 0 112.5 20.5t49.5 60.5v468q0 55 -19 78t-54 25q-6 1 -5.5 4.5t6.5 3.5
q39 -3 57 -3h37q19 0 58 3q5 0 5.5 -3.5z" />
    <glyph glyph-name="Uring.ss02" horiz-adv-x="712" 
d="M224 12q-56 27 -86 74t-30 106v400q0 55 -18.5 78t-53.5 25q-6 1 -5.5 4.5t5.5 3.5q42 -3 58 -3h152q19 0 58 3q6 0 6.5 -3.5t-6.5 -4.5q-34 -2 -53 -25t-19 -78v-387q0 -78 45 -120t151 -42q63 0 112.5 20.5t49.5 60.5v468q0 55 -19 78t-54 25q-6 1 -5.5 4.5t6.5 3.5
q39 -3 57 -3h37q19 0 58 3q5 0 5.5 -3.5t-5.5 -4.5q-35 -2 -53.5 -25t-18.5 -78v-496q-24 -36 -85 -73.5t-159 -37.5q-74 0 -130 27zM308 746.5q-27 20.5 -27 52.5q0 30 29 54t70 24q40 0 69 -20t29 -51q0 -32 -30.5 -56t-74.5 -24q-38 0 -65 20.5zM436 773q0 17 -12 39
t-30 37.5t-35 15.5q-34 0 -34 -33q0 -17 11.5 -39.5t29.5 -38t36 -15.5q34 0 34 34z" />
    <glyph glyph-name="Utilde.ss02" horiz-adv-x="712" 
d="M224 12q-56 27 -86 74t-30 106v400q0 55 -18.5 78t-53.5 25q-6 1 -5.5 4.5t5.5 3.5q42 -3 58 -3h152q19 0 58 3q6 0 6.5 -3.5t-6.5 -4.5q-34 -2 -53 -25t-19 -78v-387q0 -78 45 -120t151 -42q63 0 112.5 20.5t49.5 60.5v468q0 55 -19 78t-54 25q-6 1 -5.5 4.5t6.5 3.5
q39 -3 57 -3h37q19 0 58 3q5 0 5.5 -3.5t-5.5 -4.5q-35 -2 -53.5 -25t-18.5 -78v-496q-24 -36 -85 -73.5t-159 -37.5q-74 0 -130 27zM214 740q-2 0 -3 2t0 6q16 49 42 72.5t64 23.5q29 0 64 -13l43 -16q30 -12 54 -12q42 0 64 42q3 4 6 4q5 0 2 -8q-32 -98 -106 -98
q-25 0 -62 13l-47 17q-45 17 -70 17q-19 0 -29 -10.5t-17 -33.5q-2 -6 -5 -6z" />
    <glyph glyph-name="Aacute.ss03" horiz-adv-x="752" 
d="M744.5 6.5q1.5 -1.5 1.5 -3.5t-2 -3.5t-5 -0.5q-23 2 -132 2q-108 0 -131 -2q-7 0 -7.5 5t6.5 5q24 -1 43 10.5t19 38.5q0 18 -10 42l-67 160h-286l-66 -160q-9 -21 -9 -40q0 -26 18.5 -38t45.5 -14q6 0 6 -4q0 -2 -2 -3.5t-5 -1.5q-22 2 -74 2t-75 -2h-1q-6 0 -6.5 4.5
t6.5 4.5q27 2 46.5 20.5t40.5 69.5l67 162h-54q-7 0 -7 3.5t7 3.5h57l133 320q5 15 5 24q0 15 -7 29l1 -1l-19 46q-2 8 -2 9q0 6 9 6q7 0 32.5 2.5t46.5 2.5q23 0 34 -10t22 -37l234 -560q21 -49 40 -67.5t42 -22.5q3 0 4.5 -1.5zM316 604l-139 -337h280zM279.5 745
q-1.5 3 3.5 5q53 30 78 52.5t45 49.5l12 16q3 3 23 3q23 0 43.5 -4.5t19.5 -12.5q0 -15 -46 -41.5t-100.5 -49t-70.5 -22.5q-6 1 -7.5 4z" />
    <glyph glyph-name="Abreve.ss03" horiz-adv-x="752" 
d="M744.5 6.5q1.5 -1.5 1.5 -3.5t-2 -3.5t-5 -0.5q-23 2 -132 2q-108 0 -131 -2q-7 0 -7.5 5t6.5 5q24 -1 43 10.5t19 38.5q0 18 -10 42l-67 160h-286l-66 -160q-9 -21 -9 -40q0 -26 18.5 -38t45.5 -14q6 0 6 -4q0 -2 -2 -3.5t-5 -1.5q-22 2 -74 2t-75 -2h-1q-6 0 -6.5 4.5
t6.5 4.5q27 2 46.5 20.5t40.5 69.5l67 162h-54q-7 0 -7 3.5t7 3.5h57l133 320q5 15 5 24q0 15 -7 29l1 -1l-19 46q-2 8 -2 9q0 6 9 6q7 0 32.5 2.5t46.5 2.5q23 0 34 -10t22 -37l234 -560q21 -49 40 -67.5t42 -22.5q3 0 4.5 -1.5zM316 604l-139 -337h280zM311 878
q9 -3 9 -10q0 -38 21 -70t61 -32q44 0 62.5 32t18.5 69q0 6 4 6q5 0 5 -6q0 -50 -30 -89.5t-94 -39.5q-44 0 -72.5 20.5t-42 50.5t-13.5 60q0 6 7 9t27 3q28 0 37 -3z" />
    <glyph glyph-name="uni01CD.ss03" horiz-adv-x="752" 
d="M744.5 6.5q1.5 -1.5 1.5 -3.5t-2 -3.5t-5 -0.5q-23 2 -132 2q-108 0 -131 -2q-7 0 -7.5 5t6.5 5q24 -1 43 10.5t19 38.5q0 18 -10 42l-67 160h-286l-66 -160q-9 -21 -9 -40q0 -26 18.5 -38t45.5 -14q6 0 6 -4q0 -2 -2 -3.5t-5 -1.5q-22 2 -74 2t-75 -2h-1q-6 0 -6.5 4.5
t6.5 4.5q27 2 46.5 20.5t40.5 69.5l67 162h-54q-7 0 -7 3.5t7 3.5h57l133 320q5 15 5 24q0 15 -7 29l1 -1l-19 46q-2 8 -2 9q0 6 9 6q7 0 32.5 2.5t46.5 2.5q23 0 34 -10t22 -37l234 -560q21 -49 40 -67.5t42 -22.5q3 0 4.5 -1.5zM316 604l-139 -337h280zM530 866.5
q1 -2.5 -3 -4.5q-40 -16 -61 -36t-39 -47q-14 -21 -25 -30t-31 -9q-22 0 -33.5 9.5t-25.5 30.5q-18 27 -38.5 46t-58.5 36q-4 2 -3 4.5t5 2.5q29 -2 77 -25t76 -50q29 27 78 50.5t77 24.5q4 0 5 -2.5z" />
    <glyph glyph-name="Acircumflex.ss03" horiz-adv-x="752" 
d="M744.5 6.5q1.5 -1.5 1.5 -3.5t-2 -3.5t-5 -0.5q-23 2 -132 2q-108 0 -131 -2q-7 0 -7.5 5t6.5 5q24 -1 43 10.5t19 38.5q0 18 -10 42l-67 160h-286l-66 -160q-9 -21 -9 -40q0 -26 18.5 -38t45.5 -14q6 0 6 -4q0 -2 -2 -3.5t-5 -1.5q-22 2 -74 2t-75 -2h-1q-6 0 -6.5 4.5
t6.5 4.5q27 2 46.5 20.5t40.5 69.5l67 162h-54q-7 0 -7 3.5t7 3.5h57l133 320q5 15 5 24q0 15 -7 29l1 -1l-19 46q-2 8 -2 9q0 6 9 6q7 0 32.5 2.5t46.5 2.5q23 0 34 -10t22 -37l234 -560q21 -49 40 -67.5t42 -22.5q3 0 4.5 -1.5zM316 604l-139 -337h280zM542 740
q-1 -3 -6 -3q-30 2 -81.5 26.5t-81.5 53.5q-30 -29 -82.5 -54t-82.5 -26q-5 0 -6 3t3 5q44 17 66 38t41 50q15 22 26.5 31.5t33.5 9.5q23 0 35 -9.5t28 -32.5q20 -28 41.5 -48.5t62.5 -38.5q4 -2 3 -5z" />
    <glyph glyph-name="uni1EAC.ss03" horiz-adv-x="752" 
d="M744.5 6.5q1.5 -1.5 1.5 -3.5t-2 -3.5t-5 -0.5q-23 2 -132 2q-108 0 -131 -2q-7 0 -7.5 5t6.5 5q24 -1 43 10.5t19 38.5q0 18 -10 42l-67 160h-286l-66 -160q-9 -21 -9 -40q0 -26 18.5 -38t45.5 -14q6 0 6 -4q0 -2 -2 -3.5t-5 -1.5q-22 2 -74 2t-75 -2h-1q-6 0 -6.5 4.5
t6.5 4.5q27 2 46.5 20.5t40.5 69.5l67 162h-54q-7 0 -7 3.5t7 3.5h57l133 320q5 15 5 24q0 15 -7 29l1 -1l-19 46q-2 8 -2 9q0 6 9 6q7 0 32.5 2.5t46.5 2.5q23 0 34 -10t22 -37l234 -560q21 -49 40 -67.5t42 -22.5q3 0 4.5 -1.5zM316 604l-139 -337h280zM271 -147
q-17 14 -17 34q1 24 19.5 40t48.5 16q24 0 40.5 -13.5t16.5 -33.5q0 -24 -18.5 -40.5t-48.5 -16.5q-24 0 -41 14zM542 740q-1 -3 -6 -3q-30 2 -81.5 26.5t-81.5 53.5q-30 -29 -82.5 -54t-82.5 -26q-5 0 -6 3t3 5q44 17 66 38t41 50q15 22 26.5 31.5t33.5 9.5q23 0 35 -9.5
t28 -32.5q20 -28 41.5 -48.5t62.5 -38.5q4 -2 3 -5z" />
    <glyph glyph-name="Adieresis.ss03" horiz-adv-x="752" 
d="M744.5 6.5q1.5 -1.5 1.5 -3.5t-2 -3.5t-5 -0.5q-23 2 -132 2q-108 0 -131 -2q-7 0 -7.5 5t6.5 5q24 -1 43 10.5t19 38.5q0 18 -10 42l-67 160h-286l-66 -160q-9 -21 -9 -40q0 -26 18.5 -38t45.5 -14q6 0 6 -4q0 -2 -2 -3.5t-5 -1.5q-22 2 -74 2t-75 -2h-1q-6 0 -6.5 4.5
t6.5 4.5q27 2 46.5 20.5t40.5 69.5l67 162h-54q-7 0 -7 3.5t7 3.5h57l133 320q5 15 5 24q0 15 -7 29l1 -1l-19 46q-2 8 -2 9q0 6 9 6q7 0 32.5 2.5t46.5 2.5q23 0 34 -10t22 -37l234 -560q21 -49 40 -67.5t42 -22.5q3 0 4.5 -1.5zM316 604l-139 -337h280zM246.5 767.5
q-16.5 13.5 -16.5 33.5q1 24 19.5 39.5t48.5 15.5q24 0 40.5 -14t16.5 -34q-1 -23 -19.5 -38.5t-47.5 -15.5q-25 0 -41.5 13.5zM406.5 767.5q-16.5 13.5 -16.5 33.5q1 24 19.5 39.5t48.5 15.5q24 0 40.5 -14t16.5 -34q-1 -23 -19.5 -38.5t-47.5 -15.5q-25 0 -41.5 13.5z" />
    <glyph glyph-name="Agrave.ss03" horiz-adv-x="752" 
d="M744.5 6.5q1.5 -1.5 1.5 -3.5t-2 -3.5t-5 -0.5q-23 2 -132 2q-108 0 -131 -2q-7 0 -7.5 5t6.5 5q24 -1 43 10.5t19 38.5q0 18 -10 42l-67 160h-286l-66 -160q-9 -21 -9 -40q0 -26 18.5 -38t45.5 -14q6 0 6 -4q0 -2 -2 -3.5t-5 -1.5q-22 2 -74 2t-75 -2h-1q-6 0 -6.5 4.5
t6.5 4.5q27 2 46.5 20.5t40.5 69.5l67 162h-54q-7 0 -7 3.5t7 3.5h57l133 320q5 15 5 24q0 15 -7 29l1 -1l-19 46q-2 8 -2 9q0 6 9 6q7 0 32.5 2.5t46.5 2.5q23 0 34 -10t22 -37l234 -560q21 -49 40 -67.5t42 -22.5q3 0 4.5 -1.5zM316 604l-139 -337h280zM332.5 763.5
q-54.5 22.5 -100.5 49t-46 41.5q-1 8 19.5 12.5t43.5 4.5q20 0 23 -3l12 -16q20 -27 45 -49.5t78 -52.5q3 -1 3 -4q0 -4 -7 -5q-16 0 -70.5 22.5z" />
    <glyph glyph-name="Amacron.ss03" horiz-adv-x="752" 
d="M744.5 6.5q1.5 -1.5 1.5 -3.5t-2 -3.5t-5 -0.5q-23 2 -132 2q-108 0 -131 -2q-7 0 -7.5 5t6.5 5q24 -1 43 10.5t19 38.5q0 18 -10 42l-67 160h-286l-66 -160q-9 -21 -9 -40q0 -26 18.5 -38t45.5 -14q6 0 6 -4q0 -2 -2 -3.5t-5 -1.5q-22 2 -74 2t-75 -2h-1q-6 0 -6.5 4.5
t6.5 4.5q27 2 46.5 20.5t40.5 69.5l67 162h-54q-7 0 -7 3.5t7 3.5h57l133 320q5 15 5 24q0 15 -7 29l1 -1l-19 46q-2 8 -2 9q0 6 9 6q7 0 32.5 2.5t46.5 2.5q23 0 34 -10t22 -37l234 -560q21 -49 40 -67.5t42 -22.5q3 0 4.5 -1.5zM316 604l-139 -337h280zM242 767
q-4 0 -6.5 1.5t-2.5 3.5q0 5 9 5h259q9 0 9 -5q0 -2 -2.5 -3.5t-6.5 -1.5h-259z" />
    <glyph glyph-name="Aogonek.ss03" horiz-adv-x="752" 
d="M744.5 6.5q1.5 -1.5 1.5 -3.5q0 -4 -5 -4l-64 2q-31 -28 -42.5 -50.5t-11.5 -44.5q0 -24 12.5 -36.5t33.5 -12.5q58 0 58 59q0 6 3.5 6t3.5 -6q0 -44 -29 -71.5t-79 -27.5q-36 0 -56 16t-20 45q0 36 31 66t83 57h-58q-84 0 -130 -2q-7 0 -7.5 5t6.5 5q24 -1 43 10.5
t19 38.5q0 18 -10 42l-67 160h-286l-66 -160q-9 -21 -9 -40q0 -26 18.5 -38t45.5 -14q6 0 6 -4q0 -2 -2 -3.5t-5 -1.5q-22 2 -74 2t-75 -2h-1q-6 0 -6.5 4.5t6.5 4.5q27 2 46.5 20.5t40.5 69.5l67 162h-54q-7 0 -7 3.5t7 3.5h57l133 320q5 15 5 24q0 15 -7 29l1 -1l-19 46
q-2 8 -2 9q0 6 9 6q7 0 32.5 2.5t46.5 2.5q23 0 34 -10t22 -37l234 -560q21 -49 40 -67.5t42 -22.5q3 0 4.5 -1.5zM316 604l-139 -337h280z" />
    <glyph glyph-name="Aring.ss03" horiz-adv-x="752" 
d="M744.5 6.5q1.5 -1.5 1.5 -3.5t-2 -3.5t-5 -0.5q-23 2 -132 2q-108 0 -131 -2q-7 0 -7.5 5t6.5 5q24 -1 43 10.5t19 38.5q0 18 -10 42l-67 160h-286l-66 -160q-9 -21 -9 -40q0 -26 18.5 -38t45.5 -14q6 0 6 -4q0 -2 -2 -3.5t-5 -1.5q-22 2 -74 2t-75 -2h-1q-6 0 -6.5 4.5
t6.5 4.5q27 2 46.5 20.5t40.5 69.5l67 162h-54q-7 0 -7 3.5t7 3.5h57l133 320q5 15 5 24q0 15 -7 29l1 -1l-19 46q-2 8 -2 9q0 6 9 6q7 0 32.5 2.5t46.5 2.5q23 0 34 -10t22 -37l234 -560q21 -49 40 -67.5t42 -22.5q3 0 4.5 -1.5zM316 604l-139 -337h280zM298 746.5
q-27 20.5 -27 52.5q0 30 29 54t70 24q40 0 69 -20t29 -51q0 -32 -30.5 -56t-74.5 -24q-38 0 -65 20.5zM426 773q0 17 -12 39t-30 37.5t-35 15.5q-34 0 -34 -33q0 -17 11.5 -39.5t29.5 -38t36 -15.5q34 0 34 34z" />
    <glyph glyph-name="Aringacute.ss03" horiz-adv-x="752" 
d="M744.5 6.5q1.5 -1.5 1.5 -3.5t-2 -3.5t-5 -0.5q-23 2 -132 2q-108 0 -131 -2q-7 0 -7.5 5t6.5 5q24 -1 43 10.5t19 38.5q0 18 -10 42l-67 160h-286l-66 -160q-9 -21 -9 -40q0 -26 18.5 -38t45.5 -14q6 0 6 -4q0 -2 -2 -3.5t-5 -1.5q-22 2 -74 2t-75 -2h-1q-6 0 -6.5 4.5
t6.5 4.5q27 2 46.5 20.5t40.5 69.5l67 162h-54q-7 0 -7 3.5t7 3.5h57l133 320q5 15 5 24q0 15 -7 29l1 -1l-19 46q-2 8 -2 9q0 6 9 6q7 0 32.5 2.5t46.5 2.5q23 0 34 -10t22 -37l234 -560q21 -49 40 -67.5t42 -22.5q3 0 4.5 -1.5zM316 604l-139 -337h280zM298 746.5
q-27 20.5 -27 52.5q0 30 29 54t70 24q40 0 69 -20t29 -51q0 -32 -30.5 -56t-74.5 -24q-38 0 -65 20.5zM426 773q0 17 -12 39t-30 37.5t-35 15.5q-34 0 -34 -33q0 -17 11.5 -39.5t29.5 -38t36 -15.5q34 0 34 34zM278.5 938q-1.5 3 3.5 5q53 30 78 52.5t45 49.5l12 16
q3 3 23 3q23 0 43.5 -4.5t19.5 -12.5q0 -15 -46 -41.5t-100.5 -49t-70.5 -22.5q-6 1 -7.5 4z" />
    <glyph glyph-name="Atilde.ss03" horiz-adv-x="752" 
d="M744.5 6.5q1.5 -1.5 1.5 -3.5t-2 -3.5t-5 -0.5q-23 2 -132 2q-108 0 -131 -2q-7 0 -7.5 5t6.5 5q24 -1 43 10.5t19 38.5q0 18 -10 42l-67 160h-286l-66 -160q-9 -21 -9 -40q0 -26 18.5 -38t45.5 -14q6 0 6 -4q0 -2 -2 -3.5t-5 -1.5q-22 2 -74 2t-75 -2h-1q-6 0 -6.5 4.5
t6.5 4.5q27 2 46.5 20.5t40.5 69.5l67 162h-54q-7 0 -7 3.5t7 3.5h57l133 320q5 15 5 24q0 15 -7 29l1 -1l-19 46q-2 8 -2 9q0 6 9 6q7 0 32.5 2.5t46.5 2.5q23 0 34 -10t22 -37l234 -560q21 -49 40 -67.5t42 -22.5q3 0 4.5 -1.5zM316 604l-139 -337h280zM205 740q-2 0 -3 2
t0 6q16 49 42 72.5t64 23.5q29 0 64 -13l43 -16q30 -12 54 -12q42 0 64 42q3 4 6 4q5 0 2 -8q-32 -98 -106 -98q-25 0 -62 13l-47 17q-45 17 -70 17q-19 0 -29 -10.5t-17 -33.5q-2 -6 -5 -6z" />
    <glyph glyph-name="Hbar.ss03" horiz-adv-x="808" 
d="M775 0.5q0 -3.5 -6 -3.5q-39 3 -58 3h-152q-19 0 -58 -3q-5 0 -5.5 3.5t5.5 4.5q35 2 53.5 25t18.5 78v261l-338 1v-262q0 -55 18.5 -78t53.5 -25q6 -1 6 -4.5t-6 -3.5q-39 3 -58 3h-152q-19 0 -58 -3q-6 0 -6 3.5t6 4.5q35 2 53.5 25t18.5 78v262h-71q-4 0 -4 4t4 4h71
v126h-52q-5 0 -5 3.5t5 3.5h52v81q0 55 -18.5 78t-53.5 25q-6 1 -6 4.5t6 3.5q39 -3 58 -3h152q19 0 58 3q6 0 6 -3.5t-6 -4.5q-35 -2 -53.5 -25t-18.5 -78v-81h338v81q0 55 -18.5 78t-53.5 25q-6 1 -5.5 4.5t5.5 3.5q39 -3 58 -3h152q19 0 58 3q6 0 6 -3.5t-6 -4.5
q-35 -2 -53.5 -25t-18.5 -78v-81h52q5 0 5 -3.5t-5 -3.5h-52v-396q0 -55 18.5 -78t53.5 -25q6 -1 6 -4.5zM235 504v-126l338 -1v127h-338z" />
    <glyph glyph-name="uni1E2A.ss03" horiz-adv-x="808" 
d="M775 0.5q0 -3.5 -6 -3.5q-39 3 -58 3h-152q-19 0 -58 -3q-5 0 -5.5 3.5t5.5 4.5q35 2 53.5 25t18.5 78v261l-338 1v-262q0 -55 18.5 -78t53.5 -25q6 -1 6 -4.5t-6 -3.5q-39 3 -58 3h-152q-19 0 -58 -3q-6 0 -6 3.5t6 4.5q35 2 53.5 25t18.5 78v262h-71q-4 0 -4 4t4 4h71
v214q0 55 -18.5 78t-53.5 25q-6 1 -6 4.5t6 3.5q39 -3 58 -3h152q19 0 58 3q6 0 6 -3.5t-6 -4.5q-35 -2 -53.5 -25t-18.5 -78v-214l338 -1v215q0 55 -18.5 78t-53.5 25q-6 1 -5.5 4.5t5.5 3.5q39 -3 58 -3h152q19 0 58 3q6 0 6 -3.5t-6 -4.5q-35 -2 -53.5 -25t-18.5 -78
v-484q0 -55 18.5 -78t53.5 -25q6 -1 6 -4.5zM344 -58q9 -3 9 -10q0 -38 21 -70t61 -32q44 0 62.5 32t18.5 69q0 6 4 6q5 0 5 -6q0 -50 -30 -89.5t-94 -39.5q-44 0 -72.5 20.5t-42 50.5t-13.5 60q0 6 7 9t27 3q28 0 37 -3z" />
    <glyph glyph-name="Hcircumflex.ss03" horiz-adv-x="808" 
d="M775 0.5q0 -3.5 -6 -3.5q-39 3 -58 3h-152q-19 0 -58 -3q-5 0 -5.5 3.5t5.5 4.5q35 2 53.5 25t18.5 78v261l-338 1v-262q0 -55 18.5 -78t53.5 -25q6 -1 6 -4.5t-6 -3.5q-39 3 -58 3h-152q-19 0 -58 -3q-6 0 -6 3.5t6 4.5q35 2 53.5 25t18.5 78v262h-71q-4 0 -4 4t4 4h71
v214q0 55 -18.5 78t-53.5 25q-6 1 -6 4.5t6 3.5q39 -3 58 -3h152q19 0 58 3q6 0 6 -3.5t-6 -4.5q-35 -2 -53.5 -25t-18.5 -78v-214l338 -1v215q0 55 -18.5 78t-53.5 25q-6 1 -5.5 4.5t5.5 3.5q39 -3 58 -3h152q19 0 58 3q6 0 6 -3.5t-6 -4.5q-35 -2 -53.5 -25t-18.5 -78
v-484q0 -55 18.5 -78t53.5 -25q6 -1 6 -4.5zM575 740q-1 -3 -6 -3q-30 2 -81.5 26.5t-81.5 53.5q-30 -29 -82.5 -54t-82.5 -26q-5 0 -6 3t3 5q44 17 66 38t41 50q15 22 26.5 31.5t33.5 9.5q23 0 35 -9.5t28 -32.5q20 -28 41.5 -48.5t62.5 -38.5q4 -2 3 -5z" />
    <glyph glyph-name="uni1E24.ss03" horiz-adv-x="808" 
d="M775 0.5q0 -3.5 -6 -3.5q-39 3 -58 3h-152q-19 0 -58 -3q-5 0 -5.5 3.5t5.5 4.5q35 2 53.5 25t18.5 78v261l-338 1v-262q0 -55 18.5 -78t53.5 -25q6 -1 6 -4.5t-6 -3.5q-39 3 -58 3h-152q-19 0 -58 -3q-6 0 -6 3.5t6 4.5q35 2 53.5 25t18.5 78v262h-71q-4 0 -4 4t4 4h71
v214q0 55 -18.5 78t-53.5 25q-6 1 -6 4.5t6 3.5q39 -3 58 -3h152q19 0 58 3q6 0 6 -3.5t-6 -4.5q-35 -2 -53.5 -25t-18.5 -78v-214l338 -1v215q0 55 -18.5 78t-53.5 25q-6 1 -5.5 4.5t5.5 3.5q39 -3 58 -3h152q19 0 58 3q6 0 6 -3.5t-6 -4.5q-35 -2 -53.5 -25t-18.5 -78
v-484q0 -55 18.5 -78t53.5 -25q6 -1 6 -4.5zM364 -147q-17 14 -17 34q1 24 19.5 40t48.5 16q24 0 40.5 -13.5t16.5 -33.5q0 -24 -18.5 -40.5t-48.5 -16.5q-24 0 -41 14z" />
    <glyph glyph-name="uni0136.ss03" horiz-adv-x="636" 
d="M690.5 0.5q-0.5 -3.5 -5.5 -3.5q-39 3 -58 3h-105q-10 0 -16.5 3t-12.5 12l-174 232v87l-85 -112v-114q0 -55 18.5 -78t53.5 -25q7 -1 6.5 -4.5t-6.5 -3.5q-39 3 -58 3h-151q-19 0 -58 -3q-6 0 -6 3.5t6 4.5q35 2 53.5 25t18.5 78v587q0 5 -3 5h3h137q19 0 58 3
q6 0 6.5 -3.5t-6.5 -4.5q-35 -2 -53.5 -25t-18.5 -78v-358l85 112v82q0 5 4 5q2 0 4 -2l28 -38l161 213q22 28 22 50q0 18 -15.5 28t-39.5 11q-6 1 -5.5 4.5t5.5 3.5q42 -3 58 -3h41q24 0 69 3q7 0 7.5 -3.5t-6.5 -4.5q-37 -1 -63.5 -20.5t-63.5 -69.5l-166 -218l215 -292
q37 -51 59 -70t52 -20q6 -1 5.5 -4.5zM293.5 -224.5q-0.5 2.5 3.5 4.5q60 29 60 77q0 9 -8 12.5t-23 5.5q-20 3 -31 9t-11 23q0 15 18.5 28.5t44.5 13.5q29 0 42.5 -13.5t13.5 -34.5q0 -28 -17 -54.5t-42 -45.5t-46 -26q-4 -2 -4.5 0.5z" />
    <glyph glyph-name="Racute.ss03" horiz-adv-x="627" 
d="M681.5 0.5q-0.5 -3.5 -5.5 -3.5q-42 3 -58 3h-101q-10 0 -16 3t-13 12l-180 206v92q-34 0 -73 3v-208q0 -55 18.5 -78t53.5 -25q6 -1 6 -4.5t-6 -3.5q-39 3 -58 3h-152q-19 0 -58 -3q-6 0 -6 3.5t6 4.5q35 2 53.5 25t18.5 78v484q0 55 -18.5 78t-53.5 25q-7 0 -6.5 3.5
t6.5 3.5q26 -2 58 -2q28 0 64 1t54 2q92 2 134 2q147 0 220.5 -48.5t73.5 -148.5q0 -89 -62.5 -138t-200.5 -56l182 -221q42 -51 63 -69t51 -19q6 -1 5.5 -4.5zM235 325l32 -1q15 0 41 2v62q0 5 4 5q2 0 4 -2l49 -59q79 14 109.5 54t30.5 116q0 100 -45 142.5t-129 42.5h-58
q-24 0 -31 -7.5t-7 -34.5v-320zM249.5 745q-1.5 3 3.5 5q53 30 78 52.5t45 49.5l12 16q3 3 23 3q23 0 43.5 -4.5t19.5 -12.5q0 -15 -46 -41.5t-100.5 -49t-70.5 -22.5q-6 1 -7.5 4z" />
    <glyph glyph-name="Rcaron.ss03" horiz-adv-x="627" 
d="M681.5 0.5q-0.5 -3.5 -5.5 -3.5q-42 3 -58 3h-101q-10 0 -16 3t-13 12l-180 206v92q-34 0 -73 3v-208q0 -55 18.5 -78t53.5 -25q6 -1 6 -4.5t-6 -3.5q-39 3 -58 3h-152q-19 0 -58 -3q-6 0 -6 3.5t6 4.5q35 2 53.5 25t18.5 78v484q0 55 -18.5 78t-53.5 25q-7 0 -6.5 3.5
t6.5 3.5q26 -2 58 -2q28 0 64 1t54 2q92 2 134 2q147 0 220.5 -48.5t73.5 -148.5q0 -89 -62.5 -138t-200.5 -56l182 -221q42 -51 63 -69t51 -19q6 -1 5.5 -4.5zM235 325l32 -1q15 0 41 2v62q0 5 4 5q2 0 4 -2l49 -59q79 14 109.5 54t30.5 116q0 100 -45 142.5t-129 42.5h-58
q-24 0 -31 -7.5t-7 -34.5v-320zM500 866.5q1 -2.5 -3 -4.5q-40 -16 -61 -36t-39 -47q-14 -21 -25 -30t-31 -9q-22 0 -33.5 9.5t-25.5 30.5q-18 27 -38.5 46t-58.5 36q-4 2 -3 4.5t5 2.5q29 -2 77 -25t76 -50q29 27 78 50.5t77 24.5q4 0 5 -2.5z" />
    </font>
</defs>
</svg>
