<svg width="40" height="40" viewBox="0 0 40 40" fill="none" xmlns="http://www.w3.org/2000/svg">
<circle cx="20" cy="20" r="20" fill="#606DDD"/>
<g clip-path="url(#clip0_87_1696)">
<path fill-rule="evenodd" clip-rule="evenodd" d="M20 36C11.163 36 4 28.837 4 20C4 11.163 11.163 4 20 4C28.837 4 36 11.163 36 20C36 28.837 28.837 36 20 36ZM20.28 27.325C21.308 28.036 22.612 28.459 24.024 28.459C24.375 28.459 24.722 28.433 25.063 28.382C25.18 28.43 25.293 28.489 25.432 28.569C25.732 28.745 26.133 29.015 26.632 29.379C27.041 29.678 27.62 29.389 27.62 28.886V27.425C27.83 27.289 28.028 27.142 28.215 26.983C29.345 26.025 30 24.715 30 23.31C30 22.385 29.72 21.52 29.228 20.773C29.0729 21.3035 28.8628 21.8162 28.601 22.303C28.705 22.626 28.76 22.963 28.76 23.31C28.76 24.344 28.272 25.32 27.408 26.052C27.1851 26.2403 26.945 26.4074 26.691 26.551C26.5969 26.6042 26.5185 26.6813 26.4639 26.7746C26.4093 26.8678 26.3803 26.9739 26.38 27.082V27.706C25.787 27.326 25.38 27.147 25.07 27.147C25.0351 27.1471 25.0004 27.1501 24.966 27.156C24.0972 27.3013 23.2065 27.2431 22.364 26.986C21.6816 27.1632 20.9843 27.277 20.281 27.326L20.28 27.325ZM12.814 24.403C13.1438 24.682 13.4926 24.9376 13.858 25.168V27.66C13.858 28.29 14.583 28.65 15.094 28.276C16.504 27.246 17.484 26.664 17.729 26.606C18.295 26.696 18.873 26.741 19.457 26.741C24.657 26.741 28.915 23.134 28.915 18.621C28.915 14.107 24.656 10.5 19.457 10.5C14.258 10.5 10 14.107 10 18.62C10 20.83 11.03 22.891 12.814 24.403ZM17.763 25.069C17.26 25.069 16.525 25.424 15.409 26.173V24.736C15.4085 24.6007 15.3722 24.468 15.3036 24.3514C15.2351 24.2347 15.1369 24.1383 15.019 24.072C14.5953 23.8322 14.1948 23.5533 13.823 23.239C12.37 22.01 11.55 20.366 11.55 18.62C11.55 15.01 15.066 12.032 19.457 12.032C23.849 12.032 27.364 15.01 27.364 18.62C27.364 22.23 23.849 25.209 19.457 25.209C18.927 25.209 18.404 25.165 17.893 25.079C17.85 25.0721 17.8065 25.0687 17.763 25.069ZM15.426 20.153C16.111 20.153 16.666 19.603 16.666 18.927C16.666 18.25 16.111 17.701 15.426 17.701C14.741 17.701 14.186 18.25 14.186 18.927C14.186 19.604 14.741 20.153 15.426 20.153ZM19.457 20.153C20.142 20.153 20.697 19.603 20.697 18.927C20.697 18.25 20.142 17.701 19.457 17.701C18.772 17.701 18.217 18.25 18.217 18.927C18.217 19.604 18.772 20.153 19.457 20.153ZM23.488 20.153C24.173 20.153 24.728 19.603 24.728 18.927C24.728 18.25 24.173 17.701 23.488 17.701C22.803 17.701 22.248 18.25 22.248 18.927C22.248 19.604 22.803 20.153 23.488 20.153Z" fill="url(#paint0_linear_87_1696)"/>
</g>
<defs>
<linearGradient id="paint0_linear_87_1696" x1="20" y1="4" x2="20" y2="36" gradientUnits="userSpaceOnUse">
<stop stop-color="#FFD1E7"/>
<stop offset="1" stop-color="#E0EDFF"/>
</linearGradient>
<clipPath id="clip0_87_1696">
<rect width="32" height="32" fill="white" transform="translate(4 4)"/>
</clipPath>
</defs>
</svg>
